<?xml version="1.0" encoding="UTF-8" standalone="no"?>
<svg xmlns:rdf="http://www.w3.org/1999/02/22-rdf-syntax-ns#" xmlns="http://www.w3.org/2000/svg" height="226.97927" width="226.97931" version="1.1" xmlns:cc="http://creativecommons.org/ns#" xmlns:dc="http://purl.org/dc/elements/1.1/" viewBox="0 0 226.97931 226.97927"><path d="M207.58362,102.87785a94.69329,94.69329,0,1,1-35.06916-63.42912,94.38732,94.38732,0,0,1,35.06916,63.42912Z" fill="#201600"/><path d="M144.95347,144.26386a43.37775,43.37775,0,0,0,12.70473-28.862H126.6178a43.43736,43.43736,0,0,0,16.08671,30.95788q1.16122-1.00842,2.249-2.09587Zm-21.76166-28.862h-7.50309v41.58222a43.30751,43.30751,0,0,0,24.29715-8.44676,46.81652,46.81652,0,0,1-16.79406-33.13546Zm-10.922,0H104.795a46.853,46.853,0,0,1-16.014,33.43068,43.298,43.298,0,0,0,23.48881,8.13636v-41.567Zm-10.89642,0h-30.671a43.37657,43.37657,0,0,0,12.70446,28.862q1.26507,1.26527,2.63211,2.42414a43.37689,43.37689,0,0,0,15.33446-31.28615Zm56.30041-3.41887a43.5383,43.5383,0,0,0-16.16151-32.36189,43.38416,43.38416,0,0,0-14.9876,32.36189ZM138.7131,77.53828a43.29623,43.29623,0,0,0-23.02438-7.54294V111.983h7.41684a46.85382,46.85382,0,0,1,15.60754-34.4447ZM112.26984,70.0105a43.29831,43.29831,0,0,0-23.49136,8.13807A46.81552,46.81552,0,0,1,104.80932,111.983h7.46052V70.0105ZM86.04124,80.28926q-1.36679,1.15909-2.6348,2.42655A43.38085,43.38085,0,0,0,70.68679,111.983H101.3886A43.43875,43.43875,0,0,0,86.04124,80.28926Z" fill="#dc7d43" fill-rule="evenodd"/><path d="M85.07956,16.0992l17.51629-3.53562L90.9447,0,85.07956,16.0992ZM210.88022,85.07953l3.53549,17.51671L226.97931,90.945l-16.09909-5.86545ZM141.8993,210.88005l-17.51628,3.536,11.65114,12.56317,5.86514-16.09922ZM16.09923,141.89916,12.56317,124.383,0,136.03415l16.09923,5.865Zm8.43583-77.18593,9.88537-14.88617L17.29838,49.1816l7.23668,15.53163ZM162.26574,24.53488l14.88661,9.8861.64519-17.12248-15.5318,7.23638Zm40.17808,137.73086-9.88538,14.88644,17.12232.64533-7.23694-15.53177ZM64.71312,202.44436l-14.886-9.8861L49.18133,209.681l15.53179-7.23667ZM49.97264,34.38426l14.83041-9.96953L49.23042,17.26645l.74222,17.11781Zm142.622,15.58794,9.9702,14.83027,7.14817-15.572-17.11837.74178Zm-15.588,142.62225-14.82984,9.96979L177.749,209.713l-.74235-17.11851ZM34.38441,177.00664l-9.96923-14.83042L17.266,177.74885l17.11838-.74221ZM12.64035,102.46729,16.077,84.93114.01092,90.88765l12.62943,11.57964Zm111.87121-89.827,17.53613,3.43661L136.09177.01106,124.51156,12.64033ZM214.33865,124.512l-3.43618,17.53559,16.06548-5.9558L214.33865,124.512Zm-111.87135,89.827-17.53613-3.4366,5.9565,16.06546,11.57963-12.62886Z" fill="#979695" fill-rule="evenodd"/><path d="M202.67376,103.43325a89.74665,89.74665,0,1,1-33.23617-60.12218,89.46161,89.46161,0,0,1,33.23617,60.12218ZM181.4722,167.69239a86.94714,86.94714,0,1,0-58.23144,32.19392,86.67892,86.67892,0,0,0,58.23144-32.19392Z" fill="#fff"/><path d="M52.4775,100.8776A3.86511,3.86511,0,1,1,48.612,97.01226a3.86569,3.86569,0,0,1,3.86546,3.86534Zm31.984-28.477-7.33839,9.33721-3.30184-1.29107L71.81132,83.004,73.868,85.87964,64.3349,98.00912,46.12535,69.03138l8.166-10.39,28.55841,9.54209-8.882-26.24537L88.8406,36.90457a24.51494,24.51494,0,0,1,7.41073-1.49282,9.19022,9.19022,0,0,1,7.59985,3.23516,10.44981,10.44981,0,0,1,1.13929,1.719,13.18084,13.18084,0,0,1,.85459,1.98648,11.88923,11.88923,0,0,1,.64845,3.32269,8.72782,8.72782,0,0,1-.3927,3.03276,6.69688,6.69688,0,0,1,2.00624,1.96562,11.36943,11.36943,0,0,1,.7466,1.22811,25.17766,25.17766,0,0,1,1.52148,3.83935l.83826-.28357,1.86012,5.49743,8.20088-28.8793,14.53435,4.12762L135.04,38.91021l3.19713-2.01741,18.40436,5.22663-16.0683,9.35891,4.89649,15.92318L172.48,58.377l8.166,10.39-18.2097,28.97731L152.81235,85.4996l2.035-2.9035-2.01459-2.56287-3.28,1.31859-7.845-9.98171-11.93248-3.38838L128.304,62.62914l-1.29691,4.56654-14.53363-4.12763.04625-.163-12.39039,4.19329c-.58817-.796-1.23164-1.6107-1.75229-2.4474a12.87811,12.87811,0,0,1-.80959-1.53226q-.2028-.44789-.53539-1.25291-.29025-.70328-.63556-1.59055c-.05688-.14626-.2613-.613-.4982-1.06113l-.15775.036,2.83426,8.37442-14.1133,4.77607Zm-49.65757,64.018a16.942,16.942,0,0,1-.66377-5.00276,14.34151,14.34151,0,0,1,1.52146-6.006,15.23751,15.23751,0,0,1,3.9188-4.91907,19.73277,19.73277,0,0,1,5.583-3.139,20.89958,20.89958,0,0,1,6.36267-1.345,16.36613,16.36613,0,0,1,3.15018.16683,15.4854,15.4854,0,0,1,3.00478.78135,14.60771,14.60771,0,0,1,5.72911,3.81425,18.63068,18.63068,0,0,1,3.36867,5.35914,19.45263,19.45263,0,0,1,1.52941,6.21839,15.05429,15.05429,0,0,1-.06512,2.66275,14.412,14.412,0,0,1-.54475,2.589,13.47325,13.47325,0,0,1-1.02368,2.45478,13.26265,13.26265,0,0,1-1.49225,2.20029,15.34208,15.34208,0,0,1-4.17471,3.43121,78.08715,78.08715,0,0,1-12.87116,5.34651c-1.59893.55808-3.16991,1.10652-4.56782,1.63141l-1.79229.67314c-.99955-2.662-6.20788-14.21387-6.97252-16.9172Zm38.24065,23.77907-4.32339,4.78927a1.13123,1.13123,0,0,0,.49481.036,2.41774,2.41774,0,0,0,.86039-.36458,6.36414,6.36414,0,0,0,.81784-.617,11.18592,11.18592,0,0,0,.94749-.93628,12.07675,12.07675,0,0,0,.80664-.9824,6.19483,6.19483,0,0,0,.50006-.80223c.26273-.51184.28628-.50332.02028-.93388-.03915-.063-.08029-.12626-.12412-.189Zm8.05109-10.02654a27.78361,27.78361,0,0,1,2.39946,2.43777,20.86742,20.86742,0,0,1,1.892,2.53635,16.34829,16.34829,0,0,1,1.39054,2.73383,13.78225,13.78225,0,0,1,.78706,2.84405,12.402,12.402,0,0,1,.09589,3.2424,13.21451,13.21451,0,0,1-.75583,3.21516,15.81866,15.81866,0,0,1-1.48587,2.988,21.03253,21.03253,0,0,1-2.18283,2.848,25.0885,25.0885,0,0,1-2.77881,2.66544l-.00368-.00453a18.2952,18.2952,0,0,1-2.93726,1.96706,14.35445,14.35445,0,0,1-3.20607,1.26441,12.75158,12.75158,0,0,1-3.33051.39013,13.24277,13.24277,0,0,1-3.0008-.38005,15.4894,15.4894,0,0,1-2.95953-1.05674,20.05192,20.05192,0,0,1-2.80646-1.63679,27.14806,27.14806,0,0,1-2.7561-2.197L48.856,164.45893,70.43882,140.551l10.65681,9.62009Zm24.54543,15.84048,3.176-4.02974,13.86233,2.72361-.28016-.51992,11.502-6.19612,5.71519,3.11714-.16708-.32089c-.78522-1.50672-1.58619-3.00095-2.39195-4.49618l12.98677-6.99607,15.278,28.36094L153.82,183.85049l-5.71916-3.11927q1.26525,2.419,2.56286,4.8192l-12.98677,6.99608L123.96879,167.099l-14.02747,15.84274-2.28966,11.65254-14.83252-2.915,2.2648-11.524L87.3431,157.7619l16.91947,3.32468,1.37849,4.925ZM184.09224,155.616l-9.09293,12.04651L149.29716,148.2621l9.09293-12.04651L184.09224,155.616Zm12.57749-38.79845-4.09881,15.03343-3.54344.09617-.85527,3.13742,3.01356,1.84761-4.05654,14.8805L159.09018,132.2243l3.478-12.75907,34.10153-2.64773Zm-14.43759-15.9399a3.86511,3.86511,0,1,1-3.86531-3.86534,3.86568,3.86568,0,0,1,3.86531,3.86534Z" fill="#c9c8c8" fill-rule="evenodd"/><path d="M178.67439,131.52264l.3775-1.38413-2.58944.05246,2.21194,1.33167ZM64.4423,76.013l.88565-1.12724-2.403-.95856L64.4423,76.013Zm-9.473-15.12L83.5517,70.44333,76.49221,79.426l-3.302-1.29137-3.782,4.81239,2.05659,2.87542-6.95651,8.85118-16.0344-25.5163L54.96931,60.893ZM89.86939,47.902l.69569,2.05544,1.9482-.65922a6.32118,6.32118,0,0,0,1.382-.62377c.22413-.14485.535-.35071.54986-.64818a1.23584,1.23584,0,0,0-.07916-.444,1.09374,1.09374,0,0,0-.2301-.41664.74628.74628,0,0,0-.31537-.1823,2.46426,2.46426,0,0,0-1.53325.10044l-2.41789.81827Zm-.41154-9.17595c4.10378-1.38866,9.74848-2.71126,12.91059,1.1403a9.77987,9.77987,0,0,1,1.65511,3.10323,8.10268,8.10268,0,0,1,.21561,5.25076,7.205,7.205,0,0,1-.68065,1.46713,5.185,5.185,0,0,1,2.30625,1.27053,7.81384,7.81384,0,0,1,1.28784,1.83909,29.9398,29.9398,0,0,1,1.67566,4.36963,10.46978,10.46978,0,0,0,.3853.99716l.79429-.26868,1.1627,3.43562-10.33082,3.49648a12.00156,12.00156,0,0,1-1.51835-2.49906q-.45839-1.01077-1.13348-2.74561c-.14159-.364-1.0261-2.345-1.44913-2.409a5.944,5.944,0,0,0-.64831.055,16.24188,16.24188,0,0,0-2.80985.75244l2.85567,8.438-10.63539,3.599L76.4061,43.14324l13.05175-4.41718Zm43.97556-1.19859L131.818,43.2153l6.7173-4.23884,13.2312,3.7575-13.47832,7.85052,5.92332,19.26276L171.802,60.62873l6.49545,8.26434-16.0347,25.516-7.05762-8.97988L157.24,82.526l-3.78444-4.8148-3.2797,1.3186-6.95651-8.85107.61229-.20469-12.49337-3.54783-2.86493-10.42078-.34416.19973-2.44654,8.61518-10.834-3.07687,7.75049-27.29285,10.83431,3.07683Zm27.93194,36.9947.88606,1.12751,1.50036-2.10949-2.38642.982ZM45.83083,134.412l1.37621-.51667,6.5068-2.44313,1.22383,3.25941a4.35339,4.35339,0,0,0,1.868-1.96281,2.55827,2.55827,0,0,0,.158-.9594,3.40533,3.40533,0,0,0-.23379-1.10157,2.78361,2.78361,0,0,0-.75655-1.14652,4.25191,4.25191,0,0,0-3.293-.66419,13.80477,13.80477,0,0,0-5.02193,1.835,3.76822,3.76822,0,0,0-1.89173,2.62447,3.51548,3.51548,0,0,0,.06412,1.07544Zm-2.93215,16.45161L40.05137,143.281l.98693-.54079q-.36408-.2698-.70307-.57226a10.92435,10.92435,0,0,1-1.86619-2.18213,15.799,15.799,0,0,1-2.40953-8.51739,12.85866,12.85866,0,0,1,4.74784-9.495,19.3506,19.3506,0,0,1,10.79416-4.04719,13.846,13.846,0,0,1,5.417.83528,12.65418,12.65418,0,0,1,4.9839,3.31729,18.01122,18.01122,0,0,1,4.38624,10.38078,12.7475,12.7475,0,0,1-.527,4.57419A11.35622,11.35622,0,0,1,63.707,141.019a13.43389,13.43389,0,0,1-3.65521,3.00209c-4.90134,2.82348-11.63526,4.7704-17.15313,6.84243Zm30.12585,6.49034-7.18929,7.964A6.72912,6.72912,0,0,0,67.8565,166.723a3.381,3.381,0,0,0,3.23233-.42969,10.45912,10.45912,0,0,0,2.17757-1.90025,10.6788,10.6788,0,0,0,1.5917-2.19432,3.2387,3.2387,0,0,0,.42659-1.47593,2.73013,2.73013,0,0,0-.4812-1.34869,9.78441,9.78441,0,0,0-1.779-2.02026Zm6.783-5.758a22.06906,22.06906,0,0,1,3.952,4.56952,12.98411,12.98411,0,0,1,1.90308,4.85821,10.75313,10.75313,0,0,1-.56149,5.4956,16.195,16.195,0,0,1-3.28964,5.20975,19.4205,19.4205,0,0,1-5.19371,4.22239,11.47782,11.47782,0,0,1-5.61447,1.42854,12.30879,12.30879,0,0,1-5.16507-1.25831,21.32667,21.32667,0,0,1-5.09356-3.51748l-9.17621-8.28389,19.009-21.05675,9.23012,8.33242Zm22.92506,11.15178,2.07844,7.42607,4.789-6.07625,12.319,2.42059-13.76787,15.54937-2.01744,10.26643-11.05445-2.17248,1.99117-10.13179-6.82173-19.735,12.48387,2.45307Zm31.16812-2.57295,10.55426,5.75648c-1.66036-2.74531-3.24949-5.99949-4.79127-8.86057l9.59954-5.171L162.716,176.873l-8.8952,4.792-10.56517-5.76245c1.67142,2.77129,3.25135,5.98744,4.802,8.86668l-9.59938,5.17073-13.45293-24.97341,8.89532-4.79182Zm24.865-21.27209,22.63935,17.08871-6.78088,8.98371-22.63963-17.08843,6.78116-8.984Zm5.29712-17.623,30.03691-2.33206-3.00507,11.02267-3.54358.09634-1.60984,5.90486,3.01358,1.84762-2.9604,10.85969-24.69733-17.25384,2.76573-10.14528Z" fill="#201600"/><path d="M162.9525,130.8257l2.23123-8.18517,26.98871-2.09545-2.18512,8.01463-3.54372.09634-2.1756,7.98059,3.01371,1.84761-2.13843,7.84413L162.9525,130.8257Zm16.60881,2.91581,1.38556-5.08177-9.50589.1932,8.12033,4.88857ZM154,147.605l5.04716-6.6871,20.34246,15.355-5.04717,6.68682L154,147.605Zm-27.04432,17.94626,6.94-3.7382,14.55577,7.93861-2.93145-4.84517-3.906-7.25114,7.06461-3.80588,12.0872,22.43862-6.94,3.73864-14.55563-7.93932,2.99839,4.97,3.83894,7.127L139.0432,187.99l-12.08749-22.43877Zm-34.52784-3.357,9.15721,1.79938,2.60331,9.3019,5.99876-7.61133,8.984,1.76533-12.36271,13.96236-1.81315,9.22657-8.22075-1.61553,1.7859-9.08783-6.13256-17.74085Zm-19.50718-6.8745-9.11961,10.102,1.39053,1.25549a5.54421,5.54421,0,0,0,4.26693,1.70915q2.34178-.2196,4.87624-3.02748,2.41605-2.6763,2.39022-4.65223-.02616-1.97579-2.72843-4.41574l-1.07588-.97119Zm-2.23943-10.02213,8.16047,7.36661q4.69656,4.24013,5.39431,8.58451.77094,4.79145-3.49306,9.51427-4.73765,5.2479-9.722,5.17726-4.48249-.04619-9.31027-4.40454l-8.10814-7.31952,17.07865-18.91859ZM47.70952,135.24468l5.16236-1.93867,4.03882,10.75527-13.171,4.94616-1.90138-5.06334,2.1922-1.20073a8.801,8.801,0,0,1-2.73567-1.65382,10.73392,10.73392,0,0,1-2.836-4.33459,11.79787,11.79787,0,0,1,.29038-10.0023,13.28861,13.28861,0,0,1,7.5299-6.22616,14.33491,14.33491,0,0,1,10.24259-.41q5.13557,1.88511,7.43159,8.0084a12.91485,12.91485,0,0,1,.531,8.48562,10.62077,10.62077,0,0,1-5.1496,6.16291l-2.79625-7.44591a4.48254,4.48254,0,0,0,1.62219-2.082,4.30389,4.30389,0,0,0-.08141-3.06594,4.05737,4.05737,0,0,0-3.04153-2.65252,10.016,10.016,0,0,0-5.69335.75966,8.99747,8.99747,0,0,0-4.12649,2.72037,4.64573,4.64573,0,0,0-.49964,4.71888,4.78053,4.78053,0,0,0,1.7344,2.256,3.54,3.54,0,0,0,2.54927.7042l-1.29236-3.44158Zm123.5842-72.92723,5.24236,6.67023-14.40312,22.92-5.13326-6.53117,2.03472-2.90322-5.11157-6.50353-3.27972,1.31876-5.024-6.39246,25.67463-8.57857ZM159.053,73.916l3.25473,4.14124,5.51064-7.7478L159.053,73.916ZM123.59258,36.23213l8.05933,2.28881-2.25009,7.923,9.3571-5.90474,9.35141,2.65566-11.5358,6.71928,5.55927,18.07837-9.62336-2.73285-3.14523-11.43975-2.46455,1.43139-2.21134,7.78724-8.0592-2.28866,6.96246-24.51777ZM78.2347,44.04719l11.686-3.95482q6.19464-2.09645,9.308-.83643a6.34561,6.34561,0,0,1,3.42854,4.17655,6.71807,6.71807,0,0,1,.21564,4.33049,5.52322,5.52322,0,0,1-2.27279,2.93371q3.15341.16448,4.23714,1.2718a10.17928,10.17928,0,0,1,1.9902,3.786l.63455,1.87514a6.70941,6.70941,0,0,0,.80749,1.77939.70933.70933,0,0,0,.83412.31478l.23807.70307L101.37256,63.124a23.42982,23.42982,0,0,1-1.84095-4.06052Q98.24229,55.749,96.744,55.7335a8.21639,8.21639,0,0,0-1.74829.23735q-.93227.22215-2.37222.70944l-1.17178.39651,2.85569,8.43825-7.90257,2.67423L78.2347,44.04719Zm9.80608,2.95087,1.62036,4.78841,3.315-1.122A4.6883,4.6883,0,0,0,95.6399,48.942a2.158,2.158,0,0,0,.09223-1.82267A2.22321,2.22321,0,0,0,94.24965,45.606a3.85114,3.85114,0,0,0-2.42526.11151l-3.78361,1.28058ZM50.23523,69.252l5.24238-6.67008,25.67448,8.5787L76.019,77.69179l-3.30184-1.291-5.11128,6.50339,2.05643,2.87554-5.02405,6.39245L50.23523,69.252ZM64.3979,78.40507l3.25488-4.14124-8.83092-3.52344,5.576,7.66468Z" fill="#fff"/></svg>