<?xml version="1.0" encoding="UTF-8" standalone="no"?>
<svg xmlns:rdf="http://www.w3.org/1999/02/22-rdf-syntax-ns#" xmlns="http://www.w3.org/2000/svg" height="204.67501" width="204.67382" version="1.1" xmlns:cc="http://creativecommons.org/ns#" xmlns:dc="http://purl.org/dc/elements/1.1/" viewBox="0 0 204.67382 204.67501"><path d="M0,102.33928A102.33691,102.33691,0,1,0,102.33809,0,102.33661,102.33661,0,0,0,0,102.33928" fill="#52a462"/><path d="M4.50111,102.28591A97.83592,97.83592,0,1,0,102.33791,4.445a97.83643,97.83643,0,0,0-97.8368,97.84094" fill="#000105"/><path d="M37.6,103.30059a64.737,64.737,0,1,0,64.7391-64.73674A64.737,64.737,0,0,0,37.6,103.30059" fill="#fff"/><path d="M43.42342,69.84414h-.5012l.0331-.00059c.00591,0,50.79315.00059-.0331.00059-.068,0,.26537-.00473.47519-.0065-.09161-.02364-.14185-.036-.14185-.036s44.085-.23051,61.557-.02956c.98938-.00532,1.69685-.01064,1.69685-.01064l.01064.03606c.07506.00118.16075.003.22991.00414,2.26365.049,4.20341.13711,5.8648.24645h.565q.5328.05763,1.05144.1194a36.95221,36.95221,0,0,1,7.26732,1.117c.17494.03428.341.08511.51123.11879a117.24643,117.24643,0,0,1,18.585,5.04977c4.89669,1.73881,8.78862,3.5255,12.00087,6.15381,1.50712,1.23348,2.77665,3.17738,4.61771,6.12308,1.33218,2.13184,3.32869,3.52253,3.26486,5.04325a2.83451,2.83451,0,0,1-1.69625,2.21342c3.00242,1.88775,6.97711,4.0651,14.25565,12.09247,7.27735,8.02679,6.27378,9.09656,6.09529,9.86548-.1785.76835-.24942,1.55914-5.06572,3.73945-4.81631,2.18091-5.5551,3.40671-6.31458,4.17445-4.88545,4.93629-9.44288,3.68508-9.49667,3.74182,6.03384-3.14724,5.38843-6.83763,5.30923-7.23363-1.63066-8.14616-15.20839-13.22549-24.68734-5.78382h-.03014c-.12589.10816-.201.17553-.201.17553s-39.2592.107-39.47493,0c.06383-.0124-.3818.17613,0,0l-14.87032-.04078s-38.75682-46.33146-40.878-46.87343" fill="#fff"/><path d="M43.42342,69.84414h-.5012l.0331-.00059c.00591,0,50.79315.00059-.0331.00059-.068,0,.26537-.00473.47519-.0065-.09161-.02364-.14185-.036-.14185-.036s44.085-.23051,61.557-.02956c.98938-.00532,1.69685-.01064,1.69685-.01064l.01064.03606c.07506.00118.16075.003.22991.00414,2.26365.049,4.20341.13711,5.8648.24645h.565q.5328.05763,1.05144.1194a36.95221,36.95221,0,0,1,7.26732,1.117c.17494.03428.341.08511.51123.11879a117.24643,117.24643,0,0,1,18.585,5.04977c4.89669,1.73881,8.78862,3.5255,12.00087,6.15381,1.50712,1.23348,2.77665,3.17738,4.61771,6.12308,1.33218,2.13184,3.32869,3.52253,3.26486,5.04325a2.83451,2.83451,0,0,1-1.69625,2.21342c3.00242,1.88775,6.97711,4.0651,14.25565,12.09247,7.27735,8.02679,6.27378,9.09656,6.09529,9.86548-.1785.76835-.24942,1.55914-5.06572,3.73945-4.81631,2.18091-5.5551,3.40671-6.31458,4.17445-4.88545,4.93629-9.44288,3.68508-9.49667,3.74182,6.03384-3.14724,5.38843-6.83763,5.30923-7.23363-1.63066-8.14616-15.20839-13.22549-24.68734-5.78382h-.03014c-.12589.10816-.201.17553-.201.17553s-39.2592.107-39.47493,0c.06383-.0124-.3818.17613,0,0l-14.87032-.04078S45.54462,70.38611,43.42342,69.84414Z" fill="none" stroke="#fff" stroke-linecap="round" stroke-linejoin="round" stroke-width="6"/><path d="M147.297,141.34817s5.9298-2.20927,8.60421-6.52852c0,0,0,3.7826-4.95343,9.60129-.82212.96515-3.33517,2.78848-4.74951,5.6733a24.30393,24.30393,0,0,0-2.18031,7.43339c-.04846.08334-.07742.13239-.07742.13239a4.59741,4.59741,0,0,1-1.39425-.34812c-.10934-.03309-.17613-.05733-.16076-.06619a7.799,7.799,0,0,1-1.38537-1.07922,22.08386,22.08386,0,0,1-3.12833-3.49181,7.14485,7.14485,0,0,1-1.156-1.78491c-1.28785-2.20691-4.82517-8.632-4.82517-12.85846h8.84773s2.43562,3.78673,6.55866,3.31686" fill="#fff"/><path d="M147.297,141.34817s5.9298-2.20927,8.60421-6.52852c0,0,0,3.7826-4.95343,9.60129-.82212.96515-3.33517,2.78848-4.74951,5.6733a24.30393,24.30393,0,0,0-2.18031,7.43339c-.04846.08334-.07742.13239-.07742.13239a4.59741,4.59741,0,0,1-1.39425-.34812c-.10934-.03309-.17613-.05733-.16076-.06619a7.799,7.799,0,0,1-1.38537-1.07922,22.08386,22.08386,0,0,1-3.12833-3.49181,7.14485,7.14485,0,0,1-1.156-1.78491c-1.28785-2.20691-4.82517-8.632-4.82517-12.85846h8.84773S143.174,141.818,147.297,141.34817Z" fill="none" stroke="#fff" stroke-linecap="round" stroke-linejoin="round" stroke-width="6"/><path d="M43.42342,69.52267h9.551s43.34557-.03722,43.69133.00356c19.3196.16371,24.43438,1.65783,24.83274,1.75772.17494.03487.341.08569.51123.11939a117.24434,117.24434,0,0,1,18.585,5.04976c4.89669,1.73882,8.78862,3.5255,12.00087,6.15381,1.50712,1.23348,2.77665,3.17738,4.61771,6.12307,1.33218,2.13185,3.32869,3.52255,3.26486,5.04327a2.83449,2.83449,0,0,1-1.69625,2.2134c3.00242,1.88775,6.97711,4.06511,14.25565,12.09249,7.27735,8.02678,6.27378,9.09654,6.09529,9.86548-.1785.76833-.24942,1.55914-5.06572,3.73944-4.81631,2.18091-5.5551,3.4067-6.31458,4.17445-4.88545,4.93628-9.44288,3.68508-9.49667,3.74181,6.03384-3.14723,5.38843-6.83763,5.30923-7.23362-1.63066-8.14676-15.20839-13.22548-24.68734-5.78382h-.03014c-.12589.10816-.201.17554-.201.17554s-39.2592.107-39.47493,0c.06383-.01241-.3818.17613,0,0l-14.87032-.04078Z" fill="#000105"/><path d="M147.297,141.34817s5.9298-2.20927,8.60421-6.52852c0,0,0,3.7826-4.95343,9.60129-.82212.96515-3.33517,2.78848-4.74951,5.6733a24.30393,24.30393,0,0,0-2.18031,7.43339c-.04846.08334-.07742.13239-.07742.13239a4.59741,4.59741,0,0,1-1.39425-.34812c-.10934-.03309-.17613-.05733-.16076-.06619a7.799,7.799,0,0,1-1.38537-1.07922,22.08386,22.08386,0,0,1-3.12833-3.49181,7.14485,7.14485,0,0,1-1.156-1.78491c-1.28785-2.20691-4.82517-8.632-4.82517-12.85846l8.84831.00059s2.435,3.78614,6.55808,3.31627" fill="#000105"/><path d="M12.94469,69.8436h.01359c.06738-.00176.21868-.00413.42791-.0059-.09161-.02364-.14126-.03606-.14126-.03606s11.9264-.16312,83.421-.27541c2.86058,13.53755,16.99212,28.20692,4.62777,47.27947-12.75976,10.96006-50.79612,31.36894-34.57115,41.57248l-21.34683-8.57526c-4.75957-31.39021-28.7424-79.136-31.96293-79.95872H12.911l.03369-.0006" fill="#52a462"/><path d="M155.9968,96.99057c-6.67806,4.347-8.3359-2.22818-15.36384-4.25305,8.52561-1.61351,10.86964,5.41916,15.36384,4.25305" fill="#52a462"/><path d="M110.248,69.28833s1.71221,4.76608,16.46079,8.06047c0,0-8.39323,8.34122-23.86285.51835,0,0,1.46811,8.04451,13.05822,9.94526,11.33537,1.8582,17.24154,4.04619,11.33419,11.49318s-23.66959,18.462-23.66959,18.462h-3.31626s19.92244-12.66755,25.02186-19.32078c5.0994-6.65264-1.76777-7.33233-5.03144-7.87666-3.26368-.54375-19.5903-1.75478-19.74043-16.102,0,0,13.20127,7.31045,20.84861,3.63247a23.21518,23.21518,0,0,1-13.55115-8.41155Z" fill="#fff"/><path d="M84.62615,159.28742V141.712H83.45709v-1.89188h.5863c.55734,0,.79376-.25711.79376-.94506v-.61231h1.78254v21.02472Z" fill="#000105"/><path d="M93.28529,150.09265a2.22137,2.22137,0,0,1-2.09935,1.04848c-1.8842,0-2.73706-.94742-2.73706-3.32277v-6.20878c0-2.29969,1.14483-3.57809,3.40434-3.57809,2.31093,0,3.44925,1.2784,3.44925,3.55327v14.3579c0,2.22169-1.13832,3.57574-3.44925,3.57574-2.15135,0-3.3742-1.35405-3.3742-3.57574v-3.62774h1.96636v3.62774c0,1.04613.503,1.659,1.40784,1.659.9545,0,1.43207-.6129,1.43207-1.659Zm0-8.45824c0-1.15133-.45156-1.63656-1.43207-1.63656-.98526,0-1.40784.41076-1.40784,1.63656v6.07875c0,.97106.42258,1.50772,1.40784,1.50772a1.29831,1.29831,0,0,0,1.43207-1.25Z" fill="#000105"/><path d="M97.77569,159.28742V141.712H96.60486v-1.89188H97.19c.55734,0,.7973-.25711.7973-.94506v-.61231h1.77959v21.02472Z" fill="#000105"/><path d="M106.06093,159.28713v-4.31748h-4.96584v-1.68384l4.91383-15.02222h1.91435v14.868h1.0603v1.8381h-1.0603v4.31748Zm.05615-16.06953-3.2158,9.914h3.15965Z" fill="#000105"/><polygon points="139.438 130.507 107.124 130.507 105.262 128.898 139.218 128.898 139.438 130.507" fill="#000105"/><polygon points="140.203 135.074 117.052 135.074 115.191 133.464 139.911 133.464 140.203 135.074" fill="#000105"/><polygon points="140.739 139.641 125.739 139.641 123.878 138.031 140.739 138.031 140.739 139.641" fill="#000105"/><rect x="21.12195" y="115.19643" width="80.1715" height="1.60938" fill="#000105"/><rect x="21.12195" y="110.62954" width="80.1715" height="1.60938" fill="#000105"/><rect x="21.12195" y="106.06206" width="80.1715" height="1.60997" fill="#000105"/><rect x="21.12195" y="101.49575" width="80.1715" height="1.60938" fill="#000105"/><rect x="21.12195" y="96.92827" width="80.1715" height="1.60938" fill="#000105"/><rect x="21.12195" y="92.36138" width="80.1715" height="1.60938" fill="#000105"/><rect x="21.12195" y="87.79449" width="80.1715" height="1.60938" fill="#000105"/><rect x="21.12254" y="83.22701" width="75.54373" height="1.60938" fill="#000105"/><rect x="21.12254" y="78.66012" width="75.54373" height="1.60938" fill="#000105"/><rect x="21.12254" y="74.09322" width="75.54373" height="1.60938" fill="#000105"/><rect x="21.12254" y="69.52634" width="75.54373" height="1.60938" fill="#000105"/><rect x="30.4029" y="165.24785" width="31.22177" height="1.60938" fill="#000105"/><rect x="30.4029" y="160.68037" width="31.22177" height="1.60997" fill="#000105"/><rect x="30.4029" y="156.11406" width="31.22177" height="1.60938" fill="#000105"/><rect x="30.4029" y="151.54658" width="31.22177" height="1.60938" fill="#000105"/><rect x="30.4029" y="146.97969" width="31.22177" height="1.60997" fill="#000105"/><rect x="30.4029" y="142.41279" width="34.47658" height="1.60938" fill="#000105"/><rect x="30.4029" y="137.8459" width="34.47658" height="1.60938" fill="#000105"/><rect x="30.40231" y="133.27842" width="44.75696" height="1.60997" fill="#000105"/><rect x="30.40231" y="128.71152" width="44.75696" height="1.60938" fill="#000105"/><rect x="30.40231" y="124.14463" width="56.57757" height="1.60938" fill="#000105"/><rect x="30.40231" y="119.57716" width="56.57757" height="1.60997" fill="#000105"/><path d="M101.16951,69.59253,95.355,69.50684c-6.88964,1.43561-6.28206,5.39137-23.93554,3.22938,2.24886,16.6121,51.57331,19.46914,15.20011,40.14574-2.15844,1.227-38.65161,25.7577-41.44127,27.11648l6.12543,21.48691L68.3159,158.3783c-13.68117-9.15743,3.2619-19.54183,36.72367-43.75871L121.021,95.47139l-13.65695-6.06752L102.82557,84.032l-1.94744-4.56688-1.162-4.5669Z" fill="#000105"/><path d="M101.12424,168.01783a64.73055,64.73055,0,0,1,0-129.43861V4.46022a97.83007,97.83007,0,0,0,0,195.64524Z" fill="#000105"/><path d="M14.63025,74.69076l1.63833-4.441c1.058-2.86945,2.93506-3.71226,5.77673-2.665L32.915,71.59317c2.84108,1.0479,3.72231,2.90787,2.66437,5.77732l-1.63775,4.441ZM32.43681,77.9036l.39658-1.07567a1.575,1.575,0,0,0-1.08986-2.3133L21.04,70.56774a1.576,1.576,0,0,0-2.33161,1.05143l-.396,1.07568Z" fill="#fff"/><path d="M42.62884,63.05244l-1.52309,2.71932L38.082,64.55129l-1.594,2.84758,2.63541,1.91376-1.422,2.54025L21.152,59.21605l2.04024-3.6431Zm-8.40623,2.67381,1.25-2.23232-9.59774-3.925Z" fill="#fff"/><path d="M43.71633,50.24054l5.49185,4.33759-1.9498,2.4699L41.812,52.74593a1.14834,1.14834,0,0,0-1.85938.21808l-.87413,1.10818,6.48478,5.12187-1.94981,2.46933L27.45827,48.90483l3.20752-4.06157c1.58573-2.00773,3.36237-2.217,5.36951-.63062l3.04676,2.40548c1.43089,1.13006,1.72226,2.18445,1.38065,3.37656,1.07922-.7973,2.03019-.72046,3.25362.24586M32.54881,46.96682l-.948,1.19981,5.33109,4.2105.87473-1.10759a1.11917,1.11917,0,0,0-.19031-1.7991L34.20074,46.773a1.03174,1.03174,0,0,0-1.65193.19384" fill="#fff"/><path d="M38.89151,34.2247l-1.83987,1.69153-1.63243-1.77486,1.83988-1.69153ZM54.98113,44.076c1.73172,1.88243,1.65666,3.66972-.22636,5.40084l-1.12591,1.0349c-1.88244,1.73171-3.66912,1.65664-5.40084-.22637L36.76321,37.81875l2.31625-2.13008L50.445,48.04772a1.04985,1.04985,0,0,0,1.70336.07092l.36762-.33807a1.04188,1.04188,0,0,0,.05023-1.68384L41.20067,33.73828l2.31565-2.12948ZM38.125,31.65312l1.83929-1.69153,1.63242,1.77487L39.75737,33.428Z" fill="#fff"/><path d="M62.80159,34.61056l1.85347,2.79322c1.334,2.0089,1.07686,3.69689-.7447,5.0474l1.04613,2.58753-2.18032,1.44684-.46691-2.93742c-2.09047,1.3174-3.75363.93856-5.13546-1.14424l-2.40668-3.62656,2.54852-1.69153,2.34107,3.529a1.04154,1.04154,0,0,0,1.65489.31325l.34339-.22755a1.04124,1.04124,0,0,0,.354-1.64662l-1.56091-2.35229a1.80971,1.80971,0,0,0-1.662-.909L54.85578,35.613a3.78061,3.78061,0,0,1-3.48708-1.9563l-1.56091-2.35289c-1.41493-2.13127-1.06031-3.88426,1.07153-5.29918l1.10228-.7317q3.16142-2.09757,5.259,1.06325l2.06507,3.11238-2.57335,1.7069-1.99946-3.01367a1.03233,1.03233,0,0,0-1.63065-.3298l-.31857.211a1.03233,1.03233,0,0,0-.32979,1.63065l1.26835,1.9114a1.78048,1.78048,0,0,0,1.66139.909l3.93153.17909a3.75439,3.75439,0,0,1,3.48649,1.95748" fill="#fff"/><path d="M73.73453,29.33172l1.3972,3.04736c1.00475,2.19154.48936,3.81924-1.51954,4.8701l.63121,2.71873-2.3783,1.091-.00533-2.97405c-2.27014.97579-3.85351.34338-4.89549-1.92853L65.151,32.20059l2.77962-1.27544,1.76481,3.84938a1.04118,1.04118,0,0,0,1.58633.56681l.37353-.17141a1.04177,1.04177,0,0,0,.6064-1.57154l-1.17674-2.56626a1.812,1.812,0,0,0-1.5-1.15606L65.729,29.08763A3.777,3.777,0,0,1,62.58947,26.613l-1.17734-2.56567c-1.06562-2.3257-.44386-4.00186,1.88185-5.06869l1.20274-.55082q3.44866-1.5816,5.02967,1.86706l1.55677,3.39428-2.8068,1.28727-1.50772-3.28849a1.03234,1.03234,0,0,0-1.55972-.57862l-.34753.159a1.03256,1.03256,0,0,0-.57862,1.55972l.9557,2.08516a1.77875,1.77875,0,0,0,1.50062,1.15546l3.85529.78844a3.75132,3.75132,0,0,1,3.14015,2.47463" fill="#fff"/><path d="M87.67853,32.44037l-3.00066.8428-1.2713-3.00242-3.14251.883.5071,3.217-2.80267.78783-2.74474-20.64,4.01959-1.12945ZM79.848,28.3788l2.46282-.69209-4.00128-9.56582Z" fill="#fff"/><polygon points="93.548 10.905 93.921 13.733 90.248 14.217 91.024 20.107 94.551 19.642 94.924 22.47 91.396 22.935 92.564 31.799 89.445 32.21 86.755 11.8 93.548 10.905" fill="#fff"/><path d="M107.16438,31.25488l-3.11709-.05083-.35876-3.2406-3.26367-.05261-.43441,3.22761-2.91082-.04727,3.27549-20.56136,4.17445.06737Zm-6.34116-6.13194,2.558.04138-1.097-10.30994Z" fill="#fff"/><polygon points="114.966 32.329 113.524 21.89 111.946 31.851 108.839 31.359 112.059 11.031 115.166 11.524 113.611 21.339 118.389 12.034 121.641 12.549 116.575 21.987 118.306 32.859 114.966 32.329" fill="#fff"/><path d="M128.42594,36.06209l-2.96934-.94921.59339-3.20633-3.10941-.99412L121.59126,33.877l-2.77311-.88655L127.897,14.25011l3.977,1.27189Zm-4.29856-7.70351,2.43681.779,1.9303-10.18878Z" fill="#fff"/><polygon points="136.052 39.846 144.922 24.494 142.478 23.082 143.904 20.612 151.517 25.01 150.09 27.48 147.645 26.068 138.776 41.42 136.052 39.846" fill="#fff"/><polygon points="160.763 31.862 159.018 34.117 155.972 31.76 152.409 36.366 155.339 38.632 153.595 40.888 150.664 38.622 146.867 43.529 149.961 45.922 148.216 48.178 142.634 43.86 155.228 27.58 160.763 31.862" fill="#fff"/><polygon points="154.176 54.037 159.297 44.824 152.049 51.84 149.861 49.579 164.652 35.261 166.84 37.522 159.698 44.435 169.111 39.867 171.402 42.234 161.678 46.735 156.529 56.467 154.176 54.037" fill="#fff"/><polygon points="178.14 51.232 175.832 52.908 173.655 49.91 168.849 53.4 170.94 56.279 168.632 57.955 166.542 55.076 159.309 60.329 157.461 57.784 174.114 45.688 178.14 51.232" fill="#fff"/><polygon points="184.016 61.377 181.514 62.744 179.667 59.364 174.558 62.155 176.334 65.406 173.831 66.773 172.055 63.523 166.611 66.497 168.486 69.928 165.983 71.295 162.6 65.104 180.661 55.236 184.016 61.377" fill="#fff"/><polygon points="188.529 72.3 189.501 74.95 170.177 82.039 169.002 78.837 180.928 71.048 167.908 75.856 166.937 73.206 186.26 66.116 187.526 69.567 176.53 76.733 188.529 72.3" fill="#fff"/><path d="M62.16233,176.16743l-1.977,3.23766c-1.33277,2.18327-3.071,2.60409-5.25426,1.27072l-4.392-2.68091,10.72543-17.56956,4.34171,2.65136c2.18386,1.33336,2.60408,3.071,1.27131,5.25426l-1.57806,2.58576c-.95037,1.55559-1.95217,2.01246-3.146,1.766.83986.9947.88241,2.05383.00887,3.48471m-7.52264,1.09223,1.33041.81207a1.03159,1.03159,0,0,0,1.61647-.39126l2.03787-3.33814a1.12818,1.12818,0,0,0-.42968-1.77782l-1.22993-.7512Zm9.12492-12.06885-1.28017-.78134-3.12537,5.1201,1.1791.71988a1.129,1.129,0,0,0,1.779-.43028l1.8381-3.01189a1.03177,1.03177,0,0,0-.39067-1.61647" fill="#fff"/><path d="M71.11957,188.48923l-2.87241-1.20984.8765-3.14073-3.00834-1.26776-1.6076,2.8328-2.68328-1.13064,10.713-17.85561,3.84879,1.62119Zm-3.594-8.05574,2.35762.99352,2.83044-9.976Z" fill="#fff"/><path d="M85.5156,185.201l-.82567,3.2489c-.63,2.47878-2.16672,3.3931-4.64609,2.76306l-1.33927-.33984c-2.48-.63063-3.36533-2.16021-2.74238-4.61063l1.07153-4.21818,2.964.75356-1.04316,4.10353a1.04228,1.04228,0,0,0,.87945,1.43738l.39895.10048a1.04032,1.04032,0,0,0,1.45748-.84222l.69564-2.73588a1.81,1.81,0,0,0-.44209-1.84165l-2.506-3.03376a3.78,3.78,0,0,1-.89068-3.89725l.69564-2.73588c.62945-2.47938,2.16672-3.39311,4.64609-2.76366l1.28254.32625q3.67561.93441,2.74179,4.61063l-.91965,3.61888-2.99238-.76007.89068-3.5054a1.03175,1.03175,0,0,0-.8499-1.4297l-.37058-.094a1.032,1.032,0,0,0-1.4297.8499l-.565,2.22287a1.78013,1.78013,0,0,0,.44209,1.84165l2.506,3.03376a3.7515,3.7515,0,0,1,.89068,3.89725" fill="#fff"/><polygon points="94.688 193.406 92.634 183.068 91.645 193.106 88.513 192.797 90.533 172.312 93.665 172.621 92.689 182.512 96.913 172.941 100.191 173.264 95.686 182.985 98.053 193.738 94.688 193.406" fill="#fff"/><polygon points="108.308 172.913 108.416 175.763 104.566 175.907 104.784 181.725 108.486 181.586 108.593 184.436 104.891 184.574 105.123 190.774 109.031 190.628 109.138 193.478 102.086 193.742 101.316 173.175 108.308 172.913" fill="#fff"/><polygon points="115.652 192.686 112.737 175.198 109.953 175.662 109.484 172.848 118.156 171.403 118.624 174.216 115.84 174.68 118.755 192.169 115.652 192.686" fill="#fff"/><path d="M131.89942,180.73137l1.15251,3.61474c.77661,2.438-.04433,4.02669-2.48233,4.8033l-4.90319,1.56269-6.25014-19.61453,4.847-1.54436c2.438-.7772,4.02669.04433,4.8033,2.48174l.92023,2.88659c.55321,1.73644.24115,2.79262-.72578,3.53318,1.302.01773,2.12948.67968,2.63836,2.27665m-7.24426-8.4015-1.42911.45568,1.82155,5.71527,1.31682-.41963a1.12766,1.12766,0,0,0,.83926-1.62475l-1.07094-3.363a1.032,1.032,0,0,0-1.47758-.76361m3.14192,14.80176,1.48467-.47341a1.03208,1.03208,0,0,0,.7642-1.47817l-1.188-3.72585a1.12827,1.12827,0,0,0-1.62533-.84045l-1.37238.43736Z" fill="#fff"/><path d="M143.71128,183.87482l-1.5.74765c-2.28906,1.14187-3.98473.57448-5.126-1.71517l-5.93158-11.89448c-1.14128-2.28965-.57448-3.98532,1.71576-5.12719l1.49945-.74766c2.28906-1.14127,3.98472-.57389,5.12659,1.71518l5.931,11.89507c1.14186,2.28906.57506,3.98473-1.71518,5.1266m-8.55634-16.04-.57922.28843a1.05012,1.05012,0,0,0-.54078,1.61706l5.79978,11.63147a1.05051,1.05051,0,0,0,1.61705.5408l.57862-.28842a1.04167,1.04167,0,0,0,.51479-1.60406l-5.79978-11.63148a1.041,1.041,0,0,0-1.59046-.5538" fill="#fff"/><polygon points="142.086 160.74 152.08 175.385 154.946 173.43 156.554 175.785 151.089 179.515 139.486 162.514 142.086 160.74" fill="#fff"/></svg>