<?xml version="1.0" encoding="UTF-8" standalone="no"?>
<svg xmlns:rdf="http://www.w3.org/1999/02/22-rdf-syntax-ns#" xmlns="http://www.w3.org/2000/svg" height="169.31149" width="156.4326" version="1.1" xmlns:cc="http://creativecommons.org/ns#" xmlns:dc="http://purl.org/dc/elements/1.1/" viewBox="0 0 156.4326 169.31149"><ellipse cx="78.21595" cy="97.70809" rx="69.3118" ry="70.6037" fill="#f6921e"/><polygon points="76.3 23.837 79.1 23.837 79.1 72.484 76.153 72.484 76.3 23.837" fill="#231f20"/><path d="M104.6898,36.76729s23.8281,5.3601,34.1619,34.1975C138.8517,70.96479,128.3102,47.22919,104.6898,36.76729Z" fill="#231f20"/><path d="M52.1848,36.54059S28.3571,41.904,18.0221,70.74149C18.0221,70.74149,28.5646,47.00339,52.1848,36.54059Z" fill="#231f20"/><path d="M45.1992,29.16769s23.7302-7.2079,17.6888,12.762c0,0-.4422,4.2036-11.0546,19.5178a220.84073,220.84073,0,0,0-18.2759,32.1314s-19.8994,37.2354,15.3276,59.1568c0,0-38.7638-15.6161-17.9817-60.8084a224.23446,224.23446,0,0,1,21.3724-37.085s11.4958-15.7654,7.5156-21.47C59.7914,33.37229,56.255,28.71749,45.1992,29.16769Z" fill="#231f20"/><path d="M110.3698,29.16769s-23.2475-7.2079-17.206,12.762c0,0,.4426,4.2036,11.0546,19.5178a220.78063,220.78063,0,0,1,18.2772,32.1314s19.9006,37.2354-15.3267,59.1568c0,0,38.7628-15.6161,17.9796-60.8084a224.19046,224.19046,0,0,0-21.3713-37.085s-11.4968-15.7654-7.5179-21.47C96.2593,33.37229,99.3165,28.71749,110.3698,29.16769Z" fill="#231f20"/><path d="M78.091,71.53059s11.6237-7.2798,15.9665,6.5198c0,0,2.4297,6.897-6.393,15.1265,0,0-5.0343,5.002-3.1716,6.5174,0,0,1.3059.7614,4.6617-4.3651,0,0,10.9355-17.2788,19.8837-7.9109,0,0,3.2312,3.6704,1.3674,11.6452,0,0-1.2056,4.9794.2863,6.7948,0,0,4.0611,5.8652,1.6381,10.9275-.1874.3705-3.4534,9.4837-12.9856,5.8898a30.98038,30.98038,0,0,1-9.0717-5.5103s-4.9725-5.6316-7.2698-5.1871c-2.3014.4403-2.5499,7.4663-2.7956,11.3912,0,0,.4323,13.4189,1.7414,15.5724,0,0-.0639,1.391-3.2336-.1908,0,0-5.0937-2.0893-5.4722-5.2567,0,0,2.4892-12.6543,2.3669-15.8226,0,0,1.1754-8.4812-2.9215-6.393a88.03962,88.03962,0,0,0-7.3968,7.8491s-6.9979,7.9973-15.0357,4.684c0,0-9.3209-2.91-5.0947-15.4443a14.27587,14.27587,0,0,0,.4995-6.8328s-3.6726-9.4333,2.4217-13.0431c0,0,6.895-3.9867,11.5552,1.0769,0,0,4.1621,4.7491,6.3358,7.4696,0,0,4.4719,5.3182,5.535,2.4678,0,0,.9947-1.8976-6.2168-7.5943,0,0-9.5689-7.9106-5.2205-15.697a10.9426,10.9426,0,0,1,14.0477-5.0647S76.663,72.16289,78.091,71.53059Z" fill="#007841"/><path d="M61.1208,111.37089h-2.69v-9.8362H54.3812v9.8362H51.692V99.22739h9.4288Z" fill="#fff"/><path d="M75.6569,87.83489l-.8319,3.1167H72.0316l3.6434-12.1434h3.5185l3.7152,12.1434H80.0085l-.9193-3.1167Zm3.0258-2.0545-.7433-2.5766c-.1953-.7198-.4065-1.6393-.5838-2.341h-.0528c-.1594.7197-.3547,1.6381-.531,2.341l-.7255,2.5766Z" fill="#fff"/><path d="M99.4749,111.56949c-3.5176,0-5.6048-2.7192-5.6048-6.1784,0-3.6409,2.2982-6.3614,5.8013-6.3614,3.6612,0,5.6583,2.7922,5.6583,6.1447,0,3.9993-2.3509,6.3951-5.8348,6.3951Zm.1424-2.1803c1.8222,0,2.8653-1.7457,2.8653-4.125,0-2.1815-1.0072-4.0541-2.8653-4.0541-1.857,0-2.901,1.8379-2.901,4.1081,0,2.287,1.0799,4.071,2.8841,4.071Z" fill="#fff"/><path d="M66.3303,152.976l-.0314-.0069-2.0613.5222-.0271-1.8391,2.8697-.6926,1.8976.393-2.0088,10.0427-2.2308-.4636Z" fill="#007841"/><path d="M71.0973,160.34339a4.43266,4.43266,0,0,0,1.0175.091,3.83885,3.83885,0,0,0,2.0444-.447,2.99984,2.99984,0,0,0,1.4293-1.7692l-.0293-.0193a2.70043,2.70043,0,0,1-2.0995.5546,3.05123,3.05123,0,0,1-2.835-3.4715,3.67264,3.67264,0,0,1,4.0981-3.3311c2.5734.2336,3.6151,2.3545,3.4074,4.7392a6.18925,6.18925,0,0,1-2.1532,4.5391,5.84088,5.84088,0,0,1-3.9791,1.0778,8.38808,8.38808,0,0,1-1.0633-.0955Zm3.3965-6.6567c-.787-.0718-1.4361.5973-1.5302,1.6661a1.46721,1.46721,0,0,0,1.2764,1.7626,1.4994,1.4994,0,0,0,1.3832-.541,1.27093,1.27093,0,0,0,.1618-.6007c.1112-1.0845-.2125-2.1894-1.2743-2.2861Z" fill="#007841"/><path d="M82.418,162.74489c-2.5979.0965-3.8285-2.2364-3.9509-5.1353-.1076-2.9775,1.0306-5.3567,3.6278-5.452,2.6765-.101,3.8308,2.2992,3.9339,5.1037.1145,3.1505-1.0586,5.3881-3.5939,5.4836Zm-.019-1.8132c.9129-.0337,1.3642-1.2182,1.28-3.549-.0831-2.2689-.604-3.4501-1.5482-3.413-.8816.0325-1.3967,1.2035-1.3126,3.5197.0708,2.3633.667,3.4761,1.5661,3.4423Z" fill="#007841"/><path d="M89.2411,151.37489c2.3151-.4232,3.5141.7668,3.7308,1.9917a2.50909,2.50909,0,0,1-1.0565,2.4835l.0088.0461a2.67561,2.67561,0,0,1,2.2681,2.1656c.3222,1.8313-.9691,3.348-3.2672,3.7681-2.5138.4581-3.9273-.7725-4.1654-2.1399a2.7375,2.7375,0,0,1,1.3214-2.8495l-.0055-.0316a2.50923,2.50923,0,0,1-1.8232-1.9579c-.3011-1.7066,1.007-3.1156,2.974-3.4737Zm.1739,1.6156a1.13656,1.13656,0,0,0-.9823,1.3821c.1188.6827.7915,1.0094,1.6255,1.1116a1.40243,1.40243,0,0,0,.7816-1.4551,1.15694,1.15694,0,0,0-1.4091-1.0408Zm1.3135,7.1925a1.29336,1.29336,0,0,0,1.1363-1.5046c-.1573-.8848-.906-1.2912-1.8481-1.3765a1.55918,1.55918,0,0,0-.9386,1.7256,1.37923,1.37923,0,0,0,1.636,1.1588Z" fill="#007841"/><path d="M4.3718,98.60869s18.13-50.5994,73.5498-50.5994c0,0,55.4184-2.7024,74.285,51.4997,0,0-20.6338-50.1489-74.1379-48.4963C78.0687,51.01269,32.0822,46.20739,4.3718,98.60869Z" fill="#231f20"/><polygon points="58.169 0.565 56.061 8.345 48.568 10.986 55.185 15.44 55.341 23.509 61.537 18.48 69.12 20.831 66.339 13.27 70.871 6.648 62.952 7.007 58.169 0.565" fill="#ffe600"/><polygon points="97.049 0 92.121 6.327 84.209 5.783 88.589 12.511 85.634 20.004 93.27 17.833 99.348 23.007 99.691 14.941 106.405 10.643 98.979 7.83 97.049 0" fill="#ffe600"/><polygon points="25.13 14.779 26.045 22.797 20.078 28.117 27.852 29.708 30.971 37.126 34.858 30.092 42.752 29.362 37.384 23.423 39.142 15.547 31.935 18.915 25.13 14.779" fill="#ffe600"/><polygon points="0 40.488 3.918 47.506 0.465 54.777 8.231 53.149 13.949 58.735 14.827 50.712 21.813 46.899 14.595 43.568 13.191 35.62 7.851 41.588 0 40.488" fill="#ffe600"/><polygon points="129.83 14.534 128.915 22.553 134.883 27.873 127.108 29.464 123.989 36.881 120.102 29.848 112.209 29.118 117.574 23.179 115.819 15.303 123.023 18.671 129.83 14.534" fill="#ffe600"/><polygon points="156.433 40.488 152.513 47.506 155.967 54.777 148.201 53.149 142.483 58.735 141.604 50.712 134.62 46.899 141.837 43.568 143.24 35.62 148.58 41.588 156.433 40.488" fill="#ffe600"/></svg>