<?xml version="1.0" encoding="UTF-8" standalone="no"?>
<svg xmlns:rdf="http://www.w3.org/1999/02/22-rdf-syntax-ns#" xmlns="http://www.w3.org/2000/svg" height="172.75" width="132.0908" version="1.1" xmlns:cc="http://creativecommons.org/ns#" xmlns:dc="http://purl.org/dc/elements/1.1/" viewBox="0 0 132.0908 172.75"><path d="M7.7925,160.3437a6.24259,6.24259,0,0,0,2.7412-.4883,2.81373,2.81373,0,0,0,1.5391-2.7627,2.66277,2.66277,0,0,0-1.6377-2.707,7.39409,7.39409,0,0,0-2.7413-.3911H2.728v6.3491Zm.937,9.4624a4.23921,4.23921,0,0,0,3.6509-1.479,3.73068,3.73068,0,0,0,.685-2.2612,3.00687,3.00687,0,0,0-2.0005-3.042,7.59635,7.59635,0,0,0-2.812-.4326H2.728v7.2148ZM0,151.6787H8.8271q3.60945,0,5.1333,2.1489a4.962,4.962,0,0,1,.8956,2.9302,4.60548,4.60548,0,0,1-1.1055,3.1821,5.40244,5.40244,0,0,1-1.6504,1.2002,6.99953,6.99953,0,0,1,2.3643,1.3535,4.89988,4.89988,0,0,1,1.3842,3.6973,5.70937,5.70937,0,0,1-1.2441,3.5864q-1.8618,2.4009-5.917,2.4009H0Z" fill="#8a8a8d" fill-rule="evenodd"/><path d="M20.3345,169.9179a2.96569,2.96569,0,0,0,1.8891.627,5.73927,5.73927,0,0,0,2.5728-.6138,3.45522,3.45522,0,0,0,2.0991-3.3359v-2.0225a4.37072,4.37072,0,0,1-1.1894.4888,10.06786,10.06786,0,0,1-1.4268.2788l-1.5249.1953a5.83631,5.83631,0,0,0-2.0562.5728,2.228,2.228,0,0,0-1.1616,2.0927A2.06684,2.06684,0,0,0,20.3345,169.9179Zm5.3017-6.7959a1.37084,1.37084,0,0,0,1.1612-.7265,2.21182,2.21182,0,0,0,.1674-.9629,2.01721,2.01721,0,0,0-.9223-1.856,4.84706,4.84706,0,0,0-2.6167-.5854,3.33747,3.33747,0,0,0-2.7969,1.06,3.4738,3.4738,0,0,0-.602,1.7442H17.6763a4.30242,4.30242,0,0,1,1.7905-3.8374,7.40018,7.40018,0,0,1,4.0151-1.0884,8.15856,8.15856,0,0,1,4.295,1.0054A3.40524,3.40524,0,0,1,29.4136,161v8.6098a1.14309,1.14309,0,0,0,.1533.6294.79924.79924,0,0,0,.6855.2364q.16786,0,.378-.0132c.1391-.0191.2885-.0415.4477-.0698v1.8554a7.30119,7.30119,0,0,1-.8955.21,6.79142,6.79142,0,0,1-.8393.0415,2.07261,2.07261,0,0,1-1.8887-.9214,3.54492,3.54492,0,0,1-.4341-1.3813,6.39247,6.39247,0,0,1-2.2095,1.7436,6.88034,6.88034,0,0,1-3.1757.7407,4.77083,4.77083,0,0,1-3.4131-1.2563,4.22372,4.22372,0,0,1-1.3155-3.1685,4.06274,4.06274,0,0,1,1.3018-3.2221,6.20449,6.20449,0,0,1,3.4131-1.4112Z" fill="#8a8a8d" fill-rule="evenodd"/><rect x="32.8491" y="151.6787" width="2.5171" height="20.4995" fill="#8a8a8d"/><path d="M47.4697,168.6748a9.37716,9.37716,0,0,0,.9375-4.2134,7.476,7.476,0,0,0-.6718-3.4053,3.777,3.777,0,0,0-3.6646-2.0649,3.61738,3.61738,0,0,0-3.3574,1.7573,8.14285,8.14285,0,0,0-1.0484,4.2437,7.07925,7.07925,0,0,0,1.0484,3.9765A3.69937,3.69937,0,0,0,44.043,170.56,3.462,3.462,0,0,0,47.4697,168.6748Zm1.5679-9.9488a7.51769,7.51769,0,0,1,2,5.6661,9.70242,9.70242,0,0,1-1.7632,5.9721,6.38739,6.38739,0,0,1-5.4692,2.3589,6.19293,6.19293,0,0,1-4.9107-2.0801,8.25428,8.25428,0,0,1-1.8178-5.6088,8.903,8.903,0,0,1,1.9165-6.0025,6.4411,6.4411,0,0,1,5.1474-2.2319A6.79715,6.79715,0,0,1,49.0376,158.726Z" fill="#8a8a8d" fill-rule="evenodd"/><path d="M52.9194,157.1079H55.311v2.1216a6.68292,6.68292,0,0,1,2.253-1.8838,6.03182,6.03182,0,0,1,2.644-.5733q3.189,0,4.3076,2.2188a7.87973,7.87973,0,0,1,.6162,3.4756v9.5874H62.5713v-9.4204a5.08655,5.08655,0,0,0-.4058-2.2041,2.45847,2.45847,0,0,0-2.4336-1.3965,4.95343,4.95343,0,0,0-1.4687.1826,3.77389,3.77389,0,0,0-1.8184,1.2275,3.73475,3.73475,0,0,0-.8252,1.5352,10.54067,10.54067,0,0,0-.1821,2.2466v7.8291H52.9194Z" fill="#8a8a8d" fill-rule="evenodd"/><path d="M77.9668,158.0278a5.86457,5.86457,0,0,1,1.9165,4.228H77.4346a4.47287,4.47287,0,0,0-1.021-2.2885,3.21358,3.21358,0,0,0-2.5591-.9204,3.53621,3.53621,0,0,0-3.4414,2.3437,9.28293,9.28293,0,0,0-.6714,3.7539,7.06387,7.06387,0,0,0,.9502,3.7822,3.69345,3.69345,0,0,0,5.4707.5855,5.263,5.263,0,0,0,1.272-2.6231h2.4487a5.90192,5.90192,0,0,1-6.3926,5.7212,5.74542,5.74542,0,0,1-4.6865-2.1347,8.21676,8.21676,0,0,1-1.749-5.3584,8.99857,8.99857,0,0,1,1.9175-6.126,6.19671,6.19671,0,0,1,4.8818-2.1914A6.51629,6.51629,0,0,1,77.9668,158.0278Z" fill="#8a8a8d" fill-rule="evenodd"/><path d="M91.5259,157.6509a5.65856,5.65856,0,0,1,2.2798,1.9257,6.66912,6.66912,0,0,1,1.0073,2.6372,17.25636,17.25636,0,0,1,.2236,3.294H84.0557a6.402,6.402,0,0,0,1.0766,3.6557,3.61683,3.61683,0,0,0,3.1197,1.3682,4.03657,4.03657,0,0,0,3.1474-1.2983,4.36577,4.36577,0,0,0,.9517-1.7442h2.4765a5.21657,5.21657,0,0,1-.6591,1.8418,6.44717,6.44717,0,0,1-1.2305,1.647,5.87832,5.87832,0,0,1-2.8389,1.5068,8.6206,8.6206,0,0,1-2.0566.2232,6.32606,6.32606,0,0,1-4.7427-2.023,7.91471,7.91471,0,0,1-1.9448-5.6928,8.56989,8.56989,0,0,1,1.9595-5.8472,6.46513,6.46513,0,0,1,5.1191-2.2471A6.798,6.798,0,0,1,91.5259,157.6509Zm.9228,5.8613a6.48641,6.48641,0,0,0-.7138-2.6104,3.66022,3.66022,0,0,0-3.4546-1.8139,3.82489,3.82489,0,0,0-2.9097,1.2558,4.68118,4.68118,0,0,0-1.2446,3.1685Z" fill="#8a8a8d" fill-rule="evenodd"/><path d="M98.7686,167.4892a3.64742,3.64742,0,0,0,.6298,1.9263,3.96116,3.96116,0,0,0,3.3008,1.2139,4.92345,4.92345,0,0,0,2.4619-.6001,2.02972,2.02972,0,0,0,1.064-1.8838,1.60523,1.60523,0,0,0-.853-1.4658,10.25793,10.25793,0,0,0-2.15579-.7105l-1.999-.5034a9.74523,9.74523,0,0,1-2.82671-1.0606,3.17175,3.17175,0,0,1-1.623-2.8198,4.30925,4.30925,0,0,1,1.5263-3.4326,6.14824,6.14824,0,0,1,4.1255-1.3105q3.3861,0,4.88191,1.9809a4.29272,4.29272,0,0,1,.90959,2.7075h-2.3774a2.91649,2.91649,0,0,0-.6021-1.5488,3.84239,3.84239,0,0,0-3.0063-.9907,3.62834,3.62834,0,0,0-2.1694.5444,1.70762,1.70762,0,0,0-.7281,1.4375,1.7677,1.7677,0,0,0,.9663,1.562,5.77335,5.77335,0,0,0,1.6499.6138l1.6656.4048a12.92683,12.92683,0,0,1,3.6362,1.2705,3.35794,3.35794,0,0,1,1.4692,3.0273,4.605,4.605,0,0,1-1.5239,3.4478,6.4566,6.4566,0,0,1-4.6177,1.4507q-3.3435,0-4.7417-1.5069a5.76891,5.76891,0,0,1-1.4834-3.7539Z" fill="#8a8a8d" fill-rule="evenodd"/><path d="M111.2441,153.06h2.5455v4.1729h2.392v2.0508h-2.392v9.7544a1.05442,1.05442,0,0,0,.5322,1.0468,2.26579,2.26579,0,0,0,.979.1543h.3921c.1396-.0102.3022-.0229.4887-.0424v1.9814a5.74166,5.74166,0,0,1-.9091.1816,8.525,8.525,0,0,1-1.0074.0552,2.74441,2.74441,0,0,1-2.3911-.8931,4.01772,4.01772,0,0,1-.6299-2.3442v-9.894H109.2163v-2.0508h2.02779Z" fill="#8a8a8d" fill-rule="evenodd"/><path d="M127.2158,168.6748a9.40268,9.40268,0,0,0,.938-4.2134,7.4753,7.4753,0,0,0-.6728-3.4053,3.7761,3.7761,0,0,0-3.6646-2.0649,3.61421,3.61421,0,0,0-3.3564,1.7573,8.13826,8.13826,0,0,0-1.0489,4.2437,7.0754,7.0754,0,0,0,1.0489,3.9765,3.69782,3.69782,0,0,0,3.3291,1.5913A3.46018,3.46018,0,0,0,127.2158,168.6748Zm1.5679-9.9488a7.51556,7.51556,0,0,1,1.9995,5.6661,9.70523,9.70523,0,0,1-1.7622,5.9721,6.38812,6.38812,0,0,1-5.4702,2.3589,6.19154,6.19154,0,0,1-4.9097-2.0801,8.252,8.252,0,0,1-1.8183-5.6088,8.90106,8.90106,0,0,1,1.9169-6.0025,6.43939,6.43939,0,0,1,5.1465-2.2319A6.79339,6.79339,0,0,1,128.7837,158.726Z" fill="#8a8a8d" fill-rule="evenodd"/><path d="M81.3872,32.6572a.85085.85085,0,1,1,.853-.8511A.85168.85168,0,0,1,81.3872,32.6572ZM31.0386,72.1762a34.3348,34.3348,0,1,1,34.3349,34.252A34.36255,34.36255,0,0,1,31.0386,72.1762ZM78.8418,19.8921a1.52781,1.52781,0,1,1-1.8652,1.0991A1.52609,1.52609,0,0,1,78.8418,19.8921Zm1.3916-3.0025a.85085.85085,0,1,1-.8516.8506A.85143.85143,0,0,1,80.2334,16.8896Zm-.707-3.042a.85085.85085,0,1,1-.8516.8506A.85275.85275,0,0,1,79.5264,13.8476Zm10.5532,8.0205a.85086.85086,0,1,1-.854.8501A.84994.84994,0,0,1,90.0796,21.8681Zm-.7066-3.04a.85105.85105,0,1,1-.851.8506A.85112.85112,0,0,1,89.373,18.8281Zm-1.2734-2.668a.85085.85085,0,1,1-.8535.8516A.85306.85306,0,0,1,88.0996,16.1601Zm-2.022-2.3716a.85085.85085,0,1,1-.853.8506A.85133.85133,0,0,1,86.0776,13.7885Zm-2.4873-1.8032a.85135.85135,0,1,1-.853.8521A.85315.85315,0,0,1,83.5903,11.9853Zm-2.6748-1.0425a.8506.8506,0,1,1-.8525.8501A.85147.85147,0,0,1,80.9155,10.9428Zm-2.7265.2276a.85061.85061,0,1,1-.854.8511A.85125.85125,0,0,1,78.189,11.1704Zm-2-2.2974a.8511.8511,0,1,1-.8511.8521A.85174.85174,0,0,1,76.189,8.873ZM73.5747,7.1382a.85055.85055,0,1,1-.8525.8515A.85181.85181,0,0,1,73.5747,7.1382ZM70.8594,6.1328a.8506.8506,0,1,1-.8516.8506A.852.852,0,0,1,70.8594,6.1328Zm-2.7837-.4854a.8506.8506,0,1,1-.8511.8511A.851.851,0,0,1,68.0757,5.6474ZM41.7358,28.0259a1.52909,1.52909,0,1,1,.6031-2.0752A1.53478,1.53478,0,0,1,41.7358,28.0259ZM52.6694,22.851a1.528,1.528,0,1,1,1.1011-1.8598A1.53192,1.53192,0,0,1,52.6694,22.851Zm12.7041-1.603a1.52805,1.52805,0,1,1,1.5313-1.5273A1.52974,1.52974,0,0,1,65.3735,21.248ZM50.5122,18.5913a.85085.85085,0,1,1,.8535-.8511A.852.852,0,0,1,50.5122,18.5913Zm.708-3.042a.85085.85085,0,1,1,.8526-.8511A.853.853,0,0,1,51.2202,15.5493ZM40.6689,23.5698a.85085.85085,0,1,1,.8521-.8516A.85217.85217,0,0,1,40.6689,23.5698Zm.7056-3.0396a.85105.85105,0,1,1,.8535-.8515A.85159.85159,0,0,1,41.3745,20.5302Zm1.272-2.6684a.85085.85085,0,1,1,.853-.8501A.85091.85091,0,0,1,42.6465,17.8618Zm2.0239-2.3716a.85085.85085,0,1,1,.8516-.8511A.85136.85136,0,0,1,44.6704,15.4902Zm2.4863-1.8022a.85135.85135,0,1,1,.8516-.8506A.85318.85318,0,0,1,47.1567,13.688Zm2.6744-1.044a.8506.8506,0,1,1,.8525-.8511A.85123.85123,0,0,1,49.8311,12.644Zm2.7275.2276a.8506.8506,0,1,1,.8535-.8501A.85125.85125,0,0,1,52.5586,12.8716Zm1.9985-2.2964a.8511.8511,0,1,1,.8521-.8501A.85307.85307,0,0,1,54.5571,10.5752Zm2.6148-1.7359a.85055.85055,0,1,1,.853-.8496A.8518.8518,0,0,1,57.1719,8.8393ZM59.8872,7.834a.8506.8506,0,1,1,.8525-.8506A.85243.85243,0,0,1,59.8872,7.834Zm5.4863,8.3281a.85011.85011,0,1,1,.8536-.8506A.85179.85179,0,0,1,65.3735,16.1621Zm0-3.0845a.85105.85105,0,1,1,.8536-.8511A.85183.85183,0,0,1,65.3735,13.0776Zm0-3.0849a.85135.85135,0,1,1,.8536-.8511A.85157.85157,0,0,1,65.3735,9.9927ZM62.6704,7.3486a.8506.8506,0,1,1,.853-.8501A.85222.85222,0,0,1,62.6704,7.3486Zm27.8193,18a1.52909,1.52909,0,1,1-2.081.6021A1.52644,1.52644,0,0,1,90.4897,25.3486ZM70.8428,29.8144a.85056.85056,0,1,1,.8554-.851A.85189.85189,0,0,1,70.8428,29.8144ZM49.3594,32.6572a.85085.85085,0,1,1,.8535-.8511A.85176.85176,0,0,1,49.3594,32.6572Zm10.5444-2.8428a.85056.85056,0,1,1,.854-.851A.852.852,0,0,1,59.9038,29.8144Z" fill="#fff"/><path d="M71.707,23.6889a3.82766,3.82766,0,0,0,.8462,1.23c-.7759-.1172-1.561-.2148-2.3486-.2939a3.57069,3.57069,0,0,0,1.1211-.9834A1.91242,1.91242,0,0,0,71.707,23.6889Zm-12.6767,0a1.97741,1.97741,0,0,0,.393-.0473,3.53847,3.53847,0,0,0,1.1197.9834q-1.18515.11865-2.3492.2939A3.56141,3.56141,0,0,0,59.0303,23.6889Zm-4.5542,1.939q-1.03275.23955-2.0474.523a3.30273,3.30273,0,0,0,.6655-1.646A3.30932,3.30932,0,0,0,54.4761,25.6279Zm-7.8423,2.5537a3.52323,3.52323,0,0,0,.4419-1.0757l.1177-.0254a1.88514,1.88514,0,0,0,.5615-.2446,3.57038,3.57038,0,0,0,1.063.4815Q47.71195,27.7245,46.6338,28.1816Zm18.7397-5.2251a3.29321,3.29321,0,0,0,1.0723,1.4404q-.5346-.01095-1.0723-.0117-.53685,0-1.0717.0117A3.29952,3.29952,0,0,0,65.3735,22.9565Zm17.6187,3.8794a1.8714,1.8714,0,0,0,.562.2446l.1167.0254a3.54971,3.54971,0,0,0,.4424,1.0757q-1.07956-.457-2.1831-.8638A3.593,3.593,0,0,0,82.9922,26.8359Zm-4.6724-.685c-.6758-.1885-1.3598-.3633-2.0473-.523a3.309,3.309,0,0,0,1.3798-1.123A3.30259,3.30259,0,0,0,78.3198,26.1509Zm2.6509-6.6548a1.90739,1.90739,0,0,0,1.1362-1.3828,19.82852,19.82852,0,0,1,2.792.8042,6.48288,6.48288,0,0,1,1.8682,1.1245,14.64149,14.64149,0,0,1,.8594,4.1875,2.30484,2.30484,0,0,0-1.125,1.3769,1.87243,1.87243,0,0,0,.6064,2.4424,1.51457,1.51457,0,0,1-1.6035-1.5977,1.91558,1.91558,0,1,0-3.3315-1.6977,2.07984,2.07984,0,0,0-.0538.3354,1.51529,1.51529,0,0,1-2.6884-.872,1.93872,1.93872,0,0,0,2.5634-1.5747,1.8708,1.8708,0,0,0-.9052-2.3745A2.059,2.059,0,0,0,80.9707,19.4961Z" fill="#ee334e"/><path d="M53.8047,15.7187A16.85767,16.85767,0,0,1,63.9438,14.186v.2232a1.68389,1.68389,0,0,0,.3589,2.2085A1.7835,1.7835,0,0,0,63.104,17.999a1.87275,1.87275,0,0,0-1.4702,2.0742,1.93826,1.93826,0,0,0,2.0898,2.1626,1.51345,1.51345,0,0,1-2.8769.0337,1.8813,1.8813,0,0,0,.0654-.4922,1.91821,1.91821,0,1,0-3.604.9087,1.51252,1.51252,0,0,1-2.7964.7114,1.93485,1.93485,0,0,0,1.4854-2.6128,1.87738,1.87738,0,0,0-1.9424-1.645,1.88444,1.88444,0,0,0-.8433-.8633A11.38223,11.38223,0,0,1,53.8047,15.7187Zm12.998-1.5327a16.85091,16.85091,0,0,1,10.1402,1.5327,11.5148,11.5148,0,0,1,.5937,2.5576,1.87424,1.87424,0,0,0-.8442.8633,1.87785,1.87785,0,0,0-1.9419,1.645,1.93455,1.93455,0,0,0,1.4858,2.6128,1.51375,1.51375,0,0,1-2.7983-.7109,1.88606,1.88606,0,0,0,.2319-.9092,1.91745,1.91745,0,0,0-3.8349,0,1.847,1.847,0,0,0,.0664.4927,1.51364,1.51364,0,0,1-2.877-.0342,1.93788,1.93788,0,0,0,2.0884-2.1626,1.87308,1.87308,0,0,0-1.4697-2.0742,1.7868,1.7868,0,0,0-1.1988-1.3813,1.68287,1.68287,0,0,0,.3584-2.2085ZM45.8481,18.9175a19.80165,19.80165,0,0,1,2.7925-.8047,1.9054,1.9054,0,0,0,1.1363,1.3833,2.08553,2.08553,0,0,0-.1182.7715,1.87024,1.87024,0,0,0-.9048,2.3745,1.93737,1.93737,0,0,0,2.5615,1.5747,1.51471,1.51471,0,0,1-2.6875.872,1.889,1.889,0,0,0-.0537-.3354,1.91757,1.91757,0,0,0-3.7153.9512,1.89308,1.89308,0,0,0,.3843.7465,1.51085,1.51085,0,0,1-1.6036,1.5977,1.872,1.872,0,0,0,.6065-2.4419,2.30437,2.30437,0,0,0-1.1255-1.3774,14.75941,14.75941,0,0,1,.855-4.1836A6.501,6.501,0,0,1,45.8481,18.9175ZM68.1025,28.688l-2.729,1.0151-2.728-1.0151,2.728-1.0142ZM47.5654,32.374l-.2426.9478-.0884.3618-.1978-.1123-.895-.4971.2383-.9126.0464-.1982.3134.1079Zm35.6167,0,1.146-.4321.0479.1972.23.9351-.8975.4976-.1904.102-.0933-.353Z" fill="#ee334e"/><path d="M78.3198,26.1509a3.30259,3.30259,0,0,1-.6675-1.646,3.309,3.309,0,0,1-1.3798,1.123C76.96,25.7876,77.644,25.9624,78.3198,26.1509Zm4.6724.685a3.593,3.593,0,0,1-1.062.4819q1.10445.4065,2.1831.8638a3.54971,3.54971,0,0,1-.4424-1.0757l-.1167-.0254A1.8714,1.8714,0,0,1,82.9922,26.8359ZM65.3735,22.9565a3.29952,3.29952,0,0,1-1.0717,1.4404q.5346-.01095,1.0717-.0117.5376,0,1.0723.0117A3.29321,3.29321,0,0,1,65.3735,22.9565ZM46.6338,28.1816q1.078-.457,2.1841-.8642a3.57038,3.57038,0,0,1-1.063-.4815,1.88514,1.88514,0,0,1-.5615.2446l-.1177.0254A3.52323,3.52323,0,0,1,46.6338,28.1816Zm7.8423-2.5537a3.30932,3.30932,0,0,1-1.3819-1.123,3.30273,3.30273,0,0,1-.6655,1.646Q53.44315,25.86815,54.4761,25.6279Zm4.5542-1.939a3.56141,3.56141,0,0,1-.8365,1.23q1.1646-.1758,2.3492-.2939a3.53847,3.53847,0,0,1-1.1197-.9834A1.97741,1.97741,0,0,1,59.0303,23.6889Zm12.6767,0a1.91242,1.91242,0,0,1-.3813-.0473,3.57069,3.57069,0,0,1-1.1211.9834c.7876.0791,1.5727.1767,2.3486.2939a3.55861,3.55861,0,0,1-.8027-1.1499Zm18.7827,1.6597a1.52909,1.52909,0,1,0,.6036,2.0752A1.53323,1.53323,0,0,0,90.4897,25.3486ZM78.8418,19.8921a1.52782,1.52782,0,1,0,1.103,1.8598A1.53195,1.53195,0,0,0,78.8418,19.8921Zm1.3916-3.0025a.85086.85086,0,1,0,.854.8506A.85219.85219,0,0,0,80.2334,16.8896Zm-.707-3.042a.85085.85085,0,1,0,.853.8506A.85116.85116,0,0,0,79.5264,13.8476Zm10.5532,8.0205a.85085.85085,0,1,0,.8506.8501A.85158.85158,0,0,0,90.0796,21.8681Zm-.7066-3.04a.85105.85105,0,1,0,.8526.8506A.84982.84982,0,0,0,89.373,18.8281Zm-1.2734-2.668a.85086.85086,0,1,0,.855.8516A.85306.85306,0,0,0,88.0996,16.1601Zm-2.022-2.3716a.85085.85085,0,1,0,.8521.8506A.8521.8521,0,0,0,86.0776,13.7885Zm-2.4873-1.8032a.85135.85135,0,1,0,.8531.8521A.85184.85184,0,0,0,83.5903,11.9853Zm-2.6748-1.0425a.8506.8506,0,1,0,.8535.8501A.85093.85093,0,0,0,80.9155,10.9428Zm-2.7265.2276a.8506.8506,0,1,0,.8515.8511A.85268.85268,0,0,0,78.189,11.1704Zm-2-2.2974a.8511.8511,0,1,0,.854.8521A.85112.85112,0,0,0,76.189,8.873ZM73.5747,7.1382a.85056.85056,0,1,0,.854.8515A.85116.85116,0,0,0,73.5747,7.1382ZM70.8594,6.1328a.85061.85061,0,1,0,.854.8506A.85059.85059,0,0,0,70.8594,6.1328Zm-2.7837-.4854a.8506.8506,0,1,0,.853.8511A.85116.85116,0,0,0,68.0757,5.6474ZM41.7358,28.0259a1.52909,1.52909,0,1,0-2.0815-.6021A1.52449,1.52449,0,0,0,41.7358,28.0259ZM52.6694,22.851a1.528,1.528,0,1,0-1.8667-1.0991A1.52673,1.52673,0,0,0,52.6694,22.851Zm12.7041-1.603a1.52805,1.52805,0,1,0-1.5312-1.5273A1.52951,1.52951,0,0,0,65.3735,21.248ZM50.5122,18.5913a.85085.85085,0,1,0-.8516-.8511A.85328.85328,0,0,0,50.5122,18.5913Zm.708-3.042a.85085.85085,0,1,0-.8525-.8511A.85212.85212,0,0,0,51.2202,15.5493ZM40.6689,23.5698a.85085.85085,0,1,0-.8535-.8516A.8518.8518,0,0,0,40.6689,23.5698Zm.7056-3.0396a.85105.85105,0,1,0-.853-.8515A.853.853,0,0,0,41.3745,20.5302Zm1.272-2.6684a.85085.85085,0,1,0-.8521-.8501A.85072.85072,0,0,0,42.6465,17.8618Zm2.0239-2.3716a.85085.85085,0,1,0-.8535-.8511A.85127.85127,0,0,0,44.6704,15.4902Zm2.4863-1.8022a.85135.85135,0,1,0-.8535-.8506A.85091.85091,0,0,0,47.1567,13.688Zm2.6744-1.044a.8506.8506,0,1,0-.8526-.8511A.85089.85089,0,0,0,49.8311,12.644Zm2.7275.2276a.8506.8506,0,1,0-.8525-.8501A.85146.85146,0,0,0,52.5586,12.8716Zm1.9985-2.2964a.8511.8511,0,1,0-.8535-.8501A.85123.85123,0,0,0,54.5571,10.5752Zm2.6148-1.7359a.85055.85055,0,1,0-.8526-.8496A.85151.85151,0,0,0,57.1719,8.8393ZM59.8872,7.834a.8506.8506,0,1,0-.853-.8506A.85168.85168,0,0,0,59.8872,7.834Zm5.4863,8.3281a.8501.8501,0,1,0-.853-.8506A.8523.8523,0,0,0,65.3735,16.1621Zm0-3.0845a.85105.85105,0,1,0-.853-.8511A.85234.85234,0,0,0,65.3735,13.0776Zm0-3.0849a.85135.85135,0,1,0-.853-.8511A.85208.85208,0,0,0,65.3735,9.9927ZM62.6704,7.3486a.85061.85061,0,1,0-.854-.8501A.852.852,0,0,0,62.6704,7.3486Zm23.44,20.8355a2.10612,2.10612,0,0,0,1.9501-.0298c-1.1411-.5679-1.728-1.0825-1.2197-2.4175a1.779,1.779,0,0,1,1.1719-1.2515c-.4092-5.2099-1.8643-7.7051-6.6069-10.0674l-.3482.0982a1.3278,1.3278,0,0,1,.0137.1821,1.73686,1.73686,0,0,1-.9058,1.4541c.8482.1768,1.6138.564,1.6138,1.5879a1.58567,1.58567,0,0,1-1.3149,1.5381,1.83014,1.83014,0,0,1,.2465,1.2095,1.53358,1.53358,0,0,1,.9312,2.0644c-.3609,1.4014-1.2124,1.5435-2.5518,1.2119a1.88388,1.88388,0,0,0,3.3877,1.4551,1.76836,1.76836,0,0,1,.0493-.3774,1.55269,1.55269,0,0,1,3.0079.7719,1.59679,1.59679,0,0,1-.3824.6866A1.87269,1.87269,0,0,0,86.1104,28.1841ZM64.0464,9.1416a3.34289,3.34289,0,0,1,.0293-.3418c-6.2066-.4522-10.6445,3.7607-11.2554,9.709a1.6008,1.6008,0,0,1,1.0098,1.0048A1.5382,1.5382,0,0,1,55.644,20.876c.3614,1.3999-.3154,1.9345-1.6489,2.2875a1.9067,1.9067,0,0,0,2.2705,1.2544,1.87706,1.87706,0,0,0,1.4102-1.8232,1.58576,1.58576,0,0,1-.2359-.8174,1.55375,1.55375,0,0,1,3.1075,0,1.72292,1.72292,0,0,1-.0806.4951,1.87866,1.87866,0,0,0,1.8135,1.3868,1.90482,1.90482,0,0,0,1.8857-1.7789c-1.3784-.0102-2.1675-.3603-2.1675-1.8071a1.534,1.534,0,0,1,1.4156-1.768c.2397-1.2779.8877-1.356,1.9594-1.5328,1.0708.1768,1.7183.2549,1.9595,1.5328a1.53426,1.53426,0,0,1,1.4155,1.768c0,1.4453-.7876,1.7969-2.1655,1.8071a1.90185,1.90185,0,0,0,1.8828,1.7789,1.8817,1.8817,0,0,0,1.8159-1.3873,1.669,1.669,0,0,1-.0825-.4946,1.553,1.553,0,0,1,3.106,0,1.57772,1.57772,0,0,1-.2339.8174,1.87585,1.87585,0,0,0,1.4101,1.8232,1.90816,1.90816,0,0,0,2.271-1.2544c-1.333-.353-2.0097-.8872-1.6489-2.2875a1.53766,1.53766,0,0,1,1.812-1.3624,1.60987,1.60987,0,0,1,1.0113-1.0048c-.6099-5.9532-5.0508-10.1612-11.2603-9.7076a2.64232,2.64232,0,0,1,.0337.3404,1.34429,1.34429,0,0,1-.2612.7925v1.5004a1.33209,1.33209,0,0,1,0,1.5845l.0312,1.5474a1.30954,1.30954,0,0,1,.23.7451c0,.8882-.6592,1.1538-1.3267,1.4478-.6679-.294-1.3271-.5596-1.3271-1.4478a1.33619,1.33619,0,0,1,.2627-.7915V13.019a1.326,1.326,0,0,1,0-1.5845V9.9341A1.34507,1.34507,0,0,1,64.0464,9.1416ZM43.9062,25.7368c.5084,1.334-.0776,1.8496-1.2187,2.4175a2.1054,2.1054,0,0,0,1.9497.0298,1.88111,1.88111,0,0,0,.9595-1.8838,1.60479,1.60479,0,0,1-.3848-.6866,1.55337,1.55337,0,0,1,3.0093-.7719,1.86116,1.86116,0,0,1,.0483.3774,1.88212,1.88212,0,0,0,3.3848-1.4551c-1.3369.3326-2.188.1875-2.5474-1.2119a1.5316,1.5316,0,0,1,.9287-2.0644,1.84657,1.84657,0,0,1,.2471-1.2095,1.58562,1.58562,0,0,1-1.3144-1.5381c0-1.0244.7641-1.4111,1.6132-1.5879a1.74053,1.74053,0,0,1-.9062-1.4541c0-.063.0073-.125-.3447-.2519-4.835,2.3852-6.1831,4.7734-6.5967,10.039A1.77763,1.77763,0,0,1,43.9062,25.7368Zm41.0381,4.9365a46.137,46.137,0,0,0-39.1098-.0098.75879.75879,0,0,1-1.02-.3901c-.188-.397.0107-.6963.1782-1.0469a3.07429,3.07429,0,0,1-3.1631-.4394c-1.9502,1.3159-4.1978-1.3926-2.7246-2.627a1.56491,1.56491,0,0,1,.3154-2.5166,1.68868,1.68868,0,0,1-.2954-.9253c0-1.0205.7603-1.4087,1.6064-1.5864a1.74085,1.74085,0,0,1-.9018-1.4531c0-1.042.8105-1.4766,1.7012-1.5606a1.80307,1.80307,0,0,1-.4278-1.1064,1.541,1.541,0,0,1,1.5435-1.54,2.98756,2.98756,0,0,1,.7783.1562,2.22035,2.22035,0,0,1-.2983-.9888,1.54148,1.54148,0,0,1,1.5439-1.5405,2.09834,2.09834,0,0,1,1.0205.3296,3.91657,3.91657,0,0,1-.0776-.5908,1.54211,1.54211,0,0,1,1.5434-1.541,1.77447,1.77447,0,0,1,1.1099.435c.1748-.8071.6255-1.4785,1.5645-1.4785a1.61693,1.61693,0,0,1,1.4272.9097,1.63929,1.63929,0,0,1,1.3003-.6817,3.00621,3.00621,0,0,1,.686.1197,2.25309,2.25309,0,0,1-.2319-.8755,1.54318,1.54318,0,0,1,1.5444-1.542,2.046,2.046,0,0,1,1.1651.4492,3.92279,3.92279,0,0,1-.0943-.6426,1.54306,1.54306,0,0,1,1.544-1.5415,1.75575,1.75575,0,0,1,1.1469.4756c.1797-.8066.6255-1.48,1.5684-1.48a1.67252,1.67252,0,0,1,1.2764.6353,1.61627,1.61627,0,0,1,1.5068-1.1216,1.82871,1.82871,0,0,1,.6172.124,2.77437,2.77437,0,0,1,1.5708-.9555V2.4902H63.5571V1.5327h1.3013V.3633h1.0298V1.5327h1.3022v.9575H65.8882V4.126a2.76985,2.76985,0,0,1,1.5708.9555,1.83766,1.83766,0,0,1,.6167-.124,1.61588,1.61588,0,0,1,1.5078,1.1216,1.67056,1.67056,0,0,1,1.2759-.6353c.9424,0,1.3886.6729,1.5674,1.4795a1.76514,1.76514,0,0,1,1.1479-.4751,1.54218,1.54218,0,0,1,1.5444,1.5415,4.06411,4.06411,0,0,1-.0869.6397,2.018,2.018,0,0,1,1.1568-.4463,1.54351,1.54351,0,0,1,1.5459,1.542,2.26075,2.26075,0,0,1-.231.8755,2.98536,2.98536,0,0,1,.6851-.1197,1.63622,1.63622,0,0,1,1.2988.6812,1.61894,1.61894,0,0,1,1.4277-.9092c.9405,0,1.3921.6733,1.5689,1.479a1.75639,1.75639,0,0,1,1.1059-.4355,1.54246,1.54246,0,0,1,1.545,1.541,4.1421,4.1421,0,0,1-.0713.5908,2.02786,2.02786,0,0,1,1.0136-.3296,1.54235,1.54235,0,0,1,1.5435,1.5405,2.2083,2.2083,0,0,1-.3013.9888,3.01019,3.01019,0,0,1,.7798-.1562,1.54233,1.54233,0,0,1,1.5454,1.54,1.81206,1.81206,0,0,1-.4267,1.1064c.8911.084,1.6997.5196,1.6997,1.5606a1.73918,1.73918,0,0,1-.9038,1.4531c.8466.1773,1.6084.5654,1.6084,1.5864a1.66454,1.66454,0,0,1-.2984.9248,1.56445,1.56445,0,0,1,.3179,2.5171,1.58,1.58,0,0,1-.3272,2.4839,1.85923,1.85923,0,0,1-2.3964.1431,3.07532,3.07532,0,0,1-3.1636.4394l.1767.3736A.7865.7865,0,0,1,84.9443,30.6733ZM47.8564,32.2207l-1.2631-.4629-.0938-.2022a.73647.73647,0,0,1-.2554.0738.23215.23215,0,0,1-.1489-.4322,45.48813,45.48813,0,0,1,38.5562,0,.23094.23094,0,0,1-.148.4322.77893.77893,0,0,1-.2563-.0738l-.0943.2027-1.2632.4624.3711,1.4492-.1132.248c.666.3125.2021.7784-.0704.6519a41.86589,41.86589,0,0,0-35.4067,0,.30509.30509,0,0,1-.2773-.5371,1.21726,1.21726,0,0,1,.2075-.1148l-.1157-.247Zm6.9981-1.0645,2.6929-1.8755-3.2652-.3427-2.6953,1.874Zm26.5327,1.7456a1.09545,1.09545,0,1,0-1.0962-1.0957A1.09626,1.09626,0,0,0,81.3872,32.9018ZM59.9038,30.0581a1.09475,1.09475,0,1,0-1.0976-1.0947A1.09562,1.09562,0,0,0,59.9038,30.0581ZM49.3594,32.9018a1.09545,1.09545,0,1,0-1.0962-1.0957A1.09585,1.09585,0,0,0,49.3594,32.9018Zm21.4834-2.8437a1.09475,1.09475,0,1,0-1.0972-1.0947A1.096,1.096,0,0,0,70.8428,30.0581Zm5.0508,1.0981,3.2666-.3442-2.6949-1.874-3.2666.3427ZM68.8022,28.688l-3.4287-1.2749L61.9463,28.688l3.4272,1.2758ZM29.8628,72.1762A35.51061,35.51061,0,1,0,65.3735,36.7524,35.56475,35.56475,0,0,0,29.8628,72.1762Zm74.8818,0A39.37183,39.37183,0,1,1,65.3735,32.8569,39.40166,39.40166,0,0,1,104.7446,72.1762ZM60.2026,55.4834l5.1348,5.2309,4.813-5.0752a21.82342,21.82342,0,0,0-5.0532-.8286A18.68848,18.68848,0,0,0,60.2026,55.4834ZM73.7275,51.81l7.5498-7.7744A32.26175,32.26175,0,0,1,97.6138,72.0498a31.82784,31.82784,0,0,1-7.4297,20.5151l-3.5239-3.518c3.9619-4.8233,6.54-9.627,6.54-17.2955,0-8.2104-4.3003-17.3642-11.165-22.1025l-4.5293,4.624a21.82967,21.82967,0,0,1,5.7202,5.9458l-3.4668,2.9878a16.579,16.579,0,0,0-5.419-5.6367l-9.0146,9.5-9.356-9.6284a17.2615,17.2615,0,0,0-7.8344,14.2119c-.1582,7.9712,5.0151,13.5308,12.2763,15.9463V71.5713H71.4883v3.2993H64.7007v4.2817h6.7007v3.7671H64.7007v5.4028c4.9624.2569,10.2451-2.6103,13.4658-6.1699l3.3174,3.3452a22.06168,22.06168,0,0,1-16.7832,7.4346v4.938H60.4116V92.4165A21.65242,21.65242,0,0,1,43.6763,71.2046c.0879-7.0166,3.8242-12.7549,9.2622-16.8467l-4.5952-4.7407c-7.1177,5.8144-10.9414,12.8906-11.2657,22.1157a25.31341,25.31341,0,0,0,6.6343,17.4424L40.6367,92.31a30.552,30.552,0,0,1-7.5913-20.2602A32.32334,32.32334,0,0,1,49.2979,44.123l7.6391,7.958a23.46082,23.46082,0,0,1,8.4321-1.5918A22.75308,22.75308,0,0,1,73.46,52.0781Z" fill="#febe10"/><path d="M115.6357,129.4907h-3.7456v-3.5444h3.7456Zm0,1.7075v14.4683h-3.7456V131.1982Zm-13.1757,0h3.583v2.5098c.83-1.4751,1.6816-2.895,3.9541-2.895a6.17288,6.17288,0,0,1,.72121.0547v3.8793a6.72709,6.72709,0,0,0-1.06891-.0556c-2.91209,0-3.4458,1.8471-3.4458,3.4497v7.5254H102.46Zm-2.2129-5.062v19.5283H96.5825v-1.8198a4.639,4.639,0,0,1-4.1743,2.2046c-4.2158,0-5.9731-3.811-5.9731-7.7808,0-5.0005,2.7685-7.4536,5.8925-7.4536a4.55628,4.55628,0,0,1,4.1216,2.2617l.0523-6.9404Zm-9.979,12.4063c0,1.7114.6689,4.3754,3.0771,4.3754,2.3819,0,3.3179-2.0112,3.3179-4.1572,0-2.3115-.6416-4.6494-3.2105-4.6494C91.0698,134.1113,90.2681,136.2593,90.2681,138.5425Zm-5.2354-3.5367v7.8286c0,1.7134.374,2.0928.8272,2.2569v.5732H81.8242a6.54319,6.54319,0,0,1-.3486-1.709,5.74858,5.74858,0,0,1-4.5967,2.0938,4.0235,4.0235,0,0,1-4.3325-4.2207c0-2.8262,1.7646-4.2691,4.146-4.6216l3.3681-.5156c.5874-.0811,1.3096-.3262,1.3096-1.1431,0-1.6025-1.4956-1.685-2.459-1.685a2.02532,2.02532,0,0,0-2.2978,2.0131H73.0024c.4283-4.435,3.4507-5.0615,6.3614-5.0615C81.3701,130.8149,85.0327,131.4414,85.0327,135.0058Zm-3.6626,5.4629V138.624a5.37946,5.37946,0,0,1-2.5395.7886c-1.3907.2451-2.5386.5981-2.5386,2.1772a1.644,1.644,0,0,0,1.7363,1.7398A3.11431,3.11431,0,0,0,81.3701,140.4687Zm-10.1894,5.1978H67.438v-8.7818c0-2.1484-.9321-2.8559-2.0254-2.8559-1.8647,0-2.5293,1.2505-2.5293,2.9643v8.6734H59.1377v-8.7017c0-1.2226,0-2.936-2.2363-2.936-1.7578,0-2.3179,1.2505-2.3179,2.8286v8.8091H50.8389V131.1997h3.5844v2.1206a4.36488,4.36488,0,0,1,4.0752-2.5054,4.05339,4.05339,0,0,1,3.9551,2.3145,4.4271,4.4271,0,0,1,3.7852-2.3145c2.7763,0,4.9419,1.6602,4.9419,4.8452Zm-22.8086-.002H46.0288V126.1347h2.3433Zm-14.3765-9.9023H31.8442c.105-3.4019,2.3101-4.7305,5.7637-4.7305,1.1255,0,5.1812.3252,5.1812,3.9678v8.1968c0,.6006.2949.8447.7749.8447a4.362,4.362,0,0,0,.7749-.1084v1.7363a4.34487,4.34487,0,0,1-1.2823.271c-2.0786,0-2.3974-1.0859-2.4775-2.1704a6.30856,6.30856,0,0,1-5.0483,2.3066,4.05219,4.05219,0,0,1-4.377-4.104c0-1.1972.3472-3.977,4.2339-4.4668l3.8804-.4892c.5615-.0552,1.2309-.2725,1.2309-1.69,0-1.497-1.0703-2.3154-3.292-2.3154C34.5288,133.0107,34.1543,134.6738,33.9956,135.7622Zm6.4497,4.9844v-2.3423c-.373.2993-.9614.5171-3.873.8994-1.149.1626-2.9917.5171-2.9917,2.313a2.22917,2.22917,0,0,0,2.5371,2.4804C38.3081,144.0971,40.4453,142.6528,40.4453,140.7466Zm-13.0503.4668h2.3399a6.15527,6.15527,0,0,1-2.4771,3.8857,5.92475,5.92475,0,0,1-3.791.977c-3.9272,0-6.2505-3.0136-6.2505-7.1181,0-4.416,2.0835-7.9263,6.7051-7.9263,4.0332,0,6.0063,3.2652,6.0063,8.3062H19.7266c0,2.9638,1.3628,4.6762,4.06,4.6762A3.56793,3.56793,0,0,0,27.395,141.2134Zm-7.6684-3.7725H27.502c-.1348-2.2149-1.0416-4.2642-3.9039-4.2642A4.1563,4.1563,0,0,0,19.7266,137.4409Zm-17.1299-.1646v8.3858H.0063V126.1347H8.8687c3.1484,0,6.2998,1.1148,6.2998,5.2447a4.83216,4.83216,0,0,1-2.6509,4.6723c1.0962.4624,2.1899.9517,2.2964,3.6743l.1606,3.5401c.0264,1.0893.1607,1.4975.9614,1.9614v.4346H12.7583a24.49594,24.49594,0,0,1-.4541-4.9014c0-1.6064-.3213-3.4844-3.4355-3.4844Zm0-8.8857V135.02H8.6011c1.8955,0,3.8969-.4893,3.8969-3.3682,0-3.0166-2.1626-3.2612-3.4428-3.2612Zm118.5161,10.1519c0,1.7114.6694,4.3754,3.0776,4.3754,2.3804,0,3.3164-2.0112,3.3164-4.1572,0-2.3115-.6421-4.6494-3.2109-4.6494C121.915,134.1113,121.1128,136.2593,121.1128,138.5425Zm9.978-12.4063v19.5283h-3.664v-1.8198a4.63791,4.63791,0,0,1-4.1739,2.2046c-4.2158,0-5.9721-3.811-5.9721-7.7808,0-5.0005,2.7666-7.4536,5.8916-7.4536a4.55428,4.55428,0,0,1,4.1201,2.2617l.0537-6.9404Zm-25.1704-53.96A40.54739,40.54739,0,1,1,65.3735,31.6841,40.57715,40.57715,0,0,1,105.9204,72.1762Zm-1.1758,0a39.37191,39.37191,0,1,0-39.3711,39.2774A39.4111,39.4111,0,0,0,104.7446,72.1762Zm-73.706,0A34.3348,34.3348,0,1,0,65.3735,37.9258,34.39059,34.39059,0,0,0,31.0386,72.1762Zm-1.1758,0A35.5106,35.5106,0,1,1,65.3735,107.601,35.53716,35.53716,0,0,1,29.8628,72.1762Zm39.6626-7.8266,19.2129,19.77a22.35092,22.35092,0,0,0,3.2861-12.3682c0-8.8833-4.9995-16.9795-9.8481-20.5683l-2.899,2.9604a22.27,22.27,0,0,1,5.4683,6.3164L79.4067,65.06a15.31369,15.31369,0,0,0-4.9052-5.9541ZM93.8682,89.3994a32.85052,32.85052,0,0,1-14.9917,13.2773l-3.1109-3.1728L69.9565,93.583a22.64708,22.64708,0,0,1-4.0805.5068V99.042H59.2363V93.3281A22.82115,22.82115,0,0,1,42.5,71.1899a20.40346,20.40346,0,0,1,.6626-4.9048l-3.2744-3.3159a28.85041,28.85041,0,0,0-1.6353,8.8013,23.86821,23.86821,0,0,0,7.125,17.3838l-4.7861,4.8789c-5.6353-6.3228-8.7217-13.4287-8.7217-21.9834,0-12.4854,6.8633-23.3799,17.6455-29.396l7.7324,8.0561a24.665,24.665,0,0,1,8.1294-1.3935,23.78364,23.78364,0,0,1,7.8199,1.4028l7.8618-8.1489A33.45655,33.45655,0,0,1,98.7896,72.0498,32.356,32.356,0,0,1,93.8682,89.3994ZM59.2363,82.6699,49.3208,72.5854a14.90527,14.90527,0,0,0,9.9155,13.3667ZM73.7275,51.81l-.2675.2681a22.75308,22.75308,0,0,0-8.0909-1.5889A23.46082,23.46082,0,0,0,56.937,52.081l-7.6391-7.958A32.32334,32.32334,0,0,0,33.0454,72.0498,30.552,30.552,0,0,0,40.6367,92.31l3.0752-3.1347a25.31341,25.31341,0,0,1-6.6343-17.4424c.3243-9.2251,4.148-16.3013,11.2657-22.1157l4.5952,4.7407c-5.438,4.0918-9.1743,9.8301-9.2622,16.8467A21.65242,21.65242,0,0,0,60.4116,92.4165v5.4536h4.2891v-4.938a22.06168,22.06168,0,0,0,16.7832-7.4346l-3.3174-3.3452c-3.2207,3.5596-8.5034,6.4268-13.4658,6.1699V82.9194h6.7007V79.1523H64.7007V74.8706h6.7876V71.5713H60.4116V87.5996c-7.2612-2.4155-12.4345-7.9751-12.2763-15.9463a17.2615,17.2615,0,0,1,7.8344-14.2119l9.356,9.6284,9.0146-9.5a16.579,16.579,0,0,1,5.419,5.6367l3.4668-2.9878a21.82967,21.82967,0,0,0-5.7202-5.9458l4.5293-4.624c6.8647,4.7383,11.165,13.8921,11.165,22.1025,0,7.6685-2.5781,12.4722-6.54,17.2955l3.5239,3.518a31.82784,31.82784,0,0,0,7.4297-20.5151A32.26175,32.26175,0,0,0,81.2773,44.0356ZM60.2026,55.4834a18.68848,18.68848,0,0,1,4.8946-.6729,21.82342,21.82342,0,0,1,5.0532.8286l-4.813,5.0752Zm2.3389.707,2.7813,2.833,2.5893-2.7309a17.79281,17.79281,0,0,0-2.8603-.3096A13.154,13.154,0,0,0,62.5415,56.1904ZM83.1821,32.374l.2427.9468.0933.353.1904-.102.8975-.4976-.23-.9351-.0479-.1972Zm1.7622-1.7007a.7865.7865,0,0,0,.9873-1.0732l-.1767-.3736a3.07532,3.07532,0,0,0,3.1636-.4394,1.85923,1.85923,0,0,0,2.3964-.1431,1.58,1.58,0,0,0,.3272-2.4839,1.56445,1.56445,0,0,0-.3179-2.5171,1.66454,1.66454,0,0,0,.2984-.9248c0-1.021-.7618-1.4091-1.6084-1.5864a1.73918,1.73918,0,0,0,.9038-1.4531c0-1.041-.8086-1.4766-1.6997-1.5606a1.81206,1.81206,0,0,0,.4267-1.1064,1.54233,1.54233,0,0,0-1.5454-1.54,3.01019,3.01019,0,0,0-.7798.1562,2.2083,2.2083,0,0,0,.3013-.9888,1.54235,1.54235,0,0,0-1.5435-1.5405,2.02786,2.02786,0,0,0-1.0136.3296,4.1421,4.1421,0,0,0,.0713-.5908,1.54246,1.54246,0,0,0-1.545-1.541,1.75639,1.75639,0,0,0-1.1059.4355c-.1768-.8057-.6284-1.479-1.5689-1.479a1.61894,1.61894,0,0,0-1.4277.9092,1.63622,1.63622,0,0,0-1.2988-.6812,2.98536,2.98536,0,0,0-.6851.1197,2.26075,2.26075,0,0,0,.231-.8755,1.54351,1.54351,0,0,0-1.5459-1.542,2.018,2.018,0,0,0-1.1568.4463,4.06411,4.06411,0,0,0,.0869-.6397,1.54218,1.54218,0,0,0-1.5444-1.5415,1.76514,1.76514,0,0,0-1.1479.4751c-.1788-.8066-.625-1.4795-1.5674-1.4795a1.67056,1.67056,0,0,0-1.2759.6353,1.61588,1.61588,0,0,0-1.5078-1.1216,1.83766,1.83766,0,0,0-.6167.124,2.76985,2.76985,0,0,0-1.5708-.9555V2.4902h1.3022V1.5327H65.8882V.3633H64.8584V1.5327H63.5571v.9575h1.3013V4.126a2.77437,2.77437,0,0,0-1.5708.9555,1.82871,1.82871,0,0,0-.6172-.124,1.61627,1.61627,0,0,0-1.5068,1.1216,1.67252,1.67252,0,0,0-1.2764-.6353c-.9429,0-1.3887.6734-1.5684,1.48a1.75575,1.75575,0,0,0-1.1469-.4756,1.54306,1.54306,0,0,0-1.544,1.5415,3.92279,3.92279,0,0,0,.0943.6426,2.046,2.046,0,0,0-1.1651-.4492,1.54318,1.54318,0,0,0-1.5444,1.542,2.25309,2.25309,0,0,0,.2319.8755,3.00621,3.00621,0,0,0-.686-.1197,1.63929,1.63929,0,0,0-1.3003.6817,1.61693,1.61693,0,0,0-1.4272-.9097c-.939,0-1.3897.6714-1.5645,1.4785a1.77447,1.77447,0,0,0-1.1099-.435,1.54211,1.54211,0,0,0-1.5434,1.541,3.91657,3.91657,0,0,0,.0776.5908,2.09834,2.09834,0,0,0-1.0205-.3296,1.54148,1.54148,0,0,0-1.5439,1.5405,2.22035,2.22035,0,0,0,.2983.9888,2.98756,2.98756,0,0,0-.7783-.1562,1.541,1.541,0,0,0-1.5435,1.54,1.80307,1.80307,0,0,0,.4278,1.1064c-.8907.084-1.7012.5186-1.7012,1.5606a1.74085,1.74085,0,0,0,.9018,1.4531c-.8461.1777-1.6064.5659-1.6064,1.5864a1.68868,1.68868,0,0,0,.2954.9253,1.56491,1.56491,0,0,0-.3154,2.5166c-1.4732,1.2344.7744,3.9429,2.7246,2.627a3.07429,3.07429,0,0,0,3.1631.4394c-.1675.3506-.3662.6499-.1782,1.0469a.75879.75879,0,0,0,1.02.3901,46.137,46.137,0,0,1,39.1098.0098ZM47.5654,32.374l-.8257-.3027-.3134-.1079-.0464.1982-.2383.9126.895.4971.1978.1123.0884-.3618Zm-.5229,1.4795-1.1826-.6567.2895-1.1797a.63733.63733,0,0,1-.4565-.9317,1.16128,1.16128,0,0,1-1.3076-1.3095,3.3208,3.3208,0,0,1-2.5704-.5445c-2.0815,1.2481-4.542-1.7319-3.2016-3.122a1.889,1.889,0,0,1,.3262-2.5835,1.90458,1.90458,0,0,1,1.0166-2.5733,1.90168,1.90168,0,0,1,.9668-3.1235,1.90348,1.90348,0,0,1,1.7236-2.7212l.1763.0083a1.9055,1.9055,0,0,1,2.4252-2.2905,1.90893,1.90893,0,0,1,2.7886-1.6778,1.908,1.908,0,0,1,3.2691-.5605,1.899,1.899,0,0,1,1.2529-.4702l.1328.0048a1.84221,1.84221,0,0,1-.043-.3969A1.90746,1.90746,0,0,1,55.2637,7.957a1.90557,1.90557,0,0,1,2.8325-1.6313,1.91068,1.91068,0,0,1,2.9629-.8448,1.90015,1.90015,0,0,1,2.1147-.8183,3.03787,3.03787,0,0,1,1.125-.7476l.1953-.0674V2.8535H63.1929V1.1694h1.3012V0h1.7583V1.1694h1.3033V2.8535H66.2524v.9941l.1949.0674a3.03652,3.03652,0,0,1,1.1255.7476,1.90087,1.90087,0,0,1,2.1152.8183,1.9102,1.9102,0,0,1,2.9624.8448A1.90477,1.90477,0,0,1,75.4819,7.957a1.90485,1.90485,0,0,1,2.5738,2.165l.1333-.0048a1.89658,1.89658,0,0,1,1.2519.4702,1.90922,1.90922,0,0,1,3.2705.5605,1.90813,1.90813,0,0,1,2.7876,1.6763,1.93433,1.93433,0,0,1,.5786-.0889,1.9053,1.9053,0,0,1,1.9082,1.9038,1.86825,1.86825,0,0,1-.0615.4771l.1753-.0083a1.90433,1.90433,0,0,1,1.7241,2.7212,1.90159,1.90159,0,0,1,.9678,3.1235,1.90335,1.90335,0,0,1,1.1968,1.7656,1.87307,1.87307,0,0,1-.1821.8077,1.88842,1.88842,0,0,1,.3281,2.5835c.84809.8803.1113,2.2695-.5957,2.8208a2.239,2.239,0,0,1-2.6065.3012,3.32188,3.32188,0,0,1-2.5703.5445,1.16362,1.16362,0,0,1-1.3076,1.3071.63778.63778,0,0,1-.4541.9341l.2866,1.1797-1.1816.6572a.67326.67326,0,0,1,.084.7031.64925.64925,0,0,1-.8648.3418,41.50685,41.50685,0,0,0-35.0991,0,.65269.65269,0,0,1-.8672-.3418A.67343.67343,0,0,1,47.0425,33.8535Zm.8139-1.6328-.3715,1.4502.1157.247a1.21726,1.21726,0,0,0-.2075.1148.30509.30509,0,0,0,.2773.5371,41.86589,41.86589,0,0,1,35.4067,0c.2725.1265.7364-.3394.0704-.6519l.1132-.248-.3711-1.4492,1.2632-.4624.0943-.2027a.77893.77893,0,0,0,.2563.0738.23094.23094,0,0,0,.148-.4322,45.48813,45.48813,0,0,0-38.5562,0,.23215.23215,0,0,0,.1489.4322.73647.73647,0,0,0,.2554-.0738l.0938.2022ZM76.8105,15.3701a9.6277,9.6277,0,0,0-9.7451-6.2285,1.67785,1.67785,0,0,1-.2627.9028v1.2798a1.6835,1.6835,0,0,1,0,1.8061v.8106A17.22887,17.22887,0,0,1,76.8105,15.3701Zm-10.0078-.9609a1.68287,1.68287,0,0,1-.3584,2.2085,1.7868,1.7868,0,0,1,1.1988,1.3813,1.87308,1.87308,0,0,1,1.4697,2.0742,1.93788,1.93788,0,0,1-2.0884,2.1626,1.51364,1.51364,0,0,0,2.877.0342,1.847,1.847,0,0,1-.0664-.4927,1.91745,1.91745,0,0,1,3.8349,0,1.88606,1.88606,0,0,1-.2319.9092,1.51375,1.51375,0,0,0,2.7983.7109,1.93455,1.93455,0,0,1-1.4858-2.6128,1.87785,1.87785,0,0,1,1.9419-1.645,1.87424,1.87424,0,0,1,.8442-.8633,11.5148,11.5148,0,0,0-.5937-2.5576A16.8621,16.8621,0,0,0,66.8027,14.186ZM64.0464,9.1416a1.34507,1.34507,0,0,0,.2627.7925v1.5004a1.326,1.326,0,0,0,0,1.5845V14.52a1.33619,1.33619,0,0,0-.2627.7915c0,.8882.6592,1.1538,1.3271,1.4478.6675-.294,1.3267-.5596,1.3267-1.4478a1.30954,1.30954,0,0,0-.23-.7451L66.439,13.019a1.33209,1.33209,0,0,0,0-1.5845V9.9341a1.34429,1.34429,0,0,0,.2612-.7925,2.64232,2.64232,0,0,0-.0337-.3404c6.2095-.4536,10.6504,3.7544,11.2603,9.7076a1.60987,1.60987,0,0,0-1.0113,1.0048,1.53766,1.53766,0,0,0-1.812,1.3624c-.3608,1.4003.3159,1.9345,1.6489,2.2875a1.90816,1.90816,0,0,1-2.271,1.2544,1.87585,1.87585,0,0,1-1.4101-1.8232,1.57772,1.57772,0,0,0,.2339-.8174,1.553,1.553,0,0,0-3.106,0,1.669,1.669,0,0,0,.0825.4946,1.8817,1.8817,0,0,1-1.8159,1.3873,1.90185,1.90185,0,0,1-1.8828-1.7789c1.3779-.0102,2.1655-.3618,2.1655-1.8071a1.53426,1.53426,0,0,0-1.4155-1.768c-.2412-1.2779-.8887-1.356-1.9595-1.5328-1.0717.1768-1.7197.2549-1.9594,1.5328a1.534,1.534,0,0,0-1.4156,1.768c0,1.4468.7891,1.7969,2.1675,1.8071a1.90482,1.90482,0,0,1-1.8857,1.7789,1.87866,1.87866,0,0,1-1.8135-1.3868,1.72292,1.72292,0,0,0,.0806-.4951,1.55375,1.55375,0,0,0-3.1075,0,1.58576,1.58576,0,0,0,.2359.8174,1.87706,1.87706,0,0,1-1.4102,1.8232,1.9067,1.9067,0,0,1-2.2705-1.2544c1.3335-.353,2.0103-.8876,1.6489-2.2875a1.5382,1.5382,0,0,0-1.8139-1.3624,1.6008,1.6008,0,0,0-1.0098-1.0048c.6109-5.9483,5.0488-10.1612,11.2554-9.709A3.34289,3.34289,0,0,0,64.0464,9.1416ZM53.8047,15.7187a11.38223,11.38223,0,0,0-.5933,2.5576,1.88444,1.88444,0,0,1,.8433.8633,1.87738,1.87738,0,0,1,1.9424,1.645,1.93485,1.93485,0,0,1-1.4854,2.6128,1.51252,1.51252,0,0,0,2.7964-.7114,1.916,1.916,0,1,1,3.604-.9087,1.8813,1.8813,0,0,1-.0654.4922,1.51345,1.51345,0,0,0,2.8769-.0337,1.93826,1.93826,0,0,1-2.0898-2.1626A1.87275,1.87275,0,0,1,63.104,17.999a1.7835,1.7835,0,0,1,1.1987-1.3813,1.68389,1.68389,0,0,1-.3589-2.2085V14.186A16.85821,16.85821,0,0,0,53.8047,15.7187Zm9.8769-6.5771a9.6287,9.6287,0,0,0-9.7461,6.2309,17.21476,17.21476,0,0,1,10.0083-1.4331v-.8091a1.68621,1.68621,0,0,1,0-1.8061V10.0444A1.68613,1.68613,0,0,1,63.6816,9.1416ZM82.8843,26.4668l.1089-.0791a1.72585,1.72585,0,0,0,.6499.3403,2.893,2.893,0,0,0,.3359.0542,3.23425,3.23425,0,0,0,.834,1.7183l-.207.29q-1.69335-.7464-3.4532-1.3657l.0484-.3526A3.22833,3.22833,0,0,0,82.8843,26.4668Zm.1079.3691a3.593,3.593,0,0,1-1.062.4819q1.10445.4065,2.1831.8638a3.54971,3.54971,0,0,1-.4424-1.0757l-.1167-.0254A1.8714,1.8714,0,0,1,82.9922,26.8359ZM65.1929,22.206h.3608a2.94,2.94,0,0,0,1.6445,2.2295l-.0864.3447q-.86355-.03075-1.7383-.0317-.8715,0-1.7392.0317l-.0855-.3447A2.93733,2.93733,0,0,0,65.1929,22.206Zm.1806.7505a3.29952,3.29952,0,0,1-1.0717,1.4404q.5346-.01095,1.0717-.0117.5376,0,1.0723.0117A3.29321,3.29321,0,0,1,65.3735,22.9565ZM46.1416,28.792l-.2075-.2901a3.23773,3.23773,0,0,0,.8345-1.7197,1.66482,1.66482,0,0,0,.9863-.394,3.26215,3.26215,0,0,0,1.791.684l.0483.3526Q47.83575,28.043,46.1416,28.792Zm.4922-.6104q1.078-.457,2.1841-.8642a3.57038,3.57038,0,0,1-1.063-.4815,1.88514,1.88514,0,0,1-.5615.2446l-.1177.0254A3.52323,3.52323,0,0,1,46.6338,28.1816Zm8.5732-2.7012.0025.3555q-1.6824.3663-3.3208.8491l-.1695-.3134a2.93106,2.93106,0,0,0,1.0127-2.5479l.3501-.0903A2.94286,2.94286,0,0,0,55.207,25.4804Zm-.7309.1475a3.30932,3.30932,0,0,1-1.3819-1.123,3.30273,3.30273,0,0,1-.6655,1.646Q53.44315,25.86815,54.4761,25.6279Zm3.0879-.2422-.128-.3315a3.23583,3.23583,0,0,0,1.3423-1.7368l.2193.0087a1.91577,1.91577,0,0,0,.5776-.1044,3.2432,3.2432,0,0,0,1.7397,1.3471l-.041.354Q59.3968,25.08255,57.564,25.3857Zm1.4663-1.6968a3.56141,3.56141,0,0,1-.8365,1.23q1.1646-.1758,2.3492-.2939a3.53847,3.53847,0,0,1-1.1197-.9834A1.97741,1.97741,0,0,1,59.0303,23.6889Zm10.4424,1.2339-.0411-.354a3.24561,3.24561,0,0,0,1.7417-1.3476,1.897,1.897,0,0,0,.5762.1049l.2183-.0087a3.23584,3.23584,0,0,0,1.3447,1.7368l-.1284.3315C71.9624,25.1845,70.7227,25.0293,69.4727,24.9228Zm2.2343-1.2339a1.91242,1.91242,0,0,1-.3813-.0473,3.57069,3.57069,0,0,1-1.1211.9834c.7876.0791,1.5727.1767,2.3486.2939a3.55861,3.55861,0,0,1-.8027-1.1499Zm7.3223,2.6836-.1709.3125q-1.6347-.484-3.3203-.8491l.001-.3555a2.942,2.942,0,0,0,2.1259-1.7465l.3492.0898A2.9381,2.9381,0,0,0,79.0293,26.3725Zm-.7095-.2216a3.30259,3.30259,0,0,1-.6675-1.646,3.309,3.309,0,0,1-1.3798,1.123C76.96,25.7876,77.644,25.9624,78.3198,26.1509Zm.522-6.2588a1.52782,1.52782,0,1,0,1.103,1.8598A1.53195,1.53195,0,0,0,78.8418,19.8921Zm.061-.2369a1.77274,1.77274,0,1,1-2.1626,1.2759A1.769,1.769,0,0,1,78.9028,19.6552Zm1.3306-2.7656a.85086.85086,0,1,0,.854.8506A.85219.85219,0,0,0,80.2334,16.8896Zm0-.2441a1.09445,1.09445,0,1,1-1.0972,1.0947A1.09522,1.09522,0,0,1,80.2334,16.6455Zm-.707-2.7979a.85085.85085,0,1,0,.853.8506A.85116.85116,0,0,0,79.5264,13.8476Zm0-.2436a1.09445,1.09445,0,1,1-1.0977,1.0942A1.09793,1.09793,0,0,1,79.5264,13.604Zm10.5532,8.2641a.85085.85085,0,1,0,.8506.8501A.85158.85158,0,0,0,90.0796,21.8681Zm0-.2436a1.0945,1.0945,0,1,1-1.0972,1.0937A1.09514,1.09514,0,0,1,90.0796,21.6245Zm-.7066-2.7964a.85105.85105,0,1,0,.8526.8506A.84982.84982,0,0,0,89.373,18.8281Zm0-.2441a1.095,1.095,0,1,1-1.0961,1.0947A1.09631,1.09631,0,0,1,89.373,18.584Zm-1.2734-2.4239a.85086.85086,0,1,0,.855.8516A.85306.85306,0,0,0,88.0996,16.1601Zm0-.2436a1.095,1.095,0,1,1-1.0981,1.0952A1.095,1.095,0,0,1,88.0996,15.9165Zm-2.022-2.128a.85085.85085,0,1,0,.8521.8506A.8521.8521,0,0,0,86.0776,13.7885Zm0-.2441a1.09476,1.09476,0,1,1-1.0981,1.0947A1.09578,1.09578,0,0,1,86.0776,13.5444Zm-2.4873-1.5591a.85135.85135,0,1,0,.8531.8521A.85184.85184,0,0,0,83.5903,11.9853Zm0-.2431a1.095,1.095,0,1,1-1.0962,1.0952A1.09694,1.09694,0,0,1,83.5903,11.7422Zm-2.6748-.7994a.8506.8506,0,1,0,.8535.8501A.85093.85093,0,0,0,80.9155,10.9428Zm0-.2436a1.0945,1.0945,0,1,1-1.0971,1.0937A1.096,1.096,0,0,1,80.9155,10.6992Zm-2.7265.4712a.8506.8506,0,1,0,.8515.8511A.85268.85268,0,0,0,78.189,11.1704Zm0-.2442a1.09476,1.09476,0,1,1-1.0982,1.0953A1.09554,1.09554,0,0,1,78.189,10.9262Zm-2-2.0532a.8511.8511,0,1,0,.854.8521A.85112.85112,0,0,0,76.189,8.873Zm0-.2431a1.0947,1.0947,0,1,1-1.0957,1.0952A1.09533,1.09533,0,0,1,76.189,8.6299ZM73.5747,7.1382a.85056.85056,0,1,0,.854.8515A.85116.85116,0,0,0,73.5747,7.1382Zm0-.2437A1.0945,1.0945,0,1,1,72.479,7.9897,1.09594,1.09594,0,0,1,73.5747,6.8945Zm-2.7153-.7617a.85061.85061,0,1,0,.854.8506A.85059.85059,0,0,0,70.8594,6.1328Zm0-.2437a1.0945,1.0945,0,1,1-1.0948,1.0943A1.09595,1.09595,0,0,1,70.8594,5.8891Zm-2.7837-.2417a.8506.8506,0,1,0,.853.8511A.85116.85116,0,0,0,68.0757,5.6474Zm0-.2431A1.0942,1.0942,0,1,1,66.98,6.4985,1.096,1.096,0,0,1,68.0757,5.4043ZM41.7358,28.0259a1.52909,1.52909,0,1,0-2.0815-.6021A1.52449,1.52449,0,0,0,41.7358,28.0259Zm.1187.2138a1.77331,1.77331,0,1,1,.6987-2.4062A1.78048,1.78048,0,0,1,41.8545,28.2397ZM52.6694,22.851a1.528,1.528,0,1,0-1.8667-1.0991A1.52673,1.52673,0,0,0,52.6694,22.851Zm.0606.2374a1.77282,1.77282,0,1,1,1.2773-2.1573A1.77786,1.77786,0,0,1,52.73,23.0884ZM65.3735,21.248a1.52805,1.52805,0,1,0-1.5312-1.5273A1.52951,1.52951,0,0,0,65.3735,21.248Zm0,.2442a1.77176,1.77176,0,1,1,1.7769-1.7715A1.77518,1.77518,0,0,1,65.3735,21.4922ZM50.5122,18.5913a.85085.85085,0,1,0-.8516-.8511A.85328.85328,0,0,0,50.5122,18.5913Zm0,.2431a1.09445,1.09445,0,1,1,1.0977-1.0942A1.09535,1.09535,0,0,1,50.5122,18.8344Zm.708-3.2851a.85085.85085,0,1,0-.8525-.8511A.85212.85212,0,0,0,51.2202,15.5493Zm0,.2436a1.09445,1.09445,0,1,1,1.0972-1.0947A1.09663,1.09663,0,0,1,51.2202,15.7929ZM40.6689,23.5698a.85085.85085,0,1,0-.8535-.8516A.8518.8518,0,0,0,40.6689,23.5698Zm0,.2437a1.0945,1.0945,0,1,1,1.0957-1.0953A1.09573,1.09573,0,0,1,40.6689,23.8135Zm.7056-3.2833a.85105.85105,0,1,0-.853-.8515A.853.853,0,0,0,41.3745,20.5302Zm0,.2437a1.095,1.095,0,1,1,1.0972-1.0952A1.09554,1.09554,0,0,1,41.3745,20.7739Zm1.272-2.9121a.85085.85085,0,1,0-.8521-.8501A.85072.85072,0,0,0,42.6465,17.8618Zm0,.2446a1.095,1.095,0,1,1,1.0976-1.0947A1.09577,1.09577,0,0,1,42.6465,18.1064Zm2.0239-2.6162a.85085.85085,0,1,0-.8535-.8511A.85127.85127,0,0,0,44.6704,15.4902Zm0,.2437a1.09475,1.09475,0,1,1,1.0962-1.0948A1.0953,1.0953,0,0,1,44.6704,15.7339Zm2.4863-2.0459a.85135.85135,0,1,0-.8535-.8506A.85091.85091,0,0,0,47.1567,13.688Zm0,.2441a1.095,1.095,0,1,1,1.0962-1.0947A1.09746,1.09746,0,0,1,47.1567,13.9321Zm2.6744-1.2881a.8506.8506,0,1,0-.8526-.8511A.85089.85089,0,0,0,49.8311,12.644Zm0,.2442a1.0945,1.0945,0,1,1,1.0966-1.0953A1.09618,1.09618,0,0,1,49.8311,12.8882Zm2.7275-.0166a.8506.8506,0,1,0-.8525-.8501A.85146.85146,0,0,0,52.5586,12.8716Zm0,.2441a1.09476,1.09476,0,1,1,1.0981-1.0942A1.09577,1.09577,0,0,1,52.5586,13.1157Zm1.9985-2.5405a.8511.8511,0,1,0-.8535-.8501A.85123.85123,0,0,0,54.5571,10.5752Zm0,.2441a1.0947,1.0947,0,1,1,1.0962-1.0942A1.09693,1.09693,0,0,1,54.5571,10.8193Zm2.6148-1.98a.85055.85055,0,1,0-.8526-.8496A.85151.85151,0,0,0,57.1719,8.8393Zm0,.2442a1.0945,1.0945,0,1,1,1.0967-1.0938A1.095,1.095,0,0,1,57.1719,9.0835ZM59.8872,7.834a.8506.8506,0,1,0-.853-.8506A.85168.85168,0,0,0,59.8872,7.834Zm0,.2441a1.0945,1.0945,0,1,1,1.0967-1.0947A1.09665,1.09665,0,0,1,59.8872,8.0781Zm5.4863,8.084a.8501.8501,0,1,0-.853-.8506A.8523.8523,0,0,0,65.3735,16.1621Zm0,.2446a1.09451,1.09451,0,1,1,1.0982-1.0952A1.09682,1.09682,0,0,1,65.3735,16.4067Zm0-3.3291a.85105.85105,0,1,0-.853-.8511A.85234.85234,0,0,0,65.3735,13.0776Zm0,.2442a1.09525,1.09525,0,1,1,1.0982-1.0953A1.0969,1.0969,0,0,1,65.3735,13.3218Zm0-3.3291a.85135.85135,0,1,0-.853-.8511A.85208.85208,0,0,0,65.3735,9.9927Zm0,.2436a1.09471,1.09471,0,1,1,1.0982-1.0947A1.09582,1.09582,0,0,1,65.3735,10.2363ZM62.6704,7.3486a.85061.85061,0,1,0-.854-.8501A.852.852,0,0,0,62.6704,7.3486Zm0,.2441a1.09421,1.09421,0,1,1,1.0977-1.0942A1.09665,1.09665,0,0,1,62.6704,7.5927ZM90.4897,25.3486a1.52909,1.52909,0,1,0,.6036,2.0752A1.53323,1.53323,0,0,0,90.4897,25.3486Zm.1177-.2139a1.77328,1.77328,0,1,1-2.4126.6988A1.76723,1.76723,0,0,1,90.6074,25.1347Zm-46.7012.6021a1.77763,1.77763,0,0,0-1.1723-1.2515c.4136-5.2656,1.7617-7.6538,6.5361-10.0615.4126.1494.4053.2114.4053.2744a1.74053,1.74053,0,0,0,.9062,1.4541c-.8491.1768-1.6132.5635-1.6132,1.5879a1.58562,1.58562,0,0,0,1.3144,1.5381,1.84657,1.84657,0,0,0-.2471,1.2095,1.5316,1.5316,0,0,0-.9287,2.0644c.3594,1.3994,1.2105,1.5445,2.5474,1.2119a1.88212,1.88212,0,0,1-3.3848,1.4551,1.86116,1.86116,0,0,0-.0483-.3774,1.55337,1.55337,0,0,0-3.0093.7719,1.60479,1.60479,0,0,0,.3848.6866,1.88111,1.88111,0,0,1-.9595,1.8838,2.1054,2.1054,0,0,1-1.9497-.0298C43.8286,27.5864,44.4146,27.0708,43.9062,25.7368Zm.0694-5.6909a14.75941,14.75941,0,0,0-.855,4.1836,2.30437,2.30437,0,0,1,1.1255,1.3774,1.872,1.872,0,0,1-.6065,2.4419,1.51085,1.51085,0,0,0,1.6036-1.5977,1.90789,1.90789,0,0,1,.9961-3.0751,1.91779,1.91779,0,0,1,2.3349,1.3774,1.889,1.889,0,0,1,.0537.3354,1.51471,1.51471,0,0,0,2.6875-.872,1.93737,1.93737,0,0,1-2.5615-1.5747,1.87024,1.87024,0,0,1,.9048-2.3745,2.08553,2.08553,0,0,1,.1182-.7715,1.9054,1.9054,0,0,1-1.1363-1.3833,19.88792,19.88792,0,0,0-2.7925.8047A6.48117,6.48117,0,0,0,43.9756,20.0459Zm5.3389-5.2349c-2.6622,1.3809-4.2276,2.7949-5.1368,4.7603a6.70181,6.70181,0,0,1,1.5816-.8814,20.22947,20.22947,0,0,1,2.8491-.8198l-.0044-.1299a1.90456,1.90456,0,0,1,1.2002-1.7681A1.88563,1.88563,0,0,1,49.3145,14.811ZM86.1104,28.1841a1.87269,1.87269,0,0,1-.9576-1.8838,1.59679,1.59679,0,0,0,.3824-.6866,1.55269,1.55269,0,0,0-3.0079-.7719,1.76836,1.76836,0,0,0-.0493.3774,1.88388,1.88388,0,0,1-3.3877-1.4551c1.3394.3316,2.1909.1895,2.5518-1.2119a1.53358,1.53358,0,0,0-.9312-2.0644,1.83014,1.83014,0,0,0-.2465-1.2095,1.58567,1.58567,0,0,0,1.3149-1.5381c0-1.0239-.7656-1.4111-1.6138-1.5879a1.73686,1.73686,0,0,0,.9058-1.4541,1.3278,1.3278,0,0,0-.0137-.1821l.3482-.0982c4.7426,2.3623,6.1977,4.8575,6.6069,10.0674a1.779,1.779,0,0,0-1.1719,1.2515c-.5083,1.335.0786,1.8496,1.2197,2.4175A2.10612,2.10612,0,0,1,86.1104,28.1841ZM82.1069,18.1133a1.90739,1.90739,0,0,1-1.1362,1.3828,2.059,2.059,0,0,1,.1182.7715,1.8708,1.8708,0,0,1,.9052,2.3745,1.93872,1.93872,0,0,1-2.5634,1.5747,1.51529,1.51529,0,0,0,2.6884.872,2.07984,2.07984,0,0,1,.0538-.3354,1.91758,1.91758,0,1,1,3.3315,1.6977,1.51457,1.51457,0,0,0,1.6035,1.5977,1.87243,1.87243,0,0,1-.6064-2.4424,2.30484,2.30484,0,0,1,1.125-1.3769,14.64149,14.64149,0,0,0-.8594-4.1875,6.474,6.474,0,0,0-1.8682-1.1245A19.82852,19.82852,0,0,0,82.1069,18.1133Zm-.6714-3.354a1.88176,1.88176,0,0,1-.4921,1.2128,1.90707,1.90707,0,0,1,1.2016,1.7681l-.0058.1309a19.78078,19.78078,0,0,1,2.8496.8188,6.80554,6.80554,0,0,1,1.5747.876C85.6577,17.6133,84.0952,16.1845,81.4355,14.7593ZM75.8936,31.1562l-2.6949-1.8755,3.2666-.3427,2.6949,1.874Zm-5.0508-1.0981a1.09476,1.09476,0,1,1,1.0986-1.0947A1.09637,1.09637,0,0,1,70.8428,30.0581Zm0-.2437a.85055.85055,0,1,0-.8531-.851A.85354.85354,0,0,0,70.8428,29.8144ZM49.3594,32.6572a.85085.85085,0,1,0-.8521-.8511A.852.852,0,0,0,49.3594,32.6572Zm0,.2446a1.09545,1.09545,0,1,1,1.0971-1.0957A1.096,1.096,0,0,1,49.3594,32.9018Zm10.5444-3.0874a.85055.85055,0,1,0-.8525-.851A.85234.85234,0,0,0,59.9038,29.8144Zm0,.2437a1.09476,1.09476,0,1,1,1.0982-1.0947A1.09607,1.09607,0,0,1,59.9038,30.0581Zm21.4834,2.5991a.85085.85085,0,1,0-.852-.8511A.85061.85061,0,0,0,81.3872,32.6572Zm0,.2446a1.09545,1.09545,0,1,1,1.0972-1.0957A1.09566,1.09566,0,0,1,81.3872,32.9018ZM54.8545,31.1562l-3.2676-.3442,2.6953-1.874,3.2652.3427Zm13.248-2.4682-2.729-1.0142-2.728,1.0142,2.728,1.0151Zm.6997,0-3.4287,1.2758L61.9463,28.688l3.4272-1.2749Z" fill="#00539f"/></svg>