<?xml version="1.0" encoding="UTF-8" standalone="no"?>
<svg xmlns:rdf="http://www.w3.org/1999/02/22-rdf-syntax-ns#" xmlns="http://www.w3.org/2000/svg" height="272.21775" width="364.17038" version="1.1" xmlns:cc="http://creativecommons.org/ns#" xmlns:dc="http://purl.org/dc/elements/1.1/" viewBox="0 0 364.17038 272.21775"><path d="M37.40393,87.27078a2.86408,2.86408,0,0,1-.053,4.048l-6.501,6.341a2.72168,2.72168,0,0,1-2.032.811,3.08219,3.08219,0,0,1-.376-.026,2.526,2.526,0,0,1,.02.373,2.87146,2.87146,0,0,1-.866,2.01l-6.499,6.341a2.85685,2.85685,0,0,1-4.047-.053l-3.248-3.33a2.88714,2.88714,0,0,1-.816-2.039,2.83792,2.83792,0,0,1,.867-2.009l.015-.019-13.472-22.808a2.86543,2.86543,0,0,1,.467-3.502l3.254-3.172a2.86153,2.86153,0,0,1,3.513-.379l22.462,14.042.016-.012a2.7812,2.7812,0,0,1,2.033-.811,2.88858,2.88858,0,0,1,2.017.862Zm3.73-38.791a2.87888,2.87888,0,0,0-1.85-1.116l-5.131-.808a2.875,2.875,0,0,0-2.162.534l-8.733,6.522a2.86128,2.86128,0,0,0-1.124,1.918l-.689,5.156a2.88567,2.88567,0,0,0,.55,2.088l15.033,20.134a2.85485,2.85485,0,0,0,1.847,1.115l5.135.807a2.98347,2.98347,0,0,0,.448.036,2.86524,2.86524,0,0,0,1.712-.57l.296-.217a2.85907,2.85907,0,0,0,3.642.181l3.642-2.717a2.87,2.87,0,0,0,.861-3.545l.294-.22a2.87174,2.87174,0,0,0,1.123-1.916l.682-5.158a2.86562,2.86562,0,0,0-.545-2.09Zm30.757-13.493a2.85983,2.85983,0,0,0,.632-3.548l-2.25-4.072a2.86005,2.86005,0,0,0-3.89-1.119l-7.952,4.395a2.87657,2.87657,0,0,0-1.364,1.712,2.84542,2.84542,0,0,0-.077.366,3.41138,3.41138,0,0,0-.352-.127,2.85665,2.85665,0,0,0-2.175.247l-7.947,4.397a2.85685,2.85685,0,0,0-1.118,3.887l2.248,4.071a2.87726,2.87726,0,0,0,3.344,1.356l10.354,18.722a2.91405,2.91405,0,0,0,1.68,1.356l4.984,1.497a2.76614,2.76614,0,0,0,.822.123,2.84184,2.84184,0,0,0,1.38-.358l9.543-5.277a2.83545,2.83545,0,0,0,1.37-1.743l1.38-5.016a2.85582,2.85582,0,0,0-.256-2.143Zm30.263,9.48a2.86253,2.86253,0,0,0-3.159-1.739l-6.638-16.368a2.868,2.868,0,0,0,1.051-3.452l-1.746-4.312a2.86052,2.86052,0,0,0-3.727-1.575l-8.42,3.413a2.85848,2.85848,0,0,0-1.578,3.725l1.753,4.313a2.8507,2.8507,0,0,0,3.155,1.744l6.637,16.367a2.859,2.859,0,0,0-1.051,3.448l1.753,4.313a2.85149,2.85149,0,0,0,2.649,1.787,2.95931,2.95931,0,0,0,1.076-.205l8.411-3.414a2.86381,2.86381,0,0,0,1.578-3.734Zm30.075-11.322a2.84448,2.84448,0,0,0-1.338-1.734,2.87377,2.87377,0,0,0-2.176-.276l-4.38,1.195a2.86878,2.86878,0,0,0-2.1,2.987l-3.286.896-4.635-16.982a2.86779,2.86779,0,0,0,1.458-3.304l-1.227-4.487a2.86261,2.86261,0,0,0-3.513-2.009l-8.76,2.389a2.8596,2.8596,0,0,0-2.009,3.514l1.225,4.492a2.8691,2.8691,0,0,0,2.926,2.105l4.646,17.04a2.87668,2.87668,0,0,0-1.176,1.129,2.84308,2.84308,0,0,0-.275,2.174l1.222,4.483a2.85811,2.85811,0,0,0,2.761,2.111,2.72732,2.72732,0,0,0,.756-.103l19.711-5.375a2.86462,2.86462,0,0,0,2.008-3.514Zm30.854-2.053a2.85439,2.85439,0,0,0-3.217-2.454l-.025.003-9.663-24.663a2.85665,2.85665,0,0,0-3.046-1.791l-4.499.608a2.86519,2.86519,0,0,0-2.464,2.536l-2.778,26.342-.027.003a2.85376,2.85376,0,0,0-2.45,3.218l.619,4.614a2.86466,2.86466,0,0,0,2.836,2.478,2.95093,2.95093,0,0,0,.385-.025l9-1.214a2.8592,2.8592,0,0,0,2.102-1.414,2.66351,2.66351,0,0,0,.281.243,2.87532,2.87532,0,0,0,2.12.564l8.999-1.215a2.86624,2.86624,0,0,0,2.453-3.224Zm71.19,3.454-1.223-26.465a2.86331,2.86331,0,0,0-2.308-2.677l-4.451-.875a2.8665,2.8665,0,0,0-3.154,1.606l-11.117,24.042-.023-.002a2.87123,2.87123,0,0,0-3.364,2.26l-.893,4.562a2.86079,2.86079,0,0,0,2.255,3.359l8.911,1.754a2.87383,2.87383,0,0,0,2.441-.665,3.48285,3.48285,0,0,0,.188.327,2.8665,2.8665,0,0,0,1.83,1.211l8.914,1.747a2.82639,2.82639,0,0,0,2.146-.431,2.85761,2.85761,0,0,0,1.208-1.823l.9-4.57a2.87527,2.87527,0,0,0-2.26-3.36m31.836.422-2.235-4.693a2.851,2.851,0,0,0-1.658-1.485l-6.744-2.305,1.158-3.388,3.225,1.105a2.85794,2.85794,0,0,0,1.906,3.107l4.292,1.469a2.85266,2.85266,0,0,0,3.633-1.779l1.05505-3.082a2.84782,2.84782,0,0,0-.117-2.151l-2.232-4.701a2.88261,2.88261,0,0,0-1.662-1.483l-10.306-3.523a2.8652,2.8652,0,0,0-2.22.154l-4.643,2.347a2.88109,2.88109,0,0,0-1.419,1.627l-3.612,10.566a2.86171,2.86171,0,0,0,.125,2.152l2.231,4.699a2.84366,2.84366,0,0,0,1.659,1.478l6.742,2.309-1.16,3.388-3.224-1.1a2.8542,2.8542,0,0,0-1.904-3.111l-4.296-1.474a2.86608,2.86608,0,0,0-3.636,1.785l-1.052,3.084a2.88559,2.88559,0,0,0,.121,2.15l2.233,4.698a2.88848,2.88848,0,0,0,1.658,1.483l10.314,3.525a2.90861,2.90861,0,0,0,.928.154,2.8337,2.8337,0,0,0,1.286-.306l4.641-2.351a2.8017,2.8017,0,0,0,1.417-1.625l3.613-10.568a2.884,2.884,0,0,0-.117-2.155m27.867,23.963-.761-.396-2.196-12.333,10.078-3.338.946.49a2.85908,2.85908,0,0,0,3.858-1.226l2.141-4.13a2.86167,2.86167,0,0,0-1.224-3.857l-9.677-5.012a2.85238,2.85238,0,0,0-2.184-.187,2.46081,2.46081,0,0,0-.348.134,2.86721,2.86721,0,0,0-1.501-2.037l-8.063-4.177a2.86007,2.86007,0,0,0-3.857,1.226l-2.138,4.13a2.85379,2.85379,0,0,0,.727,3.527l-8.129,15.69a2.85562,2.85562,0,0,0-3.305,1.441l-2.137,4.132a2.86575,2.86575,0,0,0,1.223,3.858l8.062,4.175a2.871,2.871,0,0,0,2.185.191,2.83,2.83,0,0,0,1.049-.604,2.93174,2.93174,0,0,0,.113,1.203,2.89016,2.89016,0,0,0,1.415,1.673l8.951,4.64a2.86562,2.86562,0,0,0,1.315.32,2.81879,2.81879,0,0,0,.867-.137,2.858,2.858,0,0,0,1.674-1.407l2.141-4.135a2.855,2.855,0,0,0-1.225-3.854m27.195,16.009-1.872-1.359a2.8228,2.8228,0,0,0,1.561-1.078l5.462-7.532a2.85349,2.85349,0,0,0,.539-1.821l1.869,1.351a2.85663,2.85663,0,0,0,3.998-.636l4.1-5.653a2.859,2.859,0,0,0-.64-3.994l-16.542-11.992a2.86527,2.86527,0,0,0-4,.638l-2.732,3.767a2.84268,2.84268,0,0,0-.511,2.13,2.92714,2.92714,0,0,0,.704,1.472l-10.359,14.303a2.865,2.865,0,0,0-3.489.936l-2.722,3.766a2.86312,2.86312,0,0,0,.634,3.999l16.543,11.985a2.83048,2.83048,0,0,0,1.684.546,3.239,3.239,0,0,0,.448-.033,2.86088,2.86088,0,0,0,1.867-1.147l4.094-5.654a2.86409,2.86409,0,0,0-.636-3.994m42.13,3.984-16.33-15.771a2.85457,2.85457,0,0,0-1.991-.808h-.046a2.89863,2.89863,0,0,0-2.01.878l-4.85,5.015a2.86879,2.86879,0,0,0,.072,4.051l3.268,3.156a2.87332,2.87332,0,0,0,1.581.775l-10.989,11.374a2.86617,2.86617,0,0,0-3.582.439l-3.236,3.346a2.86281,2.86281,0,0,0,.073,4.046l6.531,6.311a2.866,2.866,0,0,0,1.99.804h.047a2.86964,2.86964,0,0,0,2.012-.873l3.232-3.349a2.85731,2.85731,0,0,0,.311-3.588l10.994-11.378a2.84747,2.84747,0,0,0,.828,1.553l3.267,3.159a2.77544,2.77544,0,0,0,2.034.803,2.832,2.832,0,0,0,2.008-.873l4.856-5.019a2.87722,2.87722,0,0,0-.07-4.051m-328.123-21.26,9.104,12.189-2.692,2.009-9.101-12.188Zm25.751-17.824a2.79739,2.79739,0,0,0,1.979.114l8.521,15.406-2.938,1.623-8.522-15.401a2.83033,2.83033,0,0,0,.96-1.742m251.219,29.21a2.8181,2.8181,0,0,0,1.041,1.426l1.87,1.359a2.78128,2.78128,0,0,0-1.206.672l-2.756-1.998Zm8.181-11.29,1.056-1.453,2.759,1.997a2.85273,2.85273,0,0,0-.266,1.357l-1.87-1.357a2.85384,2.85384,0,0,0-1.679-.544m-119.491-55.943a2.86356,2.86356,0,0,0-2.004-.963l-16.776-.851a2.8971,2.8971,0,0,0-2.065.735,2.87744,2.87744,0,0,0-.939,1.978l-.236,4.649a2.86633,2.86633,0,0,0,2.129,2.913l-.895,17.64a2.86559,2.86559,0,0,0-2.409,2.681l-.232,4.653a2.85768,2.85768,0,0,0,2.715,2.997l16.775.85a1.42339,1.42339,0,0,0,.147.005,2.85584,2.85584,0,0,0,1.945-.764l3.814-3.531a2.88835,2.88835,0,0,0,.913-1.956l.564-11.155a2.88652,2.88652,0,0,0-.292-1.415,2.82753,2.82753,0,0,0,.433-1.372l.564-11.154a2.861,2.861,0,0,0-.708-2.039Zm-9.646,9.041,3.357.169-.182,3.574-3.353-.166Zm-.705,13.941,3.354.169-.184,3.579-3.353-.172Z" fill="#babdb8"/><path d="M319.41073,139.75976a9.16069,9.16069,0,0,0-.079-16.927l-89.582-36.585a9.1598,9.1598,0,0,0-11.61,12.671,6.96936,6.96936,0,0,1-2.005-.893l-.485-.293c-3.981-2.271-5.509-7.712-5.984-9.949-1.366-6.468-5.536-26.166-27.289-26.72a60.00233,60.00233,0,0,0-21.579,3.44c-7.163.603-12.728,3.014-16.536,7.167a20.43751,20.43751,0,0,0-5.146,13.979,9.12484,9.12484,0,0,0-4.684.598l-89.589,36.585a9.15913,9.15913,0,0,0-.078,16.927l3.641,1.522a72.12136,72.12136,0,0,0,13.962,3.868l-12.932,7.164a9.15922,9.15922,0,0,0,2.621,16.989l4.351.877a76.30265,76.30265,0,0,0,12.387,1.22l-11.584,9.105a9.20555,9.20555,0,0,0-2.825,10.656,9.10573,9.10573,0,0,0,9.46,5.658l5.661-.613c.234-.025,3.777-.406,9.059-1.344l-6.396,6.956a9.1615,9.1615,0,0,0,6.733,15.358c.17,0,.334-.002.486-.012l3.98-.203a82.58292,82.58292,0,0,0,17.75-3.283,61.954,61.954,0,0,0,17.178-7.96,76.20343,76.20343,0,0,0,19.618,20.06l-6.757,20.34a9.1503,9.1503,0,0,0,8.69,12.046,9.32849,9.32849,0,0,0,2.501-.346l2.972-.845a50.58676,50.58676,0,0,0,6.603-2.485l-.918,7.456a9.16131,9.16131,0,0,0,13.459,9.167l2.79-1.513a54.35561,54.35561,0,0,0,14.64-12.397,54.22054,54.22054,0,0,0,14.644,12.397l2.793,1.513a9.1302,9.1302,0,0,0,3.787,1.087l.584.02h.63l.137-.031a9.1758,9.1758,0,0,0,8.4-9.127,8.81626,8.81626,0,0,0-.143-1.612l-.856-6.96a50.24613,50.24613,0,0,0,6.601,2.485l2.963.84a9.17493,9.17493,0,0,0,11.689-8.808,9.04334,9.04334,0,0,0-.64-3.353l-6.597-19.843a76.26779,76.26779,0,0,0,19.761-20.25,61.65975,61.65975,0,0,0,17.408,8.119,81.49885,81.49885,0,0,0,17.739,3.283l4.016.203c.16.01.312.012.481.012a9.16277,9.16277,0,0,0,6.437-15.66l-6.123-6.654c5.287.938,8.829,1.319,9.063,1.344l5.667.613c.387.038.717.047.962.048h.1a9.16224,9.16224,0,0,0,5.265-16.599l-11.286-8.868a75.89131,75.89131,0,0,0,12.387-1.22l4.355-.877a9.162,9.162,0,0,0,2.621-16.994l-12.932-7.159a72.48836,72.48836,0,0,0,13.955-3.865Z" fill="#babdb8"/><path d="M317.23,127.97846l-89.589-36.584a3.60018,3.60018,0,0,0-3.896,5.887,4.00362,4.00362,0,0,1,1.251,3.091,4.13171,4.13171,0,0,1-1.023,2.685,7.45046,7.45046,0,0,1-4.768,1.559,11.3613,11.3613,0,0,1-6.08-1.917c-.023-.013-.041-.028-.066-.04l-.073-.041a.73359.73359,0,0,0-.09-.053c-5.729-3.267-7.891-9.937-8.672-13.629-1.38-6.543-4.623-21.872-22.005-22.315a54.42,54.42,0,0,0-20.249,3.373c-6.084.39-10.66,2.216-13.609,5.431-2.652,2.896-3.883,6.747-3.662,11.446l.079,1.707a3.61429,3.61429,0,0,0,1.233,2.547,3.56587,3.56587,0,0,0,2.697.867l1.7-.156c.793-.076,1.617-.111,2.45-.111a22.80934,22.80934,0,0,1,5.768.683c-1.281,3.163-3.663,7.594-7.454,9.797a.41083.41083,0,0,1-.083.044l-.112.078a12.6498,12.6498,0,0,1-6.503,1.957,6.64107,6.64107,0,0,1-4.387-1.446c-2.245-1.955.559-5.785.668-5.928a3.6002,3.6002,0,0,0-4.224-5.516l-89.593,36.584a3.60059,3.60059,0,0,0-.027,6.652l3.65,1.529c.404.173,10.173,4.204,25.605,5.046,1.494.077,3.021.124,4.541.138l-28.576,15.832a3.59748,3.59748,0,0,0,1.026,6.673l4.353.883a74.941,74.941,0,0,0,13.807,1.137,94.99022,94.99022,0,0,0,15.064-1.214l-25.735,20.223a3.59822,3.59822,0,0,0,2.604,6.409l5.665-.613a161.468,161.468,0,0,0,19.451-3.565q3.37953-.834,6.503-1.762l-18.603,20.233a3.59562,3.59562,0,0,0,2.832,6.029l3.991-.204a76.179,76.179,0,0,0,16.43-3.051c8.242-2.475,15.149-6.194,20.274-10.88a70.74746,70.74746,0,0,0,24.742,26.015l-8.101,24.385a3.59368,3.59368,0,0,0,4.397,4.593l2.968-.845a51.64043,51.64043,0,0,0,11.337-5.067c1.281-.763,2.505-1.571,3.657-2.409l-2.267,18.476a3.59535,3.59535,0,0,0,5.283,3.599l2.791-1.509a49.056,49.056,0,0,0,17.295-17.185,49.12582,49.12582,0,0,0,17.294,17.185l2.787,1.509a3.6148,3.6148,0,0,0,1.718.438h.013a3.59915,3.59915,0,0,0,3.519-4.349l-2.229-18.164c1.155.838,2.373,1.646,3.659,2.409a51.31283,51.31283,0,0,0,11.333,5.067l2.972.845a3.77847,3.77847,0,0,0,1.015.137,3.59378,3.59378,0,0,0,3.288-5.022l-8.001-24.075a70.75381,70.75381,0,0,0,24.901-26.248c5.147,4.793,12.124,8.588,20.487,11.095a76.19225,76.19225,0,0,0,16.428,3.051l3.998.204c.065.003.133.008.204.008a3.60023,3.60023,0,0,0,2.454-6.225l-18.43195-20.04q3.12149.92551,6.5,1.761a162.0132,162.0132,0,0,0,19.45,3.561l5.668.613a4.07878,4.07878,0,0,0,.427.015,3.59211,3.59211,0,0,0,1.987-6.567l-25.539-20.08a94.90109,94.90109,0,0,0,15.06,1.214,74.80566,74.80566,0,0,0,13.802-1.137l4.354-.883a3.5979,3.5979,0,0,0,1.03-6.673l-28.576-15.832c1.516-.014,3.042-.061,4.541-.138,15.431-.842,25.2-4.873,25.605-5.046l3.648-1.529a3.60093,3.60093,0,0,0-.03-6.652" fill="#01000b"/><path d="M170.61972,81.65716c2.865-.43,5.223-2.284,7.732-4.156-4.148.042-9.276.988-11.67,2.167a3.41171,3.41171,0,0,0,3.938,1.989" fill="#fff"/><path d="M287.81234,137.61027c14.801-.808,24.023-4.611,24.411-4.771l3.649-1.528-89.59094-36.582a7.8122,7.8122,0,0,1,.052,11.049c-3.081,2.673-9.136,3.799-15.144-.047l-.073-.041c-6.955-3.963-9.504-11.732-10.411-16.01-1.409-6.669-4.034-19.091-18.581-19.458a50.84033,50.84033,0,0,0-19.41,3.333c-5.386.264-9.321,1.706-11.696,4.304-2.007,2.189-2.9,5.085-2.721,8.841l.082,1.713,1.698-.161c4.403-.406,9.926.136,13.054,2.185-.84,2.866-3.749,11.166-10.155,14.882l-.06.033c-4.413,2.824-11.062,3.81-15.193.199-4.859-4.235.169-10.822.169-10.822l-89.592,36.582,3.651,1.528c.385.16,9.608,3.963,24.41,4.771a101.41147,101.41147,0,0,0,20.275-.975l-42.762,23.685,4.351.883a70.79526,70.79526,0,0,0,13.094,1.068,89.03761,89.03761,0,0,0,30.873-5.467l-39.323,30.903,5.666-.611a157.25769,157.25769,0,0,0,18.97-3.48,101.29383,101.29383,0,0,0,20.325-7.053l-28.917,31.449,3.995-.197a73.01961,73.01961,0,0,0,15.582-2.91c9.806-2.942,17.413-7.63,22.211-13.65a66.68344,66.68344,0,0,0,28.166,30.612l-9.02,27.138,2.972-.847a48.416,48.416,0,0,0,10.473-4.694,37.03893,37.03893,0,0,0,10.29-8.797l-3.483,28.392,2.79-1.511c.693-.38,14.282-7.928,19.006-22.854,4.725,14.926,18.314,22.474,19.008,22.854l2.791,1.511-3.485-28.392a37.088,37.088,0,0,0,10.287,8.797,48.45774,48.45774,0,0,0,10.479,4.694l2.97.847-9.012-27.123a66.6108,66.6108,0,0,0,28.326-30.912c4.779,6.156,12.468,10.948,22.427,13.935a72.974,72.974,0,0,0,15.584,2.91l3.995.197-28.922-31.449a101.50705,101.50705,0,0,0,20.324,7.053,157.3962,157.3962,0,0,0,18.973,3.48l5.663.611-39.32-30.902a89.06347,89.06347,0,0,0,30.878,5.466,70.88776,70.88776,0,0,0,13.088-1.068l4.353-.883-42.759-23.685a102.36868,102.36868,0,0,0,14.981,1.116c1.867,0,3.634-.05,5.288-.141m-59.465-29.13a9.736,9.736,0,0,0,3.515-7.942l75.006,30.632c-10.605,3.035-40.594,8.741-74.9-10.047-5.379-4.994-11.771-7.223-17.249-5.96-3.59.828-8.488,3.566-11.456,11.901-.301.861-.571,1.74-.799,2.632a101.87675,101.87675,0,0,0-18.724-2.045v-11.189c2.612,2.564,7.15,5.343,14.761,5.82l2.324.051-3.822-12.022c3.04,2.24,9.484,3.652,15.697-.138,6.315,2.553,12.26,1.24,15.647-1.693m1.57,15.203c.028.03.052.063.078.089v.004l.005.006a61.806,61.806,0,0,1,15.321,35.563,36.54519,36.54519,0,0,0-5.861-9.891c-7.334-8.877-19.427-15.537-33.805-19.042.202-.759.435-1.515.695-2.25,1.954-5.498,5.099-8.886,9.104-9.812,4.407-1.014,9.908,1.03,14.463,5.333m-7.5,81.756a23.77461,23.77461,0,0,1-11.466,14.86,64.16974,64.16974,0,0,1-27.211,6.864v-96.236a97.85092,97.85092,0,0,1,18.085,1.97c-1.817,12.098,2.804,26.952,13.807,44.279,6.479,10.198,8.82,19.97,6.785,28.263m-69.678,14.782a23.75229,23.75229,0,0,1-11.341-14.782c-2.031-8.293.31-18.065,6.784-28.263,10.999-17.327,15.625-32.176,13.813-44.273a98.05221,98.05221,0,0,1,18.477-1.982v96.247a64.05905,64.05905,0,0,1-27.733-6.947m-95.435-89.051,75.014-30.632a9.07472,9.07472,0,0,0,3.127,7.638c3.927,3.406,11.697,4.736,19.204-.047,8.999-5.245,11.829-17.455,11.944-17.971l.207-.95-.73-.641c-3.456-3.019-9.455-3.888-14.496-3.689a7.62845,7.62845,0,0,1,1.856-4.813c1.807-1.971,5.066-3.062,9.687-3.253l.269-.01.252-.097a47.61724,47.61724,0,0,1,18.4-3.214c11.047.281,13.618,8.139,15.468,16.868,1.01,4.773,3.767,13.374,11.68,17.997-9.264,4.135-18.223-7.176-18.223-7.176l5.233,17.576a18.62874,18.62874,0,0,1-9.716-4.543c-4.346-3.916-6.008-10.343-6.008-10.343v23.78a101.61848,101.61848,0,0,0-19.121,2.055c-.228-.897-.494-1.78-.804-2.641-2.959-8.335-7.868-11.073-11.451-11.901-5.512-1.267-11.953.994-17.345,6.05l-.014-.009c-.032.037-.064.072-.096.108-.09.086-.178.17-.269.258-33.963,18.24-63.551,12.608-74.068,9.6m76.747-7.626c4.53-4.209,9.96-6.198,14.31-5.194,4,.926,7.15,4.314,9.104,9.812.265.739.492,1.495.694,2.262-14.564,3.561-26.801,10.361-34.184,19.447a36.0473,36.0473,0,0,0-5.433,9.112,61.77386,61.77386,0,0,1,15.003-34.86c.211-.116.421-.227.634-.347Zm-70.338,35.067,43.493-24.093a111.1893,111.1893,0,0,0,19.51-6.955,64.94673,64.94673,0,0,0-8.593,17.321c-21.381,14.638-44.579,14.588-54.41,13.727m10.45,24.379,41.147-32.334-.06-.069c.512-.301,1.019-.608,1.53-.921a64.47151,64.47151,0,0,0-1.776,15.039c0,1.137.027,2.275.091,3.401-10.527,8.917-30.84,13.229-40.932,14.884m12.817,21.086,28.559-31.058a63.63532,63.63532,0,0,0,1.278,6.908c.008.061.017.113.028.166l.012-.003a63.23232,63.23232,0,0,0,2.384,7.64c-7.866,11.511-24.449,15.214-32.261,16.347m33.032-24.861c-2.085-10.209.096-19.391,6.502-27.283,6.921-8.522,18.47-14.925,32.28-18.316,1.602,11.245-2.872,25.271-13.374,41.805-6.962,10.966-9.45,21.615-7.199,30.794a26.00492,26.00492,0,0,0,2.209,5.835,62.35571,62.35571,0,0,1-20.418-32.835m24.974,64.703,6.814-20.503a67.32539,67.32539,0,0,0,12.061,4.61c-4.095,8.931-13.874,13.87-18.875,15.893m19.171,12.899,3.424-27.878a67.46979,67.46979,0,0,0,12.571,1.495c-.982,13.856-10.981,22.759-15.995,26.383m19.484-26.377a67.61674,67.61674,0,0,0,12.569-1.492l3.422,27.877c-5.011-3.611-15.014-12.499-15.991-26.385m16.294-2.401a66.911,66.911,0,0,0,12.063-4.612l6.812,20.492c-4.995-2.011-14.771-6.94-18.875-15.88m23.434-15.96a26.11319,26.11319,0,0,0,2.225-5.864c2.252-9.179-.237-19.828-7.199-30.794-10.502-16.536-14.981-30.565-13.374-41.809,13.629,3.33,25.034,9.598,31.914,17.925,6.548,7.931,8.861,17.258,6.881,27.711a62.34743,62.34743,0,0,1-20.447,32.831m21.35-24.673a63.95248,63.95248,0,0,0,2.283-7.398h.005l.015-.079a64.535,64.535,0,0,0,1.318-7.24l28.855,31.391c-7.879-1.137-24.687-4.888-32.476-16.674m45.292-4.413c-10.191-1.674-30.823-6.048-41.256-15.168.05-1.036.078-2.072.078-3.12a64.63158,64.63158,0,0,0-1.844-15.291c.648.405,1.291.796,1.935,1.173l-.054.069Zm10.455-24.382c-9.903.868-33.353.915-54.843-14.02a65.1816,65.1816,0,0,0-8.669-17.263,111.26116,111.26116,0,0,0,20.02,7.19Z" fill="#fff"/><path d="M19.0935,105.11906l-3.246-3.331,1.628-1.59-14.613-24.741,3.25-3.171,24.368,15.235,1.625-1.581,3.246,3.333-6.507,6.338-3.241-3.335,1.624-1.586-4.062-2.54-4.879,4.756,2.439,4.126,1.625-1.585,3.247,3.332Zm-8.111-24.584,4.869,8.25,3.252-3.173Z" fill="#01000b"/><path d="M44.4544,82.00336l-5.138-.809-15.033-20.133.687-5.158,8.73-6.52,5.137.808,15.037,20.134-.687,5.162-2.545,1.901,1.39,1.861-3.636,2.716-1.394-1.862Zm-2.053-4.27,1.816-1.361-1.39-1.862,3.639-2.716,1.391,1.865,1.818-1.364-13.919-18.639-7.274,5.434Z" fill="#01000b"/><polygon points="47.898 39.738 55.847 35.345 58.094 39.417 56.111 40.517 67.368 60.875 75.316 56.479 64.058 36.12 62.07 37.222 59.819 33.148 67.768 28.753 70.018 32.825 68.032 33.92 79.742 55.094 78.363 60.114 68.826 65.387 63.846 63.884 52.137 42.715 50.146 43.813 47.898 39.738" fill="#01000b"/><polygon points="92.832 53.266 91.079 48.956 93.185 48.102 84.441 26.543 82.338 27.396 80.588 23.084 89.005 19.674 90.754 23.985 88.651 24.837 97.394 46.397 99.496 45.542 101.244 49.853 92.832 53.266" fill="#01000b"/><polygon points="111.588 46.007 110.365 41.521 112.558 40.922 106.434 18.475 104.245 19.07 103.024 14.584 111.783 12.195 113.009 16.683 110.816 17.279 116.938 39.727 125.699 37.336 125.088 35.093 129.465 33.896 131.305 40.632 111.588 46.007" fill="#01000b"/><path d="M138.3695,39.1208l-.623-4.609,2.253-.305,3.013-28.578,4.499-.608,10.488,26.76,2.243-.306.626,4.613-9.001,1.211-.621-4.609,2.251-.304-1.747-4.458-6.749.91-.507,4.765,2.255-.306.618,4.609Zm8.133-24.573-1.001,9.528,4.5-.607Z" fill="#01000b"/><path d="M180.26541,35.39338l.236-4.648,2.264.117,1.178-23.237-2.272-.112.239-4.65,16.779.847,3.442,3.903-.566,11.152-1.434,1.326,1.295,1.463-.568,11.155-3.812,3.53Zm7.042-4.304,9.065.456.47-9.293-9.068-.456Zm.698-13.941,9.073.457.472-9.289-9.075-.46Z" fill="#01000b"/><path d="M210.54449,37.54618l.896-4.563,2.232.437,12.06-26.086,4.458.875,1.302,28.711,2.226.439-.89,4.563-8.915-1.746.898-4.571,2.224.441-.215-4.785-6.688-1.313-2.004,4.347,2.228.438-.902,4.563Zm15.624-20.64-4.021,8.692,4.457.875Z" fill="#01000b"/><polygon points="243.775 37.803 248.07 39.274 247.318 41.477 255.911 44.417 258.922 35.61 249.473 32.376 247.24 27.68 250.853 17.112 255.49 14.765 265.803 18.295 268.035 22.99 266.98 26.074 262.686 24.603 263.44 22.406 254.848 19.461 251.833 28.268 261.289 31.501 263.516 36.199 259.906 46.763 255.266 49.111 244.953 45.583 242.723 40.886 243.775 37.803" fill="#01000b"/><polygon points="268.747 54.323 270.882 50.191 272.901 51.236 283.601 30.579 281.588 29.533 283.729 25.402 291.791 29.581 289.653 33.711 287.636 32.668 283.353 40.928 295.697 36.844 293.681 35.8 295.819 31.67 305.5 36.683 303.355 40.811 301.345 39.766 287.766 44.261 290.64 60.424 292.655 61.469 290.516 65.599 281.566 60.963 283.704 56.834 285.721 57.875 283.443 45.693 280.357 46.715 276.938 53.325 278.948 54.364 276.812 58.5 268.747 54.323" fill="#01000b"/><polygon points="298.848 70.916 301.578 67.149 303.417 68.486 317.068 49.645 315.234 48.31 317.956 44.541 334.507 56.533 330.411 62.187 326.732 59.522 328.096 57.636 320.744 52.311 315.28 59.843 318.962 62.506 320.325 60.623 324.003 63.287 318.542 70.825 314.868 68.159 316.227 66.277 312.553 63.613 307.091 71.144 314.446 76.477 315.807 74.592 319.485 77.253 315.397 82.908 298.848 70.916" fill="#01000b"/><polygon points="327.247 93.364 330.481 90.02 332.113 91.595 348.279 74.868 345.013 71.714 343.396 73.381 340.129 70.229 344.978 65.21 361.31 80.988 356.46 86.005 353.194 82.845 354.809 81.178 351.545 78.022 335.379 94.754 337.009 96.33 333.778 99.679 327.247 93.364" fill="#01000b"/></svg>