<?xml version="1.0" encoding="UTF-8" standalone="no"?>
<svg xmlns:rdf="http://www.w3.org/1999/02/22-rdf-syntax-ns#" xmlns="http://www.w3.org/2000/svg" height="234.1867" width="220.96714" version="1.1" xmlns:cc="http://creativecommons.org/ns#" xmlns:dc="http://purl.org/dc/elements/1.1/" viewBox="0 0 220.96714 234.1867"><defs><radialGradient id="radial-gradient" cx="46.16243" cy="187.55562" r="46.16152" gradientTransform="translate(231.04932 131.65425) rotate(87.00428)" gradientUnits="userSpaceOnUse"><stop offset="0.0618" stop-color="#f99d33"/><stop offset="0.48247" stop-color="#da7d2d"/><stop offset="0.92135" stop-color="#b65826"/></radialGradient><clipPath id="clip-path" transform="translate(2.85274)"><circle cx="46.16253" cy="187.55562" r="46.15928" transform="translate(-143.54931 223.85314) rotate(-87.00428)" fill="url(#radial-gradient)"/></clipPath></defs><title>FC Bayern Munich (basketball) logo</title><circle cx="46.16253" cy="187.55562" r="46.15928" transform="translate(-140.69656 223.85314) rotate(-87.00428)" fill="url(#radial-gradient)"/><g clip-path="url(#clip-path)"><path d="M65.6486,144.5393c-16.4346-.3413-30.5957,12.1694-37.3291,20.5263-13.9936,17.3789-16.5791,51.6602-12.2402,59.5518" transform="translate(2.85274)" fill="none" stroke="#231f20" stroke-miterlimit="3.8637" stroke-width="1.9463"/><path d="M6.9147,159.1467c6.1665.3247,12.3589,1.4267,21.7197,4.896,4.9102,1.8198,22.9424,10.9516,32.5884,20.6899,6.9932,7.0518,19.4082,22.3457,23.3946,31.5049" transform="translate(2.85274)" fill="none" stroke="#231f20" stroke-miterlimit="3.8637" stroke-width="1.9463"/><path d="M35.7697,141.3396c-4.4863,4.8266-3.3135,13.5722.5928,14.917,4.1299,1.4267,6.5635,2.268,9.7724,2.434,7.563.3975,11.043-2.1274,18.3482-1.7441,11.1245.5815,20.5781,2.0059,26.873,9.7451" transform="translate(2.85274)" fill="none" stroke="#231f20" stroke-miterlimit="3.8637" stroke-width="1.9463"/><path d="M-1.9344,193.2658s4.6035-13.1308,13.312-18.8125c5.3325-3.4785,7.543-4.1425,12.0903-2.4883,13.212,4.7911,14.461,38.5547,25.4043,49.8292,4.6431,4.7851,10.5201,8.7353,16.4937,9.0527" transform="translate(2.85274)" fill="none" stroke="#231f20" stroke-miterlimit="3.8637" stroke-width="1.9463"/></g><path d="M218.1144,218.5539c0,8.6338-6.5244,15.6328-14.5732,15.6328H24.8317c-8.0483,0-14.5727-6.999-14.5727-15.6328V212.84c0-8.6357,6.5244-15.6328,14.5727-15.6328H203.5412c8.0488,0,14.5732,6.9971,14.5732,15.6328Z" transform="translate(2.85274)" fill="#a6a8ab"/><path d="M34.7682,225.4377H25.1144V205.8674h9.7119c4.9996,0,7.0381,1.8174,7.0381,5.0879a3.98258,3.98258,0,0,1-2.414,3.8301,4.32977,4.32977,0,0,1,2.8745,4.3349C42.3249,223.1164,39.8259,225.4377,34.7682,225.4377Zm-.1147-15.2939H30.4587v3.0761h4.1948c1.293,0,1.7519-.6142,1.7519-1.5371C36.4054,210.8156,35.9748,210.1438,34.6535,210.1438Zm.23,7.2148H30.4587v3.8018h4.396a1.79541,1.79541,0,0,0,2.0102-1.9287A1.74816,1.74816,0,0,0,34.8835,217.3586Z" transform="translate(2.85274)" fill="#fff"/><path d="M56.5768,225.4377l-1.0923-3.4385H49.4504l-1.0909,3.4385H42.3844l7.2969-19.5703h5.6309l7.2973,19.5703Zm-2.8159-9.0312c-.7182-2.5166-1.0342-3.5782-1.2925-4.8926-.2588,1.3144-.5747,2.4043-1.2924,4.8926l-.3736,1.2861h3.332Z" transform="translate(2.85274)" fill="#fff"/><path d="M71.0304,225.7463a16.37474,16.37474,0,0,1-8.4755-2.376l2.7006-4.25a12.37727,12.37727,0,0,0,5.8897,1.9571c1.9829,0,2.6147-.336,2.6147-1.2588,0-.7266-.7187-1.1748-3.4184-1.7901-4.856-1.0918-7.1836-2.375-7.1836-6.29,0-3.6895,3.0747-6.1787,7.9302-6.1787a13.46541,13.46541,0,0,1,8.0156,2.2636l-2.7017,4.251a9.9081,9.9081,0,0,0-5.602-1.8457c-1.666,0-2.0684.502-2.0684,1.2022,0,.7265.7183,1.0625,3.3047,1.6484,5.0557,1.1758,7.2974,2.6856,7.2974,6.3477C79.3337,223.9016,75.8566,225.7463,71.0304,225.7463Z" transform="translate(2.85274)" fill="#fff"/><path d="M93.3532,225.4377l-4.1943-8.3301-2.0684,2.4307v5.8994h-5.689V205.8674h5.689v2.293c0,1.6474-.0293,3.4091-.0869,4.8379.8325-1.2881,2.5849-3.5518,3.8779-5.1436l1.6099-1.9873h6.7798l-6.062,6.9053,6.7514,12.665Z" transform="translate(2.85274)" fill="#fff"/><path d="M101.0534,225.4377V205.8674h15.3979v4.5566H106.568v2.5996h9.8833v4.503H106.568v3.3554h9.8833v4.5557Z" transform="translate(2.85274)" fill="#fff"/><path d="M129.1496,210.591v14.8467h-5.5723V210.591h-5.6328v-4.7236h16.8369v4.7236Z" transform="translate(2.85274)" fill="#fff"/><path d="M146.2443,225.4377H136.589V205.8674h9.7139c4.999,0,7.0381,1.8174,7.0381,5.0879a3.9861,3.9861,0,0,1-2.4131,3.8301,4.32882,4.32882,0,0,1,2.8711,4.3349C153.799,223.1164,151.3019,225.4377,146.2443,225.4377Zm-.1142-15.2939h-4.1944v3.0761h4.1944c1.2929,0,1.7509-.6142,1.7509-1.5371C147.881,210.8156,147.4504,210.1438,146.1301,210.1438Zm.2304,7.2148h-4.4248v3.8018h4.3955a1.79518,1.79518,0,0,0,2.0108-1.9287A1.74887,1.74887,0,0,0,146.3605,217.3586Z" transform="translate(2.85274)" fill="#fff"/><path d="M168.0529,225.4377l-1.0908-3.4385h-6.0342l-1.0937,3.4385h-5.9737l7.2969-19.5703h5.6318l7.2959,19.5703Zm-2.8154-9.0312c-.7188-2.5166-1.0352-3.5782-1.294-4.8926-.2568,1.3144-.5742,2.4043-1.2929,4.8926l-.3731,1.2861h3.3311Z" transform="translate(2.85274)" fill="#fff"/><path d="M175.5226,225.4377V205.8674h5.6309v14.8467h8.9053v4.7236Z" transform="translate(2.85274)" fill="#fff"/><path d="M191.756,225.4377V205.8674h5.6299v14.8467h8.9063v4.7236Z" transform="translate(2.85274)" fill="#fff"/><circle cx="117.03482" cy="100.3425" r="99.22727" fill="#003da6" stroke="#003da6" stroke-width="2.229"/><path d="M114.1828,100.343" transform="translate(2.85274)" fill="#003da6" stroke="#003da6" stroke-width="2.229"/><circle cx="117.00672" cy="100.23627" r="94.8738" fill="#fff" stroke="#fff" stroke-width="1.7832"/><path d="M114.1535,100.2365" transform="translate(2.85274)" fill="#fff" stroke="#fff" stroke-width="1.7832"/><circle cx="117.00352" cy="100.22822" r="91.0393" fill="#dd0031"/><path d="M114.1515,100.2287" transform="translate(2.85274)" fill="#dd0031"/><path d="M31.1593,80.3205l5.2793-14.7139,4.3233,1.5499-3.1983,8.913,4.4415,1.5928,3.1015-8.6455,4.3223,1.5508-3.1016,8.6445,7.9932,2.8682L52.2394,87.885Z" transform="translate(2.85274)" fill="#fff"/><path d="M63.342,50.5998c3.2441,3.461,3.789,7.0801,1.1015,11.335-3.041,4.8135-8.5361,7.7441-15.8496,3.125-7.3164-4.6182-6.832-11.1582-3.9941-15.6553,3.0742-4.8662,7.539-4.9854,10.4746-3.8018l-2.0752,5.3497c-1.0576-.4454-3.2217-1.1416-4.7002,1.1972-.8897,1.4102-1.3535,4.207,3.5947,7.3301,3.1114,1.9639,6.6006,3.2744,8.4815.2959,1.3437-2.1289-.1045-3.8994-1.1035-5.0869Z" transform="translate(2.85274)" fill="#fff"/><path d="M67.2775,28.8381l8.2637-4.625c1.7012-.9522,6.916-3.8711,9.6514,1.0156a4.77212,4.77212,0,0,1-1.0772,6.5137l.0772.1377a5.04385,5.04385,0,0,1,6.8183,2.457c2.9346,5.2422-2.6933,8.3926-4.7236,9.5283L78.216,48.384ZM79.509,32.0139c1.3447-.753,1.8203-1.7744,1.082-3.0928-.8447-1.5098-1.7188-1.5244-3.2012-.6963L74.589,29.7922l2.1202,3.7891Zm4.8466,7.8857a2.36544,2.36544,0,0,0,1.0948-3.3887c-.9366-1.6748-2.0889-1.6074-3.6807-.7158L78.8605,37.424l2.3653,4.2276Z" transform="translate(2.85274)" fill="#fff"/><path d="M118.7599,36.9475l-6.4365.7422-1.8721-4.4073-8.2822.9551-.9424,4.7334-6.1259.708,5.5888-23.1963,7.7197-.8906Zm-10.1884-7.8819-2.2901-5.0254a24.5382,24.5382,0,0,1-1.3144-3.4277l-.125.0156a27.02259,27.02259,0,0,1-.5625,3.6436l-1.1475,5.4209Z" transform="translate(2.85274)" fill="#fff"/><path d="M126.1183,30.2658l-5.8095-15.2031,6.957,1.1162,2.085,6.2598a15.9087,15.9087,0,0,1,.7089,3.331l.1524.0244a26.623,26.623,0,0,1,1.875-3.1386l3.6885-5.1114,6.706,1.0772L132.2062,31.2434l-1.3154,8.1992-6.0869-.9776Z" transform="translate(2.85274)" fill="#fff"/><path d="M147.9738,21.0236l13.7842,7.2413-2.1358,4.0664-8.4384-4.4336-1.9307,3.6757,7.9365,4.17-2.1357,4.0654-7.9346-4.1689-2.0801,3.955,8.7461,4.5928-2.1377,4.0654-14.0898-7.4023Z" transform="translate(2.85274)" fill="#fff"/><path d="M171.422,35.1438l6.9444,7.5468c1.1513,1.2491,5.0508,5.4825.376,9.7871-2.0606,1.8975-4.3614,2.6485-7.0049,1.4483l-3.9248,10.3681-4.6016-4.998,3.8027-8.5488-1.5771-1.7129-6.3184,5.8183-4.1748-4.538Zm-2.7607,10.7519,2.1318,2.3135c.5323.5791,1.8301,1.9912,3.7071.2646.9482-.873,1.2871-2.0839-.0752-3.5664l-2.1524-2.3359Z" transform="translate(2.85274)" fill="#fff"/><path d="M190.6779,60.4963l2.3721,7.334-8.6963,8.5957a30.323,30.323,0,0,1-3.9795,3.3369l.0859.2686A29.35531,29.35531,0,0,1,184.8927,78.3l10.4493-3.374,1.7597,5.4492-21.3164,6.8857-2.3779-7.3642,9.0674-8.9795a18.61466,18.61466,0,0,1,3.6367-2.8633l-.0674-.209c-1.0869.417-1.9873.8076-3.2431,1.2149l-11.6758,3.7724-1.7617-5.4502Z" transform="translate(2.85274)" fill="#fff"/><circle cx="117.00352" cy="100.22822" r="56.9387" fill="#fff" stroke="#fff" stroke-width="0"/><circle cx="116.99132" cy="100.22332" r="53.0095" fill="#fff" stroke="#fff" stroke-width="0"/><circle cx="116.9918" cy="100.2219" r="52.48025" fill="#fff" stroke="#fff" stroke-width="0"/><polygon points="132.676 72.38 130.609 96.82 142.212 116.718 144.279 92.28 132.676 72.38" fill="#003da6"/><polygon points="118.977 76.894 116.911 101.333 128.513 121.233 130.58 96.793 118.977 76.894" fill="#003da6"/><polygon points="146.4 67.91 144.335 92.349 155.938 112.249 158.003 87.81 146.4 67.91" fill="#003da6"/><path d="M155.2043,87.8791l10.915,18.7158a52.242,52.242,0,0,0-9.3769-36.9131Z" transform="translate(2.85274)" fill="#003da6"/><path d="M153.1066,112.3127l-2.0674,24.459-11.6298-19.9453-2.0684,24.4599-11.6572-19.9902-2.0674,24.46-11.6817-20.0323,2.0684-24.4609L102.3742,81.3215,104.4445,56.84l11.6318,19.9454,2.0664-24.459L129.8,72.3166l1.8252-21.6006A52.50687,52.50687,0,0,0,67.0793,76.717l7.8174,13.4063,2.0683-24.46L88.5978,85.6106l2.0635-24.4004L102.341,81.2424l-2.0693,24.4814L88.6388,85.7746l-2.0625,24.4033L74.9465,90.2297l-2.0674,24.4404,11.6006,19.8975,2.0615-24.375L98.173,130.1389l2.0674-24.461,11.6816,20.0332-2.0693,24.4805L98.2218,130.2453l-1.6455,19.4375a52.50451,52.50451,0,0,0,63.8135-24.8808Z" transform="translate(2.85274)" fill="#003da6"/><path d="M134.0871,51.6613l9.4375,16.1856.8838-10.4658A52.378,52.378,0,0,0,134.0871,51.6613Z" transform="translate(2.85274)" fill="#003da6"/><path d="M92.1857,147.9025l-7.6865-13.1826-.7061,8.3487A52.12905,52.12905,0,0,0,92.1857,147.9025Z" transform="translate(2.85274)" fill="#003da6"/><path d="M72.8254,114.5998,61.7511,95.6106c-.1289,1.5068-.2089,3.0273-.2089,4.5664a52.237,52.237,0,0,0,9.9082,30.6757Z" transform="translate(2.85274)" fill="#003da6"/><path d="M53.0588,118.2658l4.291,8.2266-8.4414,8.1621a33.69029,33.69029,0,0,1-2.7891,2.2725l.1006.1953a31.13,31.13,0,0,1,3.8105-.9961l11.3057-1.9942,4.1748,8.0049L45.6545,152.4953l-2.7344-5.2451,11.4336-5.9619c1.4785-.7734,3.6963-1.8233,4.5361-2.1191l-.1748-.335c-.8535.2685-3.5713.9072-5.2265,1.2012l-13.0557,2.4463-2.0957-4.0147,10.334-10.251c1.0097-.9883,2.4384-2.1943,3.0761-2.7392l-.1455-.2774c-.7236.4473-3.2304,1.9668-4.8466,2.8106l-10.9053,5.6875-2.6475-5.0762Z" transform="translate(2.85274)" fill="#fff"/><path d="M87.6115,158.3977l7.3525,2.3007,1.9971,12.0586a30.09079,30.09079,0,0,1,.4219,5.1748l.2715.0831a29.56612,29.56612,0,0,1,1.1484-4.6143l3.2764-10.4766,5.4629,1.708-6.6836,21.3721-7.3858-2.3086-2.0937-12.5849a18.56,18.56,0,0,1-.2354-4.6211l-.2099-.0664c-.2881,1.1298-.4893,2.0898-.8828,3.3476l-3.6622,11.707-5.4619-1.7089Z" transform="translate(2.85274)" fill="#fff"/><path d="M131.5265,177.2024c-.1103,4.7431-2.2568,7.7031-7.1572,8.8544-5.541,1.3038-11.5117-.458-13.4922-8.8759-1.9804-8.42,2.9483-12.7461,8.1211-13.9639,5.6026-1.3164,8.8711,1.7285,10.1358,4.6289l-5.2295,2.3613c-.4424-1.0615-1.4961-3.0761-4.1914-2.4384-1.6221.3798-3.9121,2.0498-2.5733,7.7451.8428,3.582,2.4121,6.9609,5.8438,6.1543,2.4492-.5772,2.6562-2.8545,2.7773-4.4014Z" transform="translate(2.85274)" fill="#fff"/><path d="M130.9347,162.3098l5.4366-2.9121,3.9492,7.3759,6.5185-3.4892-3.9502-7.376,5.4356-2.9111,10.5732,19.747-5.4384,2.9092-4.4551-8.3193-6.5147,3.4892,4.4541,8.3184-5.4355,2.9111Z" transform="translate(2.85274)" fill="#fff"/><path d="M152.2453,150.9143l11.4297-10.5762,3.1152,3.3721-6.9941,6.4726,2.8213,3.0479,6.5791-6.0879,3.1201,3.3701-6.5811,6.0898,3.0322,3.2764,7.252-6.707,3.1182,3.3721-11.6827,10.8105Z" transform="translate(2.85274)" fill="#fff"/><path d="M166.3,136.8098l3.6777-6.7705,12.2168.373a29.96811,29.96811,0,0,1,5.1602.583l.1357-.249a29.4607,29.4607,0,0,1-4.3096-2.0186l-9.6445-5.2402,2.7314-5.0293,19.6788,10.6904-3.6934,6.7979-12.7539-.376a18.64236,18.64236,0,0,1-4.5791-.6631l-.1045.1944c1.0537.5,1.9541.8818,3.1162,1.5136l10.7793,5.8536-2.7334,5.0322Z" transform="translate(2.85274)" fill="#fff"/><path d="M68.0676,144.757l4.8691,3.7872-8.6484,11.1269c-1.4483,1.8633-1.9112,3.8945.1259,5.4766,2.1866,1.7011,4.0723.6562,5.4629-1.1328l8.6485-11.127,4.6699,3.6289-8.6494,11.1279c-3.4366,4.4229-8.1075,4.8965-12.9522,1.1309-4.0732-3.166-6.249-7.6475-2.1758-12.8877Z" transform="translate(2.85274)" fill="#fff"/><polygon points="80.234 151.886 74.707 155.717 77.099 149.452 80.234 151.886" fill="#fff"/></svg>