<?xml version="1.0" encoding="UTF-8" standalone="no"?>
<svg xmlns:rdf="http://www.w3.org/1999/02/22-rdf-syntax-ns#" xmlns="http://www.w3.org/2000/svg" height="191.92837" width="129.71591" version="1.1" xmlns:cc="http://creativecommons.org/ns#" xmlns:dc="http://purl.org/dc/elements/1.1/" viewBox="0 0 129.71591 191.92837"><path d="M79.50652,1.52194l.48739.3231C85.3382,5.383,89.64034,6.03035,96.18805,6.03035a22.28013,22.28013,0,0,0,7.1573-1.25248l.62127-.21495,3.10459,4.35-.31936.42666C95.21831,24.6638,104.212,41.20847,110.57752,47.81274l.58881.61129-.60047.59963c-.83494.83289-2.2804,2.3366-3.35405,3.46347l-.36347.38255.02325.52647.00589.18293c.00578.134.00995.27278.03737.514l.01.09563c.539,10.2212-2.1099,18.61685-7.8725,24.95166C92.9288,85.87182,83.26985,89.92453,71.856,90.55158l-.43995.025-.326.29773c-2.90668,2.64548-5.85653,4.84276-5.88813,4.86686l-.51447.3834-.51438-.3817c-.1222-.09146-3.03552-2.25876-5.90439-4.86856l-.32557-.29773-.44038-.025c-11.41415-.627-21.0731-4.67976-27.197-11.41125-5.76387-6.33728-8.41234-14.73293-7.87088-24.95412l.00751-.09649c.02656-.2262.03158-.351.03737-.49318l.00086-.03824.00042-.00417.00537-.158.02291-.52732-.36305-.3817c-1.0125-1.06368-2.49833-2.61057-3.3537-3.46347l-.6-.59963.58847-.61129c6.3664-6.60427,15.35828-23.14894,3.826-38.47315l-.321-.42666,3.10664-4.35.62049.21495a22.25346,22.25346,0,0,0,7.15722,1.25248c6.54729,0,10.84952-.6474,16.19381-4.18531l.48815-.3231.48031.33264A24.281,24.281,0,0,0,64.67966,6.65076a24.28131,24.28131,0,0,0,14.3462-4.79618l.48066-.33264" fill="#deb500"/><path d="M29.56141,39.36224c3.6131-8.28545,4.95875-18.92658-1.11819-29.32738a27.10529,27.10529,0,0,0,4.72711.43663c6.21924,0,11.11608-.56557,16.61587-3.67391a28.19869,28.19869,0,0,0,14.88223,4.29474,28.21531,28.21531,0,0,0,14.903-4.29474c5.50065,3.10834,10.39748,3.67391,16.61664,3.67391a25.09557,25.09557,0,0,0,4.74218-.46244c-6.09115,10.42576-4.74712,21.06774-1.13359,29.35319H29.56141" fill="#fff"/><path d="M99.79664,39.36224c-3.61353-8.28545-4.95756-18.92743,1.13359-29.35319a25.09557,25.09557,0,0,1-4.74218.46244c-6.21916,0-11.116-.56557-16.61664-3.67391a28.21531,28.21531,0,0,1-14.903,4.29474c-.05494,0-.10859-.0029-.16386-.00332V39.36224Z" fill="#ffd200"/><path d="M92.06219,79.4039c6.92106-5.059,11.00877-13.1369,10.40829-24.92159-.06992-.67031-.11982-.7094-.173-1.38388H92.06219Z" fill="#002596"/><path d="M81.10834,84.47541A33.02983,33.02983,0,0,0,92.0638,79.40229V53.09843H81.10834Z" fill="#8b2346"/><path d="M37.29415,79.40229A33.04174,33.04174,0,0,0,48.251,84.47541v-31.377H37.29415Z" fill="#8b2346"/><path d="M26.88841,54.48231C26.28793,66.267,30.37556,74.34577,37.29713,79.40476V53.09843H27.06053C27.0073,53.77291,26.95825,53.812,26.88841,54.48231Z" fill="#002596"/><path d="M64.70623,58.9151a10.26058,10.26058,0,0,1,5.45159,1.56853v-7.3852H59.2015v7.41841A10.26038,10.26038,0,0,1,64.70623,58.9151Z" fill="#8b2346"/><path d="M64.70623,79.55864a10.25308,10.25308,0,0,1-5.50473-1.60182v8.17032c.19375.01.385.02325.57919.03321,3.63942.01831,6.939.03832,9.79743,0,.19459-.01.386-.02325.5797-.03321v-8.137A10.26137,10.26137,0,0,1,64.70623,79.55864Z" fill="#8b2346"/><path d="M70.15535,53.09843v7.38349a10.30166,10.30166,0,0,1,0,17.50905v8.13617a52.372,52.372,0,0,0,10.95631-1.65173v-31.377Z" fill="#002596"/><path d="M54.38574,69.23764a10.30756,10.30756,0,0,1,4.81867-8.72327V53.09843H48.24766v31.377a52.3702,52.3702,0,0,0,10.95675,1.65173V77.95853A10.30457,10.30457,0,0,1,54.38574,69.23764Z" fill="#002596"/><path d="M32.02933,19.32369A30.59079,30.59079,0,0,1,32.31667,29.776h10.642v9.58622H53.411V29.776H64.54783V19.32369H53.411V8.6921A32.19532,32.19532,0,0,1,49.7862,6.79758a26.44625,26.44625,0,0,1-6.82755,2.732v9.7941Z" fill="#cc092f"/><path d="M87.0423,39.36224V9.676a25.52484,25.52484,0,0,1-3.75585-1.12235V39.36224Z" fill="#cc092f"/><path d="M72.01742,39.36224V10.10094a27.006,27.006,0,0,1-3.75583.75642V39.36224Z" fill="#cc092f"/><path d="M94.55472,39.36224V10.454c-1.2983-.02461-2.54575-.08491-3.75583-.19962V39.36224Z" fill="#cc092f"/><path d="M79.52986,39.36224V6.82125A31.96858,31.96858,0,0,1,75.774,8.76781V39.36224Z" fill="#cc092f"/><path d="M112.90364,48.41781l-1.43294-1.48787c-6.11355-6.34264-14.75865-22.21044-3.72918-36.86936l.86576-1.15182-4.17-5.84283-1.49528.51643a20.98749,20.98749,0,0,1-6.754,1.18469c-6.2998,0-10.42822-.61462-15.50969-3.97947L79.48991,0l-1.171.8133A23.10276,23.10276,0,0,1,64.67966,5.38789,23.10313,23.10313,0,0,1,51.03954.8133L49.869,0,48.68011.78758c-5.081,3.36485-9.20946,3.97947-15.50978,3.97947a20.97884,20.97884,0,0,1-6.75345-1.18469L24.9215,3.06593l-4.17159,5.842.86618,1.15268C32.64641,24.7195,24.0009,40.5873,17.88853,46.92994l-1.43336,1.48787,1.46206,1.45875c.78554.78426,2.1794,2.23049,3.33122,3.443-.00332.06822-.00452.12809-.00707.188-.00452.12561-.00749.23121-.0316.43415l-.01166.13643c-.56344,10.57207,2.1931,19.278,8.19066,25.87218C35.74684,86.94052,45.684,91.12046,57.435,91.76582c2.91128,2.65137,5.867,4.84941,5.99969,4.94837l1.25581.9315,1.25325-.93482c.1314-.09811,3.07139-2.29539,5.97968-4.945,11.75147-.64536,21.68814-4.8253,28.04542-11.81551,5.99876-6.59422,8.75412-15.29841,8.19186-25.87218l-.01243-.13643a4.07911,4.07911,0,0,1-.03082-.43662c-.00248-.0574-.005-.11727-.0075-.18549,1.15275-1.21254,2.54746-2.65962,3.33172-3.443Zm-6.961,4.13089c.1073,1.062.045,1.02042.11813,1.64168,1.25494,23.56435-15.16122,34.69125-35.00057,35.5129-3.03229,2.83267-6.37271,5.32265-6.37271,5.32265s-3.35658-2.49-6.38921-5.32265c-19.83936-.82165-36.25595-11.94855-35.001-35.5129.07358-.62126.01125-.5797.11889-1.64168-1.13726-1.20258-3.01977-3.16744-4.014-4.15916,7.11609-7.38392,15.419-24.27716,3.89422-39.593l2.43386-3.22774a23.04628,23.04628,0,0,0,7.44,1.30077c6.60886,0,11.12187-.65541,16.67072-4.32966A25.31,25.31,0,0,0,64.67966,7.4908,25.311,25.311,0,0,0,79.5182,2.53988c5.548,3.67425,10.0598,4.32966,16.66985,4.32966a23.05358,23.05358,0,0,0,7.44-1.30077l2.43353,3.22774c-11.52521,15.31587-3.22187,32.20911,3.89549,39.593C108.96241,49.38126,107.07956,51.34612,105.94264,52.5487Z"/><path d="M26.74662,53.07347c-.02827.36007-.05612.53227-.08568.72516-.02623.16471-.05365.34355-.08729.66784-.462,9.0618,1.80178,16.39547,6.7269,21.79877,5.6495,6.19591,14.80191,9.72547,26.479,10.20953l.44412.00162c1.94315.01166,3.7865.02,5.51469.02,1.35485,0,2.63894-.005,3.85233-.02248C81.25636,85.99071,90.408,82.46115,96.0575,76.26524c4.926-5.40415,7.18975-12.737,6.7257-21.81452-.0316-.30854-.06-.48738-.08568-.65209-.03-.19289-.0574-.36509-.08567-.72516l-.02333-.29108H26.769Zm.45528,1.44129c.03083-.29279.057-.46243.08158-.61964.0224-.14469.0436-.27942.06481-.48066h74.66146c.02155.203.04318.336.06481.48236.02495.15551.05161.32515.08151.6021.45246,8.88636-1.75563,16.06606-6.56347,21.34051C90.0579,81.909,81.05844,85.36868,69.57318,85.84431c-2.73951.03747-5.8849.02163-9.34624.00341l-.43288-.00341C48.3,85.36868,39.29973,81.909,33.7663,75.84028,28.95837,70.56668,26.75036,63.38528,27.2019,54.51476Z"/><path d="M29.27279,39.23543l-.19255.44072h71.19715l-.19214-.44072c-3.09216-7.09249-5.41079-17.89373,1.11776-29.06755l.34926-.59878-.68114.13141a24.87054,24.87054,0,0,1-4.68308.45494c-6.35473,0-11.0844-.59469-16.46028-3.63278l-.16138-.091-.158.09606a27.82749,27.82749,0,0,1-14.73913,4.24858A27.80034,27.80034,0,0,1,49.9492,6.5277l-.15763-.09606-.16045.091c-5.37588,3.03809-10.10682,3.63278-16.46079,3.63278A26.89728,26.89728,0,0,1,28.49849,9.725l-.67074-.11932.34389.588C34.68648,21.34587,32.36614,32.14294,29.27279,39.23543Zm35.589-27.8292A28.4125,28.4125,0,0,0,79.57806,7.16182c5.4291,3.02769,10.21284,3.624,16.61,3.624a25.41325,25.41325,0,0,0,4.13506-.34763C94.207,21.39953,96.31784,31.9434,99.31846,39.04663H64.86175ZM29.04617,10.454a26.92087,26.92087,0,0,0,4.12416.33179c6.39638,0,11.18055-.59631,16.61042-3.624a28.40194,28.40194,0,0,0,14.45061,4.24109V39.04663H30.03959C33.04106,31.94255,35.156,21.3991,29.04617,10.454Z"/><polygon points="55.694 43.459 55.694 41.379 48.646 41.379 48.646 51.144 50.766 51.144 50.766 47.117 53.646 47.117 53.646 45.052 50.766 45.052 50.766 43.459 55.694 43.459"/><path d="M63.94735,43.33387a1.72014,1.72014,0,0,1,1.65547.98133l.04488.08857,1.96189-.904-.04573-.09521a3.73614,3.73614,0,0,0-3.58951-2.1765c-2.56109,0-4.34959,2.07005-4.34959,5.03285,0,3.05716,1.68042,5.032,4.28061,5.032a3.74169,3.74169,0,0,0,3.63021-2.21559l.04241-.08567-1.78228-1.05619-.05322.08815a1.89611,1.89611,0,0,1-1.78143,1.16519c-1.29362,0-2.1627-1.17771-2.1627-2.92788C61.79836,44.45614,62.62214,43.33387,63.94735,43.33387Z"/><path d="M80.31156,44.00827c0-1.64584-1.1726-2.62964-3.13448-2.62964H72.69021V51.144h4.44445c2.19387,0,3.50461-1.19261,3.50461-3.1895a2.29251,2.29251,0,0,0-1.23333-2.10283A2.224,2.224,0,0,0,80.31156,44.00827Zm-5.5422-.66111h2.32536c.94811,0,1.06956.4345,1.06956.81126,0,.53686-.3186.7972-.97392.7972h-2.421Zm2.43514,5.77256H74.76936V46.85636H77.2045c.85912,0,1.26083.35845,1.26083,1.12687C78.46533,48.72636,78.02871,49.11972,77.2045,49.11972Z"/><path d="M64.63929,79.72829a10.54716,10.54716,0,1,0-10.54677-10.5472A10.55926,10.55926,0,0,0,64.63929,79.72829Zm0-.6337a9.876,9.876,0,0,1-5.53181-1.68749A15.70171,15.70171,0,0,0,65.70927,75.748c1.67328-.99717,3.44968-2.24139,3.77406-3.90385a2.62714,2.62714,0,0,1,3.83733,2.12574A9.91362,9.91362,0,0,1,64.63929,79.09459Zm-4.88849-7.643a4.11624,4.11624,0,0,0,1.76644.627,3.39381,3.39381,0,0,0,3.41152-2.74283,2.3758,2.3758,0,0,1,3.79279.92648c.86823,2.0766-.96063,3.57614-3.315,4.98167a15.71842,15.71842,0,0,1-7.06746,1.59015,9.9565,9.9565,0,0,1-2.61644-3.31921c.07945.00418.15883.00665.2399.00665A4.24718,4.24718,0,0,0,59.7508,71.45161ZM58.17309,66.445A22.308,22.308,0,0,1,59.13,60.941a9.81746,9.81746,0,0,1,4.64356-1.63341,2.74682,2.74682,0,0,0,.27193,4.01694,2.92035,2.92035,0,0,0-.74058.81083,3.81364,3.81364,0,0,0,1.03132,5.19295,2.83341,2.83341,0,0,1-2.74368,2.16483C59.295,71.19876,58.20971,69.06638,58.17309,66.445Zm11.361,4.74049a3.3662,3.3662,0,0,0-.26869-1.15276,2.95838,2.95838,0,0,0-4.627-1.21416,3.22068,3.22068,0,0,1-.83451-4.3679c1.15183-1.82639,3.77159-1.09868,6.16508.23863a10.22922,10.22922,0,0,1,4.54086,5.40338,9.82665,9.82665,0,0,1-.77012,3.02386A3.20635,3.20635,0,0,0,69.53409,71.18548Zm.72269-7.011c-1.73153-.96634-4.00366-1.85126-5.64286-1.16928a2.18612,2.18612,0,0,1,.11105-3.73582,9.91089,9.91089,0,0,1,9.80824,9.31208A11.51763,11.51763,0,0,0,70.25678,64.17448ZM58.389,61.48743c-.18463.72934-.36262,1.36644-.50527,2.01512-.50978,2.33609-.504,5.85321,1.396,7.58473a3.65418,3.65418,0,0,1-3.31716,1.84385,3.88732,3.88732,0,0,1-.51515-.03415A9.92235,9.92235,0,0,1,58.389,61.48743Z"/><path d="M0,118.73028H11.20014c7.42224,0,10.01672,3.36911,10.01672,8.46863a7.80843,7.80843,0,0,1-3.59673,6.82879v.09175a7.93272,7.93272,0,0,1,4.052,6.69174c0,5.55478-3.04973,8.87859-10.062,8.87859H0Zm6.01,5.32716v7.32933h6.7382a4.09512,4.09512,0,0,0,2.41331-3.77906c0-1.9116-1.04755-3.55027-3.73377-3.55027Zm0,12.56589v7.7393h5.7824a3.55151,3.55151,0,0,0,3.82436-3.86965,4.29923,4.29923,0,0,0-2.73152-3.86965Z" fill="#1c1c1b"/><path d="M24.4308,146.23009l7.60342-27.49981H42.05094l7.60341,27.49981v3.45969H44.09957l-1.684-6.51058a27.88209,27.88209,0,0,1-5.50948.54584,29.79169,29.79169,0,0,1-5.37245-.50054l-1.684,6.46528H24.4308Zm8.46863-8.1957a23.01019,23.01019,0,0,0,4.00669.36466,20.99631,20.99631,0,0,0,4.14372-.41l-1.82217-6.87524c-.72817-2.86856-1.63867-6.87524-1.63867-6.87524H36.36028s-.91051,4.00668-1.68513,6.87524Z" fill="#1c1c1b"/><path d="M54.2679,118.73028H65.96859c6.7382,0,10.42667,3.18677,10.42667,9.1968a9.99278,9.99278,0,0,1-6.37469,9.28739,50.29011,50.29011,0,0,0,6.23765,8.74154v3.73377H71.52336c-3.86964-4.23431-7.831-11.83773-7.831-11.83773H60.46026v11.83773H54.2679ZM67.33434,132.252A4.04936,4.04936,0,0,0,70.2029,128.2c0-2.45859-1.5028-3.86965-4.00669-3.86965H60.46026V132.252Z" fill="#1c1c1b"/><path d="M80.30853,130.29393c0-8.19454,4.052-11.883,11.47306-11.883,6.3747,0,9.28855,3.46085,9.28855,3.46085v4.82544H96.01591s-.36467-2.7768-4.189-2.7768c-4.052,0-5.326,2.00334-5.326,6.23765v8.104c0,4.23431,1.274,6.23766,5.326,6.23766,3.82435,0,4.189-2.778,4.189-2.778h5.05423v4.8266a11.5154,11.5154,0,0,1-6.967,3.27852,10.61977,10.61977,0,0,1-2.50389,6.87408h-4.052v-3.04973a4.987,4.987,0,0,0,1.63984-3.82435c-5.7824-.81992-8.87859-4.50723-8.87859-11.70185Z" fill="#1c1c1b"/><path d="M104.49237,146.23009l7.60341-27.49981H122.1125l7.60341,27.49981v3.45969h-5.55478l-1.684-6.51058a27.88209,27.88209,0,0,1-5.50948.54584,29.79149,29.79149,0,0,1-5.37244-.50054l-1.684,6.46528h-5.4189Zm8.46862-8.1957a23.01019,23.01019,0,0,0,4.00669.36466,20.99648,20.99648,0,0,0,4.14373-.41l-1.82217-6.87524c-.72818-2.86856-1.63868-6.87524-1.63868-6.87524h-1.22872s-.9105,4.00668-1.68513,6.87524Z" fill="#1c1c1b"/><path d="M8.04314,160.60362h2.14038v29.002H23.93284l-.36466,1.95805H8.04314Z" fill="#1c1c1b"/><path d="M27.47266,190.1062l8.92388-29.50258h4.50724L49.873,190.1062v1.4575h-1.9116l-2.68622-8.92388a27.17255,27.17255,0,0,1-6.69291.77463,26.95565,26.95565,0,0,1-6.60232-.77463l-2.63977,8.92388H27.47266Zm5.14482-9.46972a23.79694,23.79694,0,0,0,5.96474.72933,22.90338,22.90338,0,0,0,6.10062-.77462l-3.45969-11.47307c-.91051-2.91384-1.86747-6.55645-1.86747-6.55645H37.94463s-1.00109,3.64261-1.91159,6.55645Z" fill="#1c1c1b"/><path d="M54.37553,188.46752h1.63868s1.77572,1.5028,6.87524,1.5028c5.23541,0,7.694-2.54919,7.694-6.46529,0-3.86964-2.368-5.28185-5.91828-6.42L61.432,176.03866c-5.09953-1.68513-6.60116-4.37135-6.60116-7.96808,0-4.96307,3.59672-7.83162,9.378-7.83162,5.19127,0,7.831,1.821,7.831,1.821v1.77572H70.40112s-1.8663-1.63868-6.19236-1.63868c-4.68841,0-7.19346,2.23155-7.19346,5.82828,0,3.14147,1.59455,4.8266,5.14482,5.96473l3.23322,1.04639c5.19011,1.73042,7.284,3.9161,7.37579,8.33158.09059,5.50949-3.87081,8.56038-9.83438,8.56038-5.73711,0-8.55922-1.73043-8.55922-1.73043Z" fill="#1c1c1b"/><path d="M77.08822,188.46752H78.7269s1.77572,1.5028,6.87524,1.5028c5.23541,0,7.694-2.54919,7.694-6.46529,0-3.86964-2.36685-5.28185-5.91828-6.42l-3.23206-1.04638c-5.09953-1.68513-6.60232-4.37135-6.60232-7.96808,0-4.96307,3.59672-7.83162,9.37913-7.83162,5.19011,0,7.831,1.821,7.831,1.821v1.77572H93.115s-1.86746-1.63868-6.19236-1.63868c-4.68957,0-7.19346,2.23155-7.19346,5.82828,0,3.14147,1.59339,4.8266,5.14482,5.96473l3.23206,1.04639c5.19011,1.73042,7.2852,3.9161,7.37579,8.33158.09175,5.50949-3.86965,8.56038-9.83439,8.56038-5.73594,0-8.55921-1.73043-8.55921-1.73043Z" fill="#1c1c1b"/><path d="M99.27249,190.1062l8.92388-29.50258h4.50723l8.96918,29.50258v1.4575h-1.9116l-2.68622-8.92388a28.90983,28.90983,0,0,1-13.29523,0L101.14,191.5637H99.27249Zm5.14482-9.46972a23.79688,23.79688,0,0,0,5.96474.72933,22.90326,22.90326,0,0,0,6.10061-.77462L113.023,169.11812c-.91051-2.91384-1.86747-6.55645-1.86747-6.55645h-1.41105s-1.00109,3.64261-1.91159,6.55645Z" fill="#1c1c1b"/></svg>