<?xml version="1.0" encoding="UTF-8" standalone="no"?>
<svg xmlns:rdf="http://www.w3.org/1999/02/22-rdf-syntax-ns#" xmlns="http://www.w3.org/2000/svg" height="157.36403" width="115.48403" version="1.1" xmlns:cc="http://creativecommons.org/ns#" xmlns:dc="http://purl.org/dc/elements/1.1/" viewBox="0 0 115.48403 157.36403"><ellipse cx="57.24249" cy="78.18224" rx="57.01315" ry="77.95315" fill="#fff"/><path d="M57.243,78.18246" fill="#fff"/><ellipse cx="57.24249" cy="78.18224" rx="57.01315" ry="77.95315" fill="none" stroke="#231f20" stroke-miterlimit="3.86369" stroke-width="0.45773"/><path d="M57.243,78.18246" fill="none" stroke="#231f20" stroke-miterlimit="3.86369" stroke-width="0.45773"/><path d="M95.82257,84.54916a39.55858,39.55858,0,1,1-10.56841-19.0039l-6.4433,6.5435a29.935,29.935,0,0,0-21.5796-8.9844,30.48805,30.48805,0,1,0,30.5054,30.4868H76.32936v-9.0317Z" fill="#c5103a" fill-rule="evenodd"/><path d="M95.82257,84.54916a39.55858,39.55858,0,1,1-10.56841-19.0039l-6.4433,6.5435a29.935,29.935,0,0,0-21.5796-8.9844,30.48805,30.48805,0,1,0,30.5054,30.4868H76.32936v-9.0317Z" fill="none" stroke="#c5103a" stroke-miterlimit="3.86371" stroke-width="0.15475" fill-rule="evenodd"/><path d="M50.77227,52.70787a11.30289,11.30289,0,1,1,17.7944-9.2583h8.9766a20.2932,20.2932,0,1,0-32.04,16.5391l24.5029,16.4511c6.1836,4.7466,8.4258,12.5464,8.4258,17.1514a21.20145,21.20145,0,1,1-42.4029,0,23.72,23.72,0,0,1,1.9371-9.0317h-8.7173A29.33753,29.33753,0,1,0,74.65366,70.079Z" fill="#fcb813" fill-rule="evenodd"/><path d="M87.75616,93.59116H76.32936v-9.0317l19.49321-.0103a39.75226,39.75226,0,0,1,1.02539,9.042Z" fill="#c5103a" fill-rule="evenodd"/><path d="M87.75616,93.59116H76.32936v-9.0317l19.49321-.0103a39.75226,39.75226,0,0,1,1.02539,9.042Z" fill="none" stroke="#c5103a" stroke-miterlimit="3.86371" stroke-width="0.15475" fill-rule="evenodd"/><path d="M46.64627,93.66876h-1.8198v-6.3696h-2.21v-1.2085a5.4246,5.4246,0,0,0,1.1314-.1181,2.26054,2.26054,0,0,0,1.42971-.8975,1.22852,1.22852,0,0,0,.25929-.6235h1.2094Z" fill="#231f20" fill-rule="evenodd"/><path d="M50.31327,91.51016a.85787.85787,0,0,0,.2456.6757.96123.96123,0,0,0,.7412.3506h.1558a1.244,1.244,0,0,0,.7803-.247,1.31757,1.31757,0,0,0,.4409-.584,4.12052,4.12052,0,0,0,.20851-.68951,2.903,2.903,0,0,0,.09179-.67629,1.3808,1.3808,0,0,0-.0796-.46771,1.66364,1.66364,0,0,1-.7275.61131,5.15284,5.15284,0,0,1-.5171.1563,1.40948,1.40948,0,0,1-.314.039h-.4023q-.20805-.0396-.5596-.0918a2.23975,2.23975,0,0,1-.8443-.4419,2.67274,2.67274,0,0,1-.8193-1.0395,3.94549,3.94549,0,0,1-.3003-1.5992A3.56515,3.56515,0,0,1,48.805,85.766a3.056,3.056,0,0,1,1.0772-1.13279,2.79224,2.79224,0,0,1,1.5229-.42721,3.53865,3.53865,0,0,1,1.8316.54491,2.06923,2.06923,0,0,1,1.0283,1.2729,5.24686,5.24686,0,0,1,.3623,1.2754,8.06675,8.06675,0,0,1,.1308,1.481,10.15559,10.15559,0,0,1-.2084,2.0532,6.10293,6.10293,0,0,1-.6109,1.769,2.26039,2.26039,0,0,1-1.1567,1.0664,4.017,4.017,0,0,1-1.482.2974,2.58785,2.58785,0,0,1-2.1572-.8965,2.101,2.101,0,0,1-.6108-1.5595Zm1.1426-5.771a1.13362,1.13362,0,0,0-.9092.3623,2.07478,2.07478,0,0,0-.417.6904,2.53658,2.53658,0,0,0-.0893.6899,2.33055,2.33055,0,0,0,.0893.66119,1.93819,1.93819,0,0,0,.4292.65041,1.28618,1.28618,0,0,0,.94971.3383,1.20478,1.20478,0,0,0,.90919-.3383,1.71146,1.71146,0,0,0,.4292-.65041,2.21042,2.21042,0,0,0,.0918-.65039,2.46756,2.46756,0,0,0-.1308-.8047,1.27949,1.27949,0,0,0-.3106-.5718,1.166,1.166,0,0,0-.456-.2739A1.65811,1.65811,0,0,0,51.45587,85.73916Z" fill="#231f20" fill-rule="evenodd"/><path d="M56.59157,93.06966a3.77113,3.77113,0,0,1-.72941-1.6499,11.677,11.677,0,0,1-.2071-2.3144,11.53637,11.53637,0,0,1,.2071-2.2886,3.57377,3.57377,0,0,1,.6499-1.5723,2.44819,2.44819,0,0,1,1.0273-.76751,3.64663,3.64663,0,0,1,2.5625,0,2.43136,2.43136,0,0,1,1.0391.76751,3.52929,3.52929,0,0,1,.6504,1.5611,11.52074,11.52074,0,0,1,.207,2.2998,11.767,11.767,0,0,1-.207,2.3008,3.62907,3.62907,0,0,1-.6504,1.5727,2.46572,2.46572,0,0,1-1.02539.7539,3.43339,3.43339,0,0,1-1.28911.2334,3.4827,3.4827,0,0,1-1.2871-.2334A2.196,2.196,0,0,1,56.59157,93.06966Zm3.32719-1.3779a8.56024,8.56024,0,0,0,.2612-2.5864,8.985,8.985,0,0,0-.1836-2.3775,1.10874,1.10874,0,0,0-.4931-.6513,1.40179,1.40179,0,0,0-.6768-.168,1.44034,1.44034,0,0,0-.6748.1543,1.1137,1.1137,0,0,0-.49509.6504,9.26342,9.26342,0,0,0-.18171,2.3921,9.07937,9.07937,0,0,0,.18171,2.3784,1.16947,1.16947,0,0,0,.49509.6636,1.48357,1.48357,0,0,0,.6748.1557,1.53692,1.53692,0,0,0,.6768-.1435A.84425.84425,0,0,0,59.91876,91.69176Z" fill="#231f20" fill-rule="evenodd"/><path d="M64.65066,91.27626a1.25254,1.25254,0,0,0,.2735.832,1.4283,1.4283,0,0,0,1.0918.32469,1.15232,1.15232,0,0,0,1.039-.49359,2.25841,2.25841,0,0,0,.3262-1.2481,2.00045,2.00045,0,0,0-.2598-1.1577,1.4034,1.4034,0,0,0-1.1582-.624h-.14259a1.34314,1.34314,0,0,0-.63671.20939,1.0091,1.0091,0,0,0-.40429.46731H63.13116l.831-5.1347h4.9131v1.6391h-3.7939l-.3135,1.8965a3.51055,3.51055,0,0,1,.4561-.2461,2.84751,2.84751,0,0,1,.4414-.1816,1.99074,1.99074,0,0,1,.3369-.0777,1.88711,1.88711,0,0,1,.3652-.0283,3.34334,3.34334,0,0,1,.4278.0283,5.03242,5.03242,0,0,1,.8574.2456,2.14,2.14,0,0,1,1.1054,1.0401,3.55034,3.55034,0,0,1,.4688,1.8193,3.49621,3.49621,0,0,1-.4688,1.8589,3.2985,3.2985,0,0,1-1.0917,1.145,3.06993,3.06993,0,0,1-1.625.3755,3.91368,3.91368,0,0,1-1.3379-.1811,3.55454,3.55454,0,0,1-.92389-.545,2.70808,2.70808,0,0,1-.68941-.8335,2.49724,2.49724,0,0,1-.2334-1.1303Z" fill="#231f20" fill-rule="evenodd"/></svg>