<?xml version="1.0" encoding="UTF-8" standalone="no"?>
<svg xmlns:rdf="http://www.w3.org/1999/02/22-rdf-syntax-ns#" xmlns="http://www.w3.org/2000/svg" height="75.51196" width="75.51199" version="1.1" xmlns:cc="http://creativecommons.org/ns#" xmlns:dc="http://purl.org/dc/elements/1.1/" viewBox="0 0 75.51199 75.51196"><path d="M0,37.75494A37.756,37.756,0,1,1,37.756,75.512,37.75518,37.75518,0,0,1,0,37.75494" fill="#008752"/><path d="M19.816,58.364l.089,1.037-3.55,3.724-1.037-.043L12.925,60.8l.83-.871.249.238,2.838-2.976-.25-.238.831-.871,2.393,2.282m-3.974,3.555,2.838-2.976-.965-.919L14.878,61Z" fill="#fff"/><polyline points="17.579 64.949 18.24 63.943 18.528 64.132 20.785 60.695 20.497 60.506 21.158 59.501 24.338 61.589 23.388 63.036 22.382 62.375 22.671 61.935 21.791 61.356 20.993 62.57 22.37 63.474 21.707 64.483 20.33 63.579 19.533 64.793 20.414 65.372 20.703 64.931 21.709 65.592 20.759 67.038 17.579 64.949" fill="#fff"/><path d="M27.443,66.959l-.99.33-1.514-.65-.398.927.321.137-.474,1.106-1.743-.747.474-1.106.317.136,1.62-3.78-.316-.135.474-1.106L28.15,63.33l.446.941-1.153,2.688m-.905-.943.749-1.747-1.125-.482-.749,1.746Z" fill="#fff"/><polyline points="32.529 70.525 31.613 71.026 29.468 70.557 28.86 69.728 29.849 65.2 29.512 65.126 29.769 63.951 31.618 64.354 31.361 65.53 31.024 65.457 30.147 69.474 31.464 69.762 32.342 65.744 32.001 65.67 32.258 64.494 34.111 64.899 33.854 66.075 33.517 66.001 32.529 70.525" fill="#fff"/><polyline points="34.774 71.451 34.846 70.25 35.189 70.27 35.434 66.166 35.09 66.145 35.162 64.944 37.054 65.057 36.983 66.258 36.639 66.237 36.395 70.342 36.738 70.362 36.667 71.564 34.774 71.451" fill="#fff"/><polyline points="42.223 70.63 41.513 71.37 39.441 71.539 38.613 70.924 38.527 69.878 39.727 69.78 39.77 70.305 40.981 70.207 40.863 68.759 39.226 68.893 38.397 68.273 38.194 65.788 38.912 65.042 40.984 64.874 41.804 65.489 41.889 66.536 40.69 66.633 40.647 66.108 39.436 66.207 39.553 67.654 41.199 67.52 42.02 68.14 42.223 70.63" fill="#fff"/><polyline points="47.474 70.148 47.096 69.005 47.423 68.897 46.221 65.257 45.894 65.365 45.516 64.223 46.134 63.726 46.898 63.473 48.566 68.52 48.893 68.412 49.27 69.554 47.474 70.148" fill="#fff"/><path d="M54.113,66.62494l-.39.952-1.859.92-.994-.268-.465-.94,1.052-.521.234.472,1.112-.55-.644-1.302-1.507.745-.99-.269-1.107-2.239.384-.954,1.885-.933,1.005.272,2.284,4.615m-2.49-2.319-.644-1.301-1.112.55.644,1.301Z" fill="#fff"/><polyline points="57.203 61.29 56.966 62.31 55.636 63.281 56.492 64.454 57.49 63.725 57.18 63.3 58.152 62.59 59.172 63.989 56.228 66.136 54.353 63.565 54.579 62.557 55.923 61.577 55.067 60.404 54.078 61.125 54.389 61.551 53.406 62.267 52.788 61.419 53.014 60.412 54.706 59.177 55.731 59.272 57.203 61.29" fill="#fff"/><path d="M62.826,59.493l-.047,1.028-1.442,1.491-1.026.082-.754-.729.816-.845.379.366.862-.891-1.044-1.01-1.168,1.208-1.023.079-1.795-1.736.041-1.028,1.462-1.512,1.038-.082,3.701,3.579m-3.124-1.347-1.044-1.009-.862.891,1.044,1.01Z" fill="#fff"/><polyline points="18.233 18.105 17.328 17.029 17.636 16.77 14.544 13.093 14.236 13.352 13.331 12.276 15.027 10.85 15.932 11.926 15.624 12.185 18.716 15.862 19.536 15.173 19.14 14.701 20.219 13.794 21.52 15.341 18.233 18.105" fill="#fff"/><polyline points="23.499 14.114 22.826 12.88 23.179 12.687 20.878 8.47 20.525 8.663 19.851 7.428 21.796 6.367 22.469 7.601 22.116 7.794 24.417 12.011 24.771 11.819 25.444 13.053 23.499 14.114" fill="#fff"/><polyline points="31.215 10.961 30.842 9.606 31.216 9.503 30.45 6.722 29.962 9.571 28.089 7.372 28.855 10.153 29.229 10.05 29.603 11.405 27.466 11.993 27.093 10.638 27.5 10.526 26.224 5.894 25.832 6.002 25.459 4.647 27.207 4.165 29.079 6.365 29.567 3.515 31.315 3.034 31.688 4.389 31.3 4.496 32.576 9.128 32.978 9.018 33.351 10.373 31.215 10.961" fill="#fff"/><path d="M39.986,9.402l-.907.794-2.618-.005-.895-.796.009-6.021.899-.799,2.618.005.905.801-.011,6.021m-1.409-.613.008-4.804L36.98,3.982l-.008,4.804Z" fill="#fff"/><polyline points="46.632 10.731 45.558 11.288 43.1 10.69 42.416 9.705 43.84 3.855 44.914 3.293 47.359 3.888 48.056 4.881 47.767 6.068 46.401 5.735 46.546 5.137 45.067 4.777 43.931 9.445 45.41 9.805 45.812 8.156 44.879 7.929 45.212 6.559 47.511 7.118 46.632 10.731" fill="#fff"/><polyline points="48.568 12.288 49.215 11.04 49.572 11.225 51.781 6.958 51.424 6.773 52.07 5.525 56.017 7.569 55.088 9.364 53.84 8.718 54.123 8.171 53.029 7.605 52.249 9.112 53.958 9.997 53.309 11.249 51.6 10.364 50.82 11.871 51.913 12.437 52.197 11.891 53.445 12.537 52.516 14.332 48.568 12.288" fill="#fff"/><polyline points="58.092 17.796 56.894 17.806 55.062 16.211 54.901 15.016 55.707 14.091 56.767 15.015 56.362 15.479 57.433 16.412 58.548 15.133 57.101 13.872 56.942 12.673 58.856 10.476 60.065 10.469 61.896 12.064 62.05 13.252 61.245 14.177 60.184 13.254 60.589 12.79 59.518 11.857 58.404 13.136 59.858 14.403 60.009 15.596 58.092 17.796" fill="#fff"/><polyline points="25.4 47.999 22.163 50.792 13.357 50.792 10.206 47.999 10.206 26.844 13.357 24.033 22.163 24.033 25.4 26.86 25.4 31.135 20.46 31.135 20.46 28.973 15.146 28.973 15.146 45.853 20.46 45.853 20.46 43.689 25.4 43.689 25.4 47.999" fill="#fff"/><polyline points="44.411 38.741 41.259 41.534 32.726 41.534 29.541 38.741 29.541 34.43 34.481 34.43 34.481 36.593 39.471 36.593 39.471 30.632 32.726 30.632 29.541 27.821 29.541 17.584 32.726 14.774 41.259 14.774 44.411 17.567 44.411 21.876 39.471 21.876 39.471 19.713 34.481 19.713 34.481 25.675 41.259 25.675 44.411 28.485 44.411 38.741" fill="#fff"/><path d="M65.799,38.887l-3.203,2.844H55.834v4.138h1.43v4.94h-7.784v-4.94h1.414V28.988h-1.414V24.049H62.596l3.203,2.828V38.887m-9.965-2.096h5.025V28.9884H55.834Z" fill="#fff"/><polyline points="33.607 58.53 37.714 55.546 41.824 58.53 40.253 53.7 44.361 50.716 39.283 50.716 37.714 45.887 36.144 50.716 31.068 50.716 35.175 53.7 33.607 58.53" fill="#fff"/></svg>